%TF.GenerationSoftware,KiCad,Pcbnew,8.0.4*%
%TF.CreationDate,2024-08-10T08:10:45+10:00*%
%TF.ProjectId,CW HF Transceiver,43572048-4620-4547-9261-6e7363656976,rev?*%
%TF.SameCoordinates,Original*%
%TF.FileFunction,Copper,L1,Top*%
%TF.FilePolarity,Positive*%
%FSLAX46Y46*%
G04 Gerber Fmt 4.6, Leading zero omitted, Abs format (unit mm)*
G04 Created by KiCad (PCBNEW 8.0.4) date 2024-08-10 08:10:45*
%MOMM*%
%LPD*%
G01*
G04 APERTURE LIST*
G04 Aperture macros list*
%AMRoundRect*
0 Rectangle with rounded corners*
0 $1 Rounding radius*
0 $2 $3 $4 $5 $6 $7 $8 $9 X,Y pos of 4 corners*
0 Add a 4 corners polygon primitive as box body*
4,1,4,$2,$3,$4,$5,$6,$7,$8,$9,$2,$3,0*
0 Add four circle primitives for the rounded corners*
1,1,$1+$1,$2,$3*
1,1,$1+$1,$4,$5*
1,1,$1+$1,$6,$7*
1,1,$1+$1,$8,$9*
0 Add four rect primitives between the rounded corners*
20,1,$1+$1,$2,$3,$4,$5,0*
20,1,$1+$1,$4,$5,$6,$7,0*
20,1,$1+$1,$6,$7,$8,$9,0*
20,1,$1+$1,$8,$9,$2,$3,0*%
%AMFreePoly0*
4,1,9,3.862500,-0.866500,0.737500,-0.866500,0.737500,-0.450000,-0.737500,-0.450000,-0.737500,0.450000,0.737500,0.450000,0.737500,0.866500,3.862500,0.866500,3.862500,-0.866500,3.862500,-0.866500,$1*%
G04 Aperture macros list end*
%TA.AperFunction,SMDPad,CuDef*%
%ADD10RoundRect,0.225000X-0.225000X-0.250000X0.225000X-0.250000X0.225000X0.250000X-0.225000X0.250000X0*%
%TD*%
%TA.AperFunction,SMDPad,CuDef*%
%ADD11RoundRect,0.200000X-0.200000X-0.275000X0.200000X-0.275000X0.200000X0.275000X-0.200000X0.275000X0*%
%TD*%
%TA.AperFunction,SMDPad,CuDef*%
%ADD12RoundRect,0.225000X-0.425000X-0.225000X0.425000X-0.225000X0.425000X0.225000X-0.425000X0.225000X0*%
%TD*%
%TA.AperFunction,SMDPad,CuDef*%
%ADD13FreePoly0,0.000000*%
%TD*%
%TA.AperFunction,SMDPad,CuDef*%
%ADD14RoundRect,0.087500X-0.725000X-0.087500X0.725000X-0.087500X0.725000X0.087500X-0.725000X0.087500X0*%
%TD*%
%TA.AperFunction,Conductor*%
%ADD15C,0.200000*%
%TD*%
G04 APERTURE END LIST*
D10*
%TO.P,C22,1*%
%TO.N,+5V*%
X195888000Y-87092000D03*
%TO.P,C22,2*%
%TO.N,GND*%
X197438000Y-87092000D03*
%TD*%
D11*
%TO.P,R12,1*%
%TO.N,+3.3V*%
X213878000Y-84582000D03*
%TO.P,R12,2*%
%TO.N,/Morse Input*%
X215528000Y-84582000D03*
%TD*%
%TO.P,R8,1*%
%TO.N,Net-(C5-Pad2)*%
X207868000Y-67522000D03*
%TO.P,R8,2*%
%TO.N,Net-(U3-XOUT)*%
X209518000Y-67522000D03*
%TD*%
D10*
%TO.P,C1,1*%
%TO.N,+5V*%
X195888000Y-65012000D03*
%TO.P,C1,2*%
%TO.N,GND*%
X197438000Y-65012000D03*
%TD*%
%TO.P,C4,1*%
%TO.N,GND*%
X195888000Y-72542000D03*
%TO.P,C4,2*%
%TO.N,Net-(U3-XIN)*%
X197438000Y-72542000D03*
%TD*%
%TO.P,C5,1*%
%TO.N,GND*%
X195888000Y-75052000D03*
%TO.P,C5,2*%
%TO.N,Net-(C5-Pad2)*%
X197438000Y-75052000D03*
%TD*%
%TO.P,C6,1*%
%TO.N,+1V1*%
X195888000Y-77562000D03*
%TO.P,C6,2*%
%TO.N,GND*%
X197438000Y-77562000D03*
%TD*%
D11*
%TO.P,R7,1*%
%TO.N,/RP2040 Driver/D-*%
X207868000Y-65012000D03*
%TO.P,R7,2*%
%TO.N,Net-(U3-USB_DM)*%
X209518000Y-65012000D03*
%TD*%
%TO.P,R9,1*%
%TO.N,+3.3V*%
X207868000Y-70032000D03*
%TO.P,R9,2*%
%TO.N,/RP2040 Driver/scl*%
X209518000Y-70032000D03*
%TD*%
D10*
%TO.P,C20,1*%
%TO.N,VCC*%
X219938000Y-84582000D03*
%TO.P,C20,2*%
%TO.N,GND*%
X221488000Y-84582000D03*
%TD*%
%TO.P,C12,1*%
%TO.N,+3.3V*%
X199898000Y-75052000D03*
%TO.P,C12,2*%
%TO.N,Net-(C11-Pad2)*%
X201448000Y-75052000D03*
%TD*%
D11*
%TO.P,R5,1*%
%TO.N,+3.3V*%
X203858000Y-77562000D03*
%TO.P,R5,2*%
%TO.N,/RP2040 Driver/QSPI_SS*%
X205508000Y-77562000D03*
%TD*%
D10*
%TO.P,C25,1*%
%TO.N,/Receiver/RCLK*%
X213928000Y-67522000D03*
%TO.P,C25,2*%
%TO.N,GND*%
X215478000Y-67522000D03*
%TD*%
%TO.P,C15,1*%
%TO.N,+3.3V*%
X203908000Y-65012000D03*
%TO.P,C15,2*%
%TO.N,Net-(C11-Pad2)*%
X205458000Y-65012000D03*
%TD*%
%TO.P,C14,1*%
%TO.N,+3.3V*%
X199898000Y-80072000D03*
%TO.P,C14,2*%
%TO.N,Net-(C11-Pad2)*%
X201448000Y-80072000D03*
%TD*%
%TO.P,C10,1*%
%TO.N,+3.3V*%
X199898000Y-70032000D03*
%TO.P,C10,2*%
%TO.N,GND*%
X201448000Y-70032000D03*
%TD*%
%TO.P,C9,1*%
%TO.N,+3.3V*%
X199898000Y-67522000D03*
%TO.P,C9,2*%
%TO.N,Net-(C11-Pad2)*%
X201448000Y-67522000D03*
%TD*%
%TO.P,C18,1*%
%TO.N,Net-(Q4-D)*%
X219938000Y-67522000D03*
%TO.P,C18,2*%
%TO.N,GND*%
X221488000Y-67522000D03*
%TD*%
D12*
%TO.P,U5,1,GND*%
%TO.N,GND*%
X200093000Y-84927000D03*
D13*
%TO.P,U5,2,VI*%
%TO.N,Vdrive*%
X200180500Y-86427000D03*
D12*
%TO.P,U5,3,VO*%
%TO.N,+5V*%
X200093000Y-87927000D03*
%TD*%
D10*
%TO.P,C27,1*%
%TO.N,+3.3V*%
X213928000Y-72542000D03*
%TO.P,C27,2*%
%TO.N,GND*%
X215478000Y-72542000D03*
%TD*%
%TO.P,C28,1*%
%TO.N,+3.3V*%
X213928000Y-75052000D03*
%TO.P,C28,2*%
%TO.N,GND*%
X215478000Y-75052000D03*
%TD*%
%TO.P,C13,1*%
%TO.N,+3.3V*%
X199898000Y-77562000D03*
%TO.P,C13,2*%
%TO.N,Net-(C11-Pad2)*%
X201448000Y-77562000D03*
%TD*%
%TO.P,C17,1*%
%TO.N,Net-(Q3-D)*%
X219938000Y-65012000D03*
%TO.P,C17,2*%
%TO.N,GND*%
X221488000Y-65012000D03*
%TD*%
%TO.P,C11,1*%
%TO.N,+3.3V*%
X199898000Y-72542000D03*
%TO.P,C11,2*%
%TO.N,Net-(C11-Pad2)*%
X201448000Y-72542000D03*
%TD*%
%TO.P,C23,1*%
%TO.N,+5V*%
X195888000Y-89602000D03*
%TO.P,C23,2*%
%TO.N,GND*%
X197438000Y-89602000D03*
%TD*%
D14*
%TO.P,U4,1,VDD*%
%TO.N,+3.3V*%
X194784000Y-92488000D03*
%TO.P,U4,2,XA*%
%TO.N,Net-(U4-XA)*%
X194784000Y-92988000D03*
%TO.P,U4,3,XB*%
%TO.N,Net-(U4-XB)*%
X194784000Y-93488000D03*
%TO.P,U4,4,SCL*%
%TO.N,/RP2040 Driver/scl*%
X194784000Y-93988000D03*
%TO.P,U4,5,SDA*%
%TO.N,/RP2040 Driver/sda*%
X194784000Y-94488000D03*
%TO.P,U4,6,CLK2*%
%TO.N,/Square Wave Gen/BFO out*%
X199009000Y-94488000D03*
%TO.P,U4,7,VDDO*%
%TO.N,+3.3V*%
X199009000Y-93988000D03*
%TO.P,U4,8,GND*%
%TO.N,GND*%
X199009000Y-93488000D03*
%TO.P,U4,9,CLK1*%
%TO.N,/Amplifier/180\u00BA Wave*%
X199009000Y-92988000D03*
%TO.P,U4,10,CLK0*%
%TO.N,/Amplifier/0\u00BA Wave*%
X199009000Y-92488000D03*
%TD*%
D11*
%TO.P,R11,1*%
%TO.N,+3.3V*%
X213878000Y-77562000D03*
%TO.P,R11,2*%
%TO.N,Net-(U7-~{RST})*%
X215528000Y-77562000D03*
%TD*%
D10*
%TO.P,C19,1*%
%TO.N,+3.3V*%
X219938000Y-82072000D03*
%TO.P,C19,2*%
%TO.N,GND*%
X221488000Y-82072000D03*
%TD*%
%TO.P,C3,1*%
%TO.N,+3.3V*%
X195888000Y-70032000D03*
%TO.P,C3,2*%
%TO.N,GND*%
X197438000Y-70032000D03*
%TD*%
%TO.P,C26,1*%
%TO.N,+3.3V*%
X213928000Y-70032000D03*
%TO.P,C26,2*%
%TO.N,Net-(U7-DBYP)*%
X215478000Y-70032000D03*
%TD*%
%TO.P,C24,1*%
%TO.N,/Receiver/DCLK*%
X213928000Y-65012000D03*
%TO.P,C24,2*%
%TO.N,GND*%
X215478000Y-65012000D03*
%TD*%
D11*
%TO.P,R1,1*%
%TO.N,VCC*%
X213878000Y-82072000D03*
%TO.P,R1,2*%
%TO.N,Vdrive*%
X215528000Y-82072000D03*
%TD*%
%TO.P,R6,1*%
%TO.N,/RP2040 Driver/D+*%
X203858000Y-80072000D03*
%TO.P,R6,2*%
%TO.N,Net-(U3-USB_DP)*%
X205508000Y-80072000D03*
%TD*%
D10*
%TO.P,C8,1*%
%TO.N,+1V1*%
X199898000Y-65012000D03*
%TO.P,C8,2*%
%TO.N,GND*%
X201448000Y-65012000D03*
%TD*%
%TO.P,C2,1*%
%TO.N,+3.3V*%
X195888000Y-67522000D03*
%TO.P,C2,2*%
%TO.N,GND*%
X197438000Y-67522000D03*
%TD*%
D11*
%TO.P,R3,1*%
%TO.N,Net-(J6-CC1)*%
X203858000Y-72542000D03*
%TO.P,R3,2*%
%TO.N,GND*%
X205508000Y-72542000D03*
%TD*%
%TO.P,R10,1*%
%TO.N,+3.3V*%
X207868000Y-72542000D03*
%TO.P,R10,2*%
%TO.N,/RP2040 Driver/sda*%
X209518000Y-72542000D03*
%TD*%
%TO.P,R4,1*%
%TO.N,Net-(JP1-B)*%
X203858000Y-75052000D03*
%TO.P,R4,2*%
%TO.N,/RP2040 Driver/QSPI_SS*%
X205508000Y-75052000D03*
%TD*%
%TO.P,R2,1*%
%TO.N,Net-(J6-CC2)*%
X203858000Y-70032000D03*
%TO.P,R2,2*%
%TO.N,GND*%
X205508000Y-70032000D03*
%TD*%
D10*
%TO.P,C21,1*%
%TO.N,Vdrive*%
X195888000Y-84582000D03*
%TO.P,C21,2*%
%TO.N,GND*%
X197438000Y-84582000D03*
%TD*%
%TO.P,C7,1*%
%TO.N,+1V1*%
X195888000Y-80072000D03*
%TO.P,C7,2*%
%TO.N,GND*%
X197438000Y-80072000D03*
%TD*%
%TO.P,C16,1*%
%TO.N,+3.3V*%
X203908000Y-67522000D03*
%TO.P,C16,2*%
%TO.N,Net-(C11-Pad2)*%
X205458000Y-67522000D03*
%TD*%
D15*
%TO.N,Net-(U3-USB_DP)*%
X205508000Y-80072000D02*
X205508000Y-80115000D01*
X205508000Y-80115000D02*
X205486000Y-80137000D01*
%TD*%
M02*
