%TF.GenerationSoftware,KiCad,Pcbnew,8.0.4*%
%TF.CreationDate,2024-08-10T08:10:45+10:00*%
%TF.ProjectId,CW HF Transceiver,43572048-4620-4547-9261-6e7363656976,rev?*%
%TF.SameCoordinates,Original*%
%TF.FileFunction,Soldermask,Top*%
%TF.FilePolarity,Negative*%
%FSLAX46Y46*%
G04 Gerber Fmt 4.6, Leading zero omitted, Abs format (unit mm)*
G04 Created by KiCad (PCBNEW 8.0.4) date 2024-08-10 08:10:45*
%MOMM*%
%LPD*%
G01*
G04 APERTURE LIST*
G04 APERTURE END LIST*
G36*
X195557027Y-92284553D02*
G01*
X195597742Y-92311758D01*
X195624947Y-92352473D01*
X195634500Y-92400500D01*
X195634500Y-92575500D01*
X195624947Y-92623527D01*
X195597742Y-92664242D01*
X195557027Y-92691447D01*
X195524373Y-92697942D01*
X195524330Y-92778049D01*
X195557027Y-92784553D01*
X195597742Y-92811758D01*
X195624947Y-92852473D01*
X195634500Y-92900500D01*
X195634500Y-93075500D01*
X195624947Y-93123527D01*
X195597742Y-93164242D01*
X195557027Y-93191447D01*
X195524373Y-93197942D01*
X195524330Y-93278049D01*
X195557027Y-93284553D01*
X195597742Y-93311758D01*
X195624947Y-93352473D01*
X195634500Y-93400500D01*
X195634500Y-93575500D01*
X195624947Y-93623527D01*
X195597742Y-93664242D01*
X195557027Y-93691447D01*
X195524373Y-93697942D01*
X195524330Y-93778049D01*
X195557027Y-93784553D01*
X195597742Y-93811758D01*
X195624947Y-93852473D01*
X195634500Y-93900500D01*
X195634500Y-94075500D01*
X195624947Y-94123527D01*
X195597742Y-94164242D01*
X195557027Y-94191447D01*
X195524373Y-94197942D01*
X195524330Y-94278049D01*
X195557027Y-94284553D01*
X195597742Y-94311758D01*
X195624947Y-94352473D01*
X195634500Y-94400500D01*
X195634500Y-94575500D01*
X195624947Y-94623527D01*
X195597742Y-94664242D01*
X195557027Y-94691447D01*
X195509000Y-94701000D01*
X194059000Y-94701000D01*
X194010973Y-94691447D01*
X193970258Y-94664242D01*
X193943053Y-94623527D01*
X193933500Y-94575500D01*
X193933500Y-94400500D01*
X193943053Y-94352473D01*
X193970258Y-94311758D01*
X194010973Y-94284553D01*
X194043647Y-94278053D01*
X194043647Y-94197946D01*
X194010973Y-94191447D01*
X193970258Y-94164242D01*
X193943053Y-94123527D01*
X193933500Y-94075500D01*
X193933500Y-93900500D01*
X193943053Y-93852473D01*
X193970258Y-93811758D01*
X194010973Y-93784553D01*
X194043647Y-93778053D01*
X194043647Y-93697946D01*
X194010973Y-93691447D01*
X193970258Y-93664242D01*
X193943053Y-93623527D01*
X193933500Y-93575500D01*
X193933500Y-93400500D01*
X193943053Y-93352473D01*
X193970258Y-93311758D01*
X194010973Y-93284553D01*
X194043647Y-93278053D01*
X194043647Y-93197946D01*
X194010973Y-93191447D01*
X193970258Y-93164242D01*
X193943053Y-93123527D01*
X193933500Y-93075500D01*
X193933500Y-92900500D01*
X193943053Y-92852473D01*
X193970258Y-92811758D01*
X194010973Y-92784553D01*
X194043647Y-92778053D01*
X194043647Y-92697946D01*
X194010973Y-92691447D01*
X193970258Y-92664242D01*
X193943053Y-92623527D01*
X193933500Y-92575500D01*
X193933500Y-92400500D01*
X193943053Y-92352473D01*
X193970258Y-92311758D01*
X194010973Y-92284553D01*
X194059000Y-92275000D01*
X195509000Y-92275000D01*
X195557027Y-92284553D01*
G37*
G36*
X199782027Y-92284553D02*
G01*
X199822742Y-92311758D01*
X199849947Y-92352473D01*
X199859500Y-92400500D01*
X199859500Y-92575500D01*
X199849947Y-92623527D01*
X199822742Y-92664242D01*
X199782027Y-92691447D01*
X199749373Y-92697942D01*
X199749330Y-92778049D01*
X199782027Y-92784553D01*
X199822742Y-92811758D01*
X199849947Y-92852473D01*
X199859500Y-92900500D01*
X199859500Y-93075500D01*
X199849947Y-93123527D01*
X199822742Y-93164242D01*
X199782027Y-93191447D01*
X199749373Y-93197942D01*
X199749330Y-93278049D01*
X199782027Y-93284553D01*
X199822742Y-93311758D01*
X199849947Y-93352473D01*
X199859500Y-93400500D01*
X199859500Y-93575500D01*
X199849947Y-93623527D01*
X199822742Y-93664242D01*
X199782027Y-93691447D01*
X199749373Y-93697942D01*
X199749330Y-93778049D01*
X199782027Y-93784553D01*
X199822742Y-93811758D01*
X199849947Y-93852473D01*
X199859500Y-93900500D01*
X199859500Y-94075500D01*
X199849947Y-94123527D01*
X199822742Y-94164242D01*
X199782027Y-94191447D01*
X199749373Y-94197942D01*
X199749330Y-94278049D01*
X199782027Y-94284553D01*
X199822742Y-94311758D01*
X199849947Y-94352473D01*
X199859500Y-94400500D01*
X199859500Y-94575500D01*
X199849947Y-94623527D01*
X199822742Y-94664242D01*
X199782027Y-94691447D01*
X199734000Y-94701000D01*
X198284000Y-94701000D01*
X198235973Y-94691447D01*
X198195258Y-94664242D01*
X198168053Y-94623527D01*
X198158500Y-94575500D01*
X198158500Y-94400500D01*
X198168053Y-94352473D01*
X198195258Y-94311758D01*
X198235973Y-94284553D01*
X198268647Y-94278053D01*
X198268647Y-94197946D01*
X198235973Y-94191447D01*
X198195258Y-94164242D01*
X198168053Y-94123527D01*
X198158500Y-94075500D01*
X198158500Y-93900500D01*
X198168053Y-93852473D01*
X198195258Y-93811758D01*
X198235973Y-93784553D01*
X198268647Y-93778053D01*
X198268647Y-93697946D01*
X198235973Y-93691447D01*
X198195258Y-93664242D01*
X198168053Y-93623527D01*
X198158500Y-93575500D01*
X198158500Y-93400500D01*
X198168053Y-93352473D01*
X198195258Y-93311758D01*
X198235973Y-93284553D01*
X198268647Y-93278053D01*
X198268647Y-93197946D01*
X198235973Y-93191447D01*
X198195258Y-93164242D01*
X198168053Y-93123527D01*
X198158500Y-93075500D01*
X198158500Y-92900500D01*
X198168053Y-92852473D01*
X198195258Y-92811758D01*
X198235973Y-92784553D01*
X198268647Y-92778053D01*
X198268647Y-92697946D01*
X198235973Y-92691447D01*
X198195258Y-92664242D01*
X198168053Y-92623527D01*
X198158500Y-92575500D01*
X198158500Y-92400500D01*
X198168053Y-92352473D01*
X198195258Y-92311758D01*
X198235973Y-92284553D01*
X198284000Y-92275000D01*
X199734000Y-92275000D01*
X199782027Y-92284553D01*
G37*
G36*
X196119409Y-89090274D02*
G01*
X196179852Y-89098232D01*
X196195057Y-89105322D01*
X196213646Y-89109020D01*
X196238266Y-89125470D01*
X196263407Y-89137194D01*
X196278702Y-89152489D01*
X196298969Y-89166031D01*
X196312510Y-89186297D01*
X196327805Y-89201592D01*
X196339527Y-89226730D01*
X196355980Y-89251354D01*
X196359677Y-89269944D01*
X196366767Y-89285147D01*
X196374722Y-89345577D01*
X196376000Y-89352000D01*
X196376000Y-89852000D01*
X196374722Y-89858424D01*
X196366767Y-89918852D01*
X196359678Y-89934054D01*
X196355980Y-89952646D01*
X196339525Y-89977271D01*
X196327805Y-90002407D01*
X196312512Y-90017699D01*
X196298969Y-90037969D01*
X196278699Y-90051512D01*
X196263407Y-90066805D01*
X196238271Y-90078525D01*
X196213646Y-90094980D01*
X196195054Y-90098678D01*
X196179852Y-90105767D01*
X196119424Y-90113722D01*
X196113000Y-90115000D01*
X195663000Y-90115000D01*
X195656577Y-90113722D01*
X195596147Y-90105767D01*
X195580944Y-90098677D01*
X195562354Y-90094980D01*
X195537730Y-90078527D01*
X195512592Y-90066805D01*
X195497297Y-90051510D01*
X195477031Y-90037969D01*
X195463489Y-90017702D01*
X195448194Y-90002407D01*
X195436470Y-89977266D01*
X195420020Y-89952646D01*
X195416322Y-89934057D01*
X195409232Y-89918852D01*
X195401274Y-89858409D01*
X195400000Y-89852000D01*
X195400000Y-89352000D01*
X195401274Y-89345592D01*
X195409232Y-89285147D01*
X195416322Y-89269940D01*
X195420020Y-89251354D01*
X195436469Y-89226735D01*
X195448194Y-89201592D01*
X195463491Y-89186294D01*
X195477031Y-89166031D01*
X195497294Y-89152491D01*
X195512592Y-89137194D01*
X195537735Y-89125469D01*
X195562354Y-89109020D01*
X195580940Y-89105322D01*
X195596147Y-89098232D01*
X195656592Y-89090274D01*
X195663000Y-89089000D01*
X196113000Y-89089000D01*
X196119409Y-89090274D01*
G37*
G36*
X197669409Y-89090274D02*
G01*
X197729852Y-89098232D01*
X197745057Y-89105322D01*
X197763646Y-89109020D01*
X197788266Y-89125470D01*
X197813407Y-89137194D01*
X197828702Y-89152489D01*
X197848969Y-89166031D01*
X197862510Y-89186297D01*
X197877805Y-89201592D01*
X197889527Y-89226730D01*
X197905980Y-89251354D01*
X197909677Y-89269944D01*
X197916767Y-89285147D01*
X197924722Y-89345577D01*
X197926000Y-89352000D01*
X197926000Y-89852000D01*
X197924722Y-89858424D01*
X197916767Y-89918852D01*
X197909678Y-89934054D01*
X197905980Y-89952646D01*
X197889525Y-89977271D01*
X197877805Y-90002407D01*
X197862512Y-90017699D01*
X197848969Y-90037969D01*
X197828699Y-90051512D01*
X197813407Y-90066805D01*
X197788271Y-90078525D01*
X197763646Y-90094980D01*
X197745054Y-90098678D01*
X197729852Y-90105767D01*
X197669424Y-90113722D01*
X197663000Y-90115000D01*
X197213000Y-90115000D01*
X197206577Y-90113722D01*
X197146147Y-90105767D01*
X197130944Y-90098677D01*
X197112354Y-90094980D01*
X197087730Y-90078527D01*
X197062592Y-90066805D01*
X197047297Y-90051510D01*
X197027031Y-90037969D01*
X197013489Y-90017702D01*
X196998194Y-90002407D01*
X196986470Y-89977266D01*
X196970020Y-89952646D01*
X196966322Y-89934057D01*
X196959232Y-89918852D01*
X196951274Y-89858409D01*
X196950000Y-89852000D01*
X196950000Y-89352000D01*
X196951274Y-89345592D01*
X196959232Y-89285147D01*
X196966322Y-89269940D01*
X196970020Y-89251354D01*
X196986469Y-89226735D01*
X196998194Y-89201592D01*
X197013491Y-89186294D01*
X197027031Y-89166031D01*
X197047294Y-89152491D01*
X197062592Y-89137194D01*
X197087735Y-89125469D01*
X197112354Y-89109020D01*
X197130940Y-89105322D01*
X197146147Y-89098232D01*
X197206592Y-89090274D01*
X197213000Y-89089000D01*
X197663000Y-89089000D01*
X197669409Y-89090274D01*
G37*
G36*
X200524409Y-87440274D02*
G01*
X200584852Y-87448232D01*
X200600057Y-87455322D01*
X200618646Y-87459020D01*
X200643266Y-87475470D01*
X200668407Y-87487194D01*
X200683702Y-87502489D01*
X200703969Y-87516031D01*
X200717510Y-87536297D01*
X200732805Y-87551592D01*
X200744527Y-87576730D01*
X200760980Y-87601354D01*
X200764677Y-87619944D01*
X200771767Y-87635147D01*
X200779722Y-87695577D01*
X200781000Y-87702000D01*
X200781000Y-88152000D01*
X200779722Y-88158424D01*
X200771767Y-88218852D01*
X200764678Y-88234054D01*
X200760980Y-88252646D01*
X200744525Y-88277271D01*
X200732805Y-88302407D01*
X200717512Y-88317699D01*
X200703969Y-88337969D01*
X200683699Y-88351512D01*
X200668407Y-88366805D01*
X200643271Y-88378525D01*
X200618646Y-88394980D01*
X200600054Y-88398678D01*
X200584852Y-88405767D01*
X200524424Y-88413722D01*
X200518000Y-88415000D01*
X199668000Y-88415000D01*
X199661577Y-88413722D01*
X199601147Y-88405767D01*
X199585944Y-88398677D01*
X199567354Y-88394980D01*
X199542730Y-88378527D01*
X199517592Y-88366805D01*
X199502297Y-88351510D01*
X199482031Y-88337969D01*
X199468489Y-88317702D01*
X199453194Y-88302407D01*
X199441470Y-88277266D01*
X199425020Y-88252646D01*
X199421322Y-88234057D01*
X199414232Y-88218852D01*
X199406274Y-88158409D01*
X199405000Y-88152000D01*
X199405000Y-87702000D01*
X199406274Y-87695592D01*
X199414232Y-87635147D01*
X199421322Y-87619940D01*
X199425020Y-87601354D01*
X199441469Y-87576735D01*
X199453194Y-87551592D01*
X199468491Y-87536294D01*
X199482031Y-87516031D01*
X199502294Y-87502491D01*
X199517592Y-87487194D01*
X199542735Y-87475469D01*
X199567354Y-87459020D01*
X199585940Y-87455322D01*
X199601147Y-87448232D01*
X199661592Y-87440274D01*
X199668000Y-87439000D01*
X200518000Y-87439000D01*
X200524409Y-87440274D01*
G37*
G36*
X196119409Y-86580274D02*
G01*
X196179852Y-86588232D01*
X196195057Y-86595322D01*
X196213646Y-86599020D01*
X196238266Y-86615470D01*
X196263407Y-86627194D01*
X196278702Y-86642489D01*
X196298969Y-86656031D01*
X196312510Y-86676297D01*
X196327805Y-86691592D01*
X196339527Y-86716730D01*
X196355980Y-86741354D01*
X196359677Y-86759944D01*
X196366767Y-86775147D01*
X196374722Y-86835577D01*
X196376000Y-86842000D01*
X196376000Y-87342000D01*
X196374722Y-87348424D01*
X196366767Y-87408852D01*
X196359678Y-87424054D01*
X196355980Y-87442646D01*
X196339525Y-87467271D01*
X196327805Y-87492407D01*
X196312512Y-87507699D01*
X196298969Y-87527969D01*
X196278699Y-87541512D01*
X196263407Y-87556805D01*
X196238271Y-87568525D01*
X196213646Y-87584980D01*
X196195054Y-87588678D01*
X196179852Y-87595767D01*
X196119424Y-87603722D01*
X196113000Y-87605000D01*
X195663000Y-87605000D01*
X195656577Y-87603722D01*
X195596147Y-87595767D01*
X195580944Y-87588677D01*
X195562354Y-87584980D01*
X195537730Y-87568527D01*
X195512592Y-87556805D01*
X195497297Y-87541510D01*
X195477031Y-87527969D01*
X195463489Y-87507702D01*
X195448194Y-87492407D01*
X195436470Y-87467266D01*
X195420020Y-87442646D01*
X195416322Y-87424057D01*
X195409232Y-87408852D01*
X195401274Y-87348409D01*
X195400000Y-87342000D01*
X195400000Y-86842000D01*
X195401274Y-86835592D01*
X195409232Y-86775147D01*
X195416322Y-86759940D01*
X195420020Y-86741354D01*
X195436469Y-86716735D01*
X195448194Y-86691592D01*
X195463491Y-86676294D01*
X195477031Y-86656031D01*
X195497294Y-86642491D01*
X195512592Y-86627194D01*
X195537735Y-86615469D01*
X195562354Y-86599020D01*
X195580940Y-86595322D01*
X195596147Y-86588232D01*
X195656592Y-86580274D01*
X195663000Y-86579000D01*
X196113000Y-86579000D01*
X196119409Y-86580274D01*
G37*
G36*
X197669409Y-86580274D02*
G01*
X197729852Y-86588232D01*
X197745057Y-86595322D01*
X197763646Y-86599020D01*
X197788266Y-86615470D01*
X197813407Y-86627194D01*
X197828702Y-86642489D01*
X197848969Y-86656031D01*
X197862510Y-86676297D01*
X197877805Y-86691592D01*
X197889527Y-86716730D01*
X197905980Y-86741354D01*
X197909677Y-86759944D01*
X197916767Y-86775147D01*
X197924722Y-86835577D01*
X197926000Y-86842000D01*
X197926000Y-87342000D01*
X197924722Y-87348424D01*
X197916767Y-87408852D01*
X197909678Y-87424054D01*
X197905980Y-87442646D01*
X197889525Y-87467271D01*
X197877805Y-87492407D01*
X197862512Y-87507699D01*
X197848969Y-87527969D01*
X197828699Y-87541512D01*
X197813407Y-87556805D01*
X197788271Y-87568525D01*
X197763646Y-87584980D01*
X197745054Y-87588678D01*
X197729852Y-87595767D01*
X197669424Y-87603722D01*
X197663000Y-87605000D01*
X197213000Y-87605000D01*
X197206577Y-87603722D01*
X197146147Y-87595767D01*
X197130944Y-87588677D01*
X197112354Y-87584980D01*
X197087730Y-87568527D01*
X197062592Y-87556805D01*
X197047297Y-87541510D01*
X197027031Y-87527969D01*
X197013489Y-87507702D01*
X196998194Y-87492407D01*
X196986470Y-87467266D01*
X196970020Y-87442646D01*
X196966322Y-87424057D01*
X196959232Y-87408852D01*
X196951274Y-87348409D01*
X196950000Y-87342000D01*
X196950000Y-86842000D01*
X196951274Y-86835592D01*
X196959232Y-86775147D01*
X196966322Y-86759940D01*
X196970020Y-86741354D01*
X196986469Y-86716735D01*
X196998194Y-86691592D01*
X197013491Y-86676294D01*
X197027031Y-86656031D01*
X197047294Y-86642491D01*
X197062592Y-86627194D01*
X197087735Y-86615469D01*
X197112354Y-86599020D01*
X197130940Y-86595322D01*
X197146147Y-86588232D01*
X197206592Y-86580274D01*
X197213000Y-86579000D01*
X197663000Y-86579000D01*
X197669409Y-86580274D01*
G37*
G36*
X204073406Y-85530094D02*
G01*
X204080000Y-85546014D01*
X204083942Y-85551440D01*
X204084991Y-85558064D01*
X204086000Y-85560500D01*
X204086000Y-87293500D01*
X204073406Y-87323906D01*
X204057482Y-87330501D01*
X204052059Y-87334442D01*
X204045435Y-87335491D01*
X204043000Y-87336500D01*
X204039067Y-87336500D01*
X200925919Y-87336500D01*
X200918000Y-87336500D01*
X200887594Y-87323906D01*
X200880999Y-87307985D01*
X200877057Y-87302559D01*
X200876008Y-87295934D01*
X200875000Y-87293500D01*
X200875000Y-86949289D01*
X200845711Y-86920000D01*
X199443000Y-86920000D01*
X199412594Y-86907406D01*
X199405999Y-86891485D01*
X199402057Y-86886059D01*
X199401008Y-86879434D01*
X199400000Y-86877000D01*
X199400000Y-85977000D01*
X199412594Y-85946594D01*
X199428511Y-85940000D01*
X199433940Y-85936057D01*
X199440566Y-85935007D01*
X199443000Y-85934000D01*
X200845711Y-85934000D01*
X200875000Y-85904711D01*
X200875000Y-85568418D01*
X200875000Y-85560500D01*
X200887594Y-85530094D01*
X200903511Y-85523500D01*
X200908940Y-85519557D01*
X200915566Y-85518507D01*
X200918000Y-85517500D01*
X204043000Y-85517500D01*
X204073406Y-85530094D01*
G37*
G36*
X200524409Y-84440274D02*
G01*
X200584852Y-84448232D01*
X200600057Y-84455322D01*
X200618646Y-84459020D01*
X200643266Y-84475470D01*
X200668407Y-84487194D01*
X200683702Y-84502489D01*
X200703969Y-84516031D01*
X200717510Y-84536297D01*
X200732805Y-84551592D01*
X200744527Y-84576730D01*
X200760980Y-84601354D01*
X200764677Y-84619944D01*
X200771767Y-84635147D01*
X200779722Y-84695577D01*
X200781000Y-84702000D01*
X200781000Y-85152000D01*
X200779722Y-85158424D01*
X200771767Y-85218852D01*
X200764678Y-85234054D01*
X200760980Y-85252646D01*
X200744525Y-85277271D01*
X200732805Y-85302407D01*
X200717512Y-85317699D01*
X200703969Y-85337969D01*
X200683699Y-85351512D01*
X200668407Y-85366805D01*
X200643271Y-85378525D01*
X200618646Y-85394980D01*
X200600054Y-85398678D01*
X200584852Y-85405767D01*
X200524424Y-85413722D01*
X200518000Y-85415000D01*
X199668000Y-85415000D01*
X199661577Y-85413722D01*
X199601147Y-85405767D01*
X199585944Y-85398677D01*
X199567354Y-85394980D01*
X199542730Y-85378527D01*
X199517592Y-85366805D01*
X199502297Y-85351510D01*
X199482031Y-85337969D01*
X199468489Y-85317702D01*
X199453194Y-85302407D01*
X199441470Y-85277266D01*
X199425020Y-85252646D01*
X199421322Y-85234057D01*
X199414232Y-85218852D01*
X199406274Y-85158409D01*
X199405000Y-85152000D01*
X199405000Y-84702000D01*
X199406274Y-84695592D01*
X199414232Y-84635147D01*
X199421322Y-84619940D01*
X199425020Y-84601354D01*
X199441469Y-84576735D01*
X199453194Y-84551592D01*
X199468491Y-84536294D01*
X199482031Y-84516031D01*
X199502294Y-84502491D01*
X199517592Y-84487194D01*
X199542735Y-84475469D01*
X199567354Y-84459020D01*
X199585940Y-84455322D01*
X199601147Y-84448232D01*
X199661592Y-84440274D01*
X199668000Y-84439000D01*
X200518000Y-84439000D01*
X200524409Y-84440274D01*
G37*
G36*
X196119409Y-84070274D02*
G01*
X196179852Y-84078232D01*
X196195057Y-84085322D01*
X196213646Y-84089020D01*
X196238266Y-84105470D01*
X196263407Y-84117194D01*
X196278702Y-84132489D01*
X196298969Y-84146031D01*
X196312510Y-84166297D01*
X196327805Y-84181592D01*
X196339527Y-84206730D01*
X196355980Y-84231354D01*
X196359677Y-84249944D01*
X196366767Y-84265147D01*
X196374722Y-84325577D01*
X196376000Y-84332000D01*
X196376000Y-84832000D01*
X196374722Y-84838424D01*
X196366767Y-84898852D01*
X196359678Y-84914054D01*
X196355980Y-84932646D01*
X196339525Y-84957271D01*
X196327805Y-84982407D01*
X196312512Y-84997699D01*
X196298969Y-85017969D01*
X196278699Y-85031512D01*
X196263407Y-85046805D01*
X196238271Y-85058525D01*
X196213646Y-85074980D01*
X196195054Y-85078678D01*
X196179852Y-85085767D01*
X196119424Y-85093722D01*
X196113000Y-85095000D01*
X195663000Y-85095000D01*
X195656577Y-85093722D01*
X195596147Y-85085767D01*
X195580944Y-85078677D01*
X195562354Y-85074980D01*
X195537730Y-85058527D01*
X195512592Y-85046805D01*
X195497297Y-85031510D01*
X195477031Y-85017969D01*
X195463489Y-84997702D01*
X195448194Y-84982407D01*
X195436470Y-84957266D01*
X195420020Y-84932646D01*
X195416322Y-84914057D01*
X195409232Y-84898852D01*
X195401274Y-84838409D01*
X195400000Y-84832000D01*
X195400000Y-84332000D01*
X195401274Y-84325592D01*
X195409232Y-84265147D01*
X195416322Y-84249940D01*
X195420020Y-84231354D01*
X195436469Y-84206735D01*
X195448194Y-84181592D01*
X195463491Y-84166294D01*
X195477031Y-84146031D01*
X195497294Y-84132491D01*
X195512592Y-84117194D01*
X195537735Y-84105469D01*
X195562354Y-84089020D01*
X195580940Y-84085322D01*
X195596147Y-84078232D01*
X195656592Y-84070274D01*
X195663000Y-84069000D01*
X196113000Y-84069000D01*
X196119409Y-84070274D01*
G37*
G36*
X197669409Y-84070274D02*
G01*
X197729852Y-84078232D01*
X197745057Y-84085322D01*
X197763646Y-84089020D01*
X197788266Y-84105470D01*
X197813407Y-84117194D01*
X197828702Y-84132489D01*
X197848969Y-84146031D01*
X197862510Y-84166297D01*
X197877805Y-84181592D01*
X197889527Y-84206730D01*
X197905980Y-84231354D01*
X197909677Y-84249944D01*
X197916767Y-84265147D01*
X197924722Y-84325577D01*
X197926000Y-84332000D01*
X197926000Y-84832000D01*
X197924722Y-84838424D01*
X197916767Y-84898852D01*
X197909678Y-84914054D01*
X197905980Y-84932646D01*
X197889525Y-84957271D01*
X197877805Y-84982407D01*
X197862512Y-84997699D01*
X197848969Y-85017969D01*
X197828699Y-85031512D01*
X197813407Y-85046805D01*
X197788271Y-85058525D01*
X197763646Y-85074980D01*
X197745054Y-85078678D01*
X197729852Y-85085767D01*
X197669424Y-85093722D01*
X197663000Y-85095000D01*
X197213000Y-85095000D01*
X197206577Y-85093722D01*
X197146147Y-85085767D01*
X197130944Y-85078677D01*
X197112354Y-85074980D01*
X197087730Y-85058527D01*
X197062592Y-85046805D01*
X197047297Y-85031510D01*
X197027031Y-85017969D01*
X197013489Y-84997702D01*
X196998194Y-84982407D01*
X196986470Y-84957266D01*
X196970020Y-84932646D01*
X196966322Y-84914057D01*
X196959232Y-84898852D01*
X196951274Y-84838409D01*
X196950000Y-84832000D01*
X196950000Y-84332000D01*
X196951274Y-84325592D01*
X196959232Y-84265147D01*
X196966322Y-84249940D01*
X196970020Y-84231354D01*
X196986469Y-84206735D01*
X196998194Y-84181592D01*
X197013491Y-84166294D01*
X197027031Y-84146031D01*
X197047294Y-84132491D01*
X197062592Y-84117194D01*
X197087735Y-84105469D01*
X197112354Y-84089020D01*
X197130940Y-84085322D01*
X197146147Y-84078232D01*
X197206592Y-84070274D01*
X197213000Y-84069000D01*
X197663000Y-84069000D01*
X197669409Y-84070274D01*
G37*
G36*
X214082047Y-84069805D02*
G01*
X214130661Y-84075445D01*
X214147271Y-84082779D01*
X214169079Y-84087117D01*
X214192425Y-84102716D01*
X214212012Y-84111365D01*
X214225390Y-84124743D01*
X214246291Y-84138709D01*
X214260256Y-84159609D01*
X214273634Y-84172987D01*
X214282281Y-84192572D01*
X214297883Y-84215921D01*
X214302221Y-84237731D01*
X214309554Y-84254338D01*
X214315192Y-84302942D01*
X214316000Y-84307000D01*
X214316000Y-84857000D01*
X214315192Y-84861059D01*
X214309554Y-84909661D01*
X214302221Y-84926266D01*
X214297883Y-84948079D01*
X214282280Y-84971429D01*
X214273634Y-84991012D01*
X214260258Y-85004387D01*
X214246291Y-85025291D01*
X214225387Y-85039258D01*
X214212012Y-85052634D01*
X214192429Y-85061280D01*
X214169079Y-85076883D01*
X214147266Y-85081221D01*
X214130661Y-85088554D01*
X214082059Y-85094192D01*
X214078000Y-85095000D01*
X213678000Y-85095000D01*
X213673942Y-85094192D01*
X213625338Y-85088554D01*
X213608731Y-85081221D01*
X213586921Y-85076883D01*
X213563572Y-85061281D01*
X213543987Y-85052634D01*
X213530609Y-85039256D01*
X213509709Y-85025291D01*
X213495743Y-85004390D01*
X213482365Y-84991012D01*
X213473716Y-84971425D01*
X213458117Y-84948079D01*
X213453779Y-84926271D01*
X213446445Y-84909661D01*
X213440805Y-84861047D01*
X213440000Y-84857000D01*
X213440000Y-84307000D01*
X213440804Y-84302954D01*
X213446445Y-84254338D01*
X213453779Y-84237727D01*
X213458117Y-84215921D01*
X213473715Y-84192576D01*
X213482365Y-84172987D01*
X213495745Y-84159606D01*
X213509709Y-84138709D01*
X213530606Y-84124745D01*
X213543987Y-84111365D01*
X213563576Y-84102715D01*
X213586921Y-84087117D01*
X213608727Y-84082779D01*
X213625338Y-84075445D01*
X213673954Y-84069804D01*
X213678000Y-84069000D01*
X214078000Y-84069000D01*
X214082047Y-84069805D01*
G37*
G36*
X215732047Y-84069805D02*
G01*
X215780661Y-84075445D01*
X215797271Y-84082779D01*
X215819079Y-84087117D01*
X215842425Y-84102716D01*
X215862012Y-84111365D01*
X215875390Y-84124743D01*
X215896291Y-84138709D01*
X215910256Y-84159609D01*
X215923634Y-84172987D01*
X215932281Y-84192572D01*
X215947883Y-84215921D01*
X215952221Y-84237731D01*
X215959554Y-84254338D01*
X215965192Y-84302942D01*
X215966000Y-84307000D01*
X215966000Y-84857000D01*
X215965192Y-84861059D01*
X215959554Y-84909661D01*
X215952221Y-84926266D01*
X215947883Y-84948079D01*
X215932280Y-84971429D01*
X215923634Y-84991012D01*
X215910258Y-85004387D01*
X215896291Y-85025291D01*
X215875387Y-85039258D01*
X215862012Y-85052634D01*
X215842429Y-85061280D01*
X215819079Y-85076883D01*
X215797266Y-85081221D01*
X215780661Y-85088554D01*
X215732059Y-85094192D01*
X215728000Y-85095000D01*
X215328000Y-85095000D01*
X215323942Y-85094192D01*
X215275338Y-85088554D01*
X215258731Y-85081221D01*
X215236921Y-85076883D01*
X215213572Y-85061281D01*
X215193987Y-85052634D01*
X215180609Y-85039256D01*
X215159709Y-85025291D01*
X215145743Y-85004390D01*
X215132365Y-84991012D01*
X215123716Y-84971425D01*
X215108117Y-84948079D01*
X215103779Y-84926271D01*
X215096445Y-84909661D01*
X215090805Y-84861047D01*
X215090000Y-84857000D01*
X215090000Y-84307000D01*
X215090804Y-84302954D01*
X215096445Y-84254338D01*
X215103779Y-84237727D01*
X215108117Y-84215921D01*
X215123715Y-84192576D01*
X215132365Y-84172987D01*
X215145745Y-84159606D01*
X215159709Y-84138709D01*
X215180606Y-84124745D01*
X215193987Y-84111365D01*
X215213576Y-84102715D01*
X215236921Y-84087117D01*
X215258727Y-84082779D01*
X215275338Y-84075445D01*
X215323954Y-84069804D01*
X215328000Y-84069000D01*
X215728000Y-84069000D01*
X215732047Y-84069805D01*
G37*
G36*
X220169409Y-84070274D02*
G01*
X220229852Y-84078232D01*
X220245057Y-84085322D01*
X220263646Y-84089020D01*
X220288266Y-84105470D01*
X220313407Y-84117194D01*
X220328702Y-84132489D01*
X220348969Y-84146031D01*
X220362510Y-84166297D01*
X220377805Y-84181592D01*
X220389527Y-84206730D01*
X220405980Y-84231354D01*
X220409677Y-84249944D01*
X220416767Y-84265147D01*
X220424722Y-84325577D01*
X220426000Y-84332000D01*
X220426000Y-84832000D01*
X220424722Y-84838424D01*
X220416767Y-84898852D01*
X220409678Y-84914054D01*
X220405980Y-84932646D01*
X220389525Y-84957271D01*
X220377805Y-84982407D01*
X220362512Y-84997699D01*
X220348969Y-85017969D01*
X220328699Y-85031512D01*
X220313407Y-85046805D01*
X220288271Y-85058525D01*
X220263646Y-85074980D01*
X220245054Y-85078678D01*
X220229852Y-85085767D01*
X220169424Y-85093722D01*
X220163000Y-85095000D01*
X219713000Y-85095000D01*
X219706577Y-85093722D01*
X219646147Y-85085767D01*
X219630944Y-85078677D01*
X219612354Y-85074980D01*
X219587730Y-85058527D01*
X219562592Y-85046805D01*
X219547297Y-85031510D01*
X219527031Y-85017969D01*
X219513489Y-84997702D01*
X219498194Y-84982407D01*
X219486470Y-84957266D01*
X219470020Y-84932646D01*
X219466322Y-84914057D01*
X219459232Y-84898852D01*
X219451274Y-84838409D01*
X219450000Y-84832000D01*
X219450000Y-84332000D01*
X219451274Y-84325592D01*
X219459232Y-84265147D01*
X219466322Y-84249940D01*
X219470020Y-84231354D01*
X219486469Y-84206735D01*
X219498194Y-84181592D01*
X219513491Y-84166294D01*
X219527031Y-84146031D01*
X219547294Y-84132491D01*
X219562592Y-84117194D01*
X219587735Y-84105469D01*
X219612354Y-84089020D01*
X219630940Y-84085322D01*
X219646147Y-84078232D01*
X219706592Y-84070274D01*
X219713000Y-84069000D01*
X220163000Y-84069000D01*
X220169409Y-84070274D01*
G37*
G36*
X221719409Y-84070274D02*
G01*
X221779852Y-84078232D01*
X221795057Y-84085322D01*
X221813646Y-84089020D01*
X221838266Y-84105470D01*
X221863407Y-84117194D01*
X221878702Y-84132489D01*
X221898969Y-84146031D01*
X221912510Y-84166297D01*
X221927805Y-84181592D01*
X221939527Y-84206730D01*
X221955980Y-84231354D01*
X221959677Y-84249944D01*
X221966767Y-84265147D01*
X221974722Y-84325577D01*
X221976000Y-84332000D01*
X221976000Y-84832000D01*
X221974722Y-84838424D01*
X221966767Y-84898852D01*
X221959678Y-84914054D01*
X221955980Y-84932646D01*
X221939525Y-84957271D01*
X221927805Y-84982407D01*
X221912512Y-84997699D01*
X221898969Y-85017969D01*
X221878699Y-85031512D01*
X221863407Y-85046805D01*
X221838271Y-85058525D01*
X221813646Y-85074980D01*
X221795054Y-85078678D01*
X221779852Y-85085767D01*
X221719424Y-85093722D01*
X221713000Y-85095000D01*
X221263000Y-85095000D01*
X221256577Y-85093722D01*
X221196147Y-85085767D01*
X221180944Y-85078677D01*
X221162354Y-85074980D01*
X221137730Y-85058527D01*
X221112592Y-85046805D01*
X221097297Y-85031510D01*
X221077031Y-85017969D01*
X221063489Y-84997702D01*
X221048194Y-84982407D01*
X221036470Y-84957266D01*
X221020020Y-84932646D01*
X221016322Y-84914057D01*
X221009232Y-84898852D01*
X221001274Y-84838409D01*
X221000000Y-84832000D01*
X221000000Y-84332000D01*
X221001274Y-84325592D01*
X221009232Y-84265147D01*
X221016322Y-84249940D01*
X221020020Y-84231354D01*
X221036469Y-84206735D01*
X221048194Y-84181592D01*
X221063491Y-84166294D01*
X221077031Y-84146031D01*
X221097294Y-84132491D01*
X221112592Y-84117194D01*
X221137735Y-84105469D01*
X221162354Y-84089020D01*
X221180940Y-84085322D01*
X221196147Y-84078232D01*
X221256592Y-84070274D01*
X221263000Y-84069000D01*
X221713000Y-84069000D01*
X221719409Y-84070274D01*
G37*
G36*
X214082047Y-81559805D02*
G01*
X214130661Y-81565445D01*
X214147271Y-81572779D01*
X214169079Y-81577117D01*
X214192425Y-81592716D01*
X214212012Y-81601365D01*
X214225390Y-81614743D01*
X214246291Y-81628709D01*
X214260256Y-81649609D01*
X214273634Y-81662987D01*
X214282281Y-81682572D01*
X214297883Y-81705921D01*
X214302221Y-81727731D01*
X214309554Y-81744338D01*
X214315192Y-81792942D01*
X214316000Y-81797000D01*
X214316000Y-82347000D01*
X214315192Y-82351059D01*
X214309554Y-82399661D01*
X214302221Y-82416266D01*
X214297883Y-82438079D01*
X214282280Y-82461429D01*
X214273634Y-82481012D01*
X214260258Y-82494387D01*
X214246291Y-82515291D01*
X214225387Y-82529258D01*
X214212012Y-82542634D01*
X214192429Y-82551280D01*
X214169079Y-82566883D01*
X214147266Y-82571221D01*
X214130661Y-82578554D01*
X214082059Y-82584192D01*
X214078000Y-82585000D01*
X213678000Y-82585000D01*
X213673942Y-82584192D01*
X213625338Y-82578554D01*
X213608731Y-82571221D01*
X213586921Y-82566883D01*
X213563572Y-82551281D01*
X213543987Y-82542634D01*
X213530609Y-82529256D01*
X213509709Y-82515291D01*
X213495743Y-82494390D01*
X213482365Y-82481012D01*
X213473716Y-82461425D01*
X213458117Y-82438079D01*
X213453779Y-82416271D01*
X213446445Y-82399661D01*
X213440805Y-82351047D01*
X213440000Y-82347000D01*
X213440000Y-81797000D01*
X213440804Y-81792954D01*
X213446445Y-81744338D01*
X213453779Y-81727727D01*
X213458117Y-81705921D01*
X213473715Y-81682576D01*
X213482365Y-81662987D01*
X213495745Y-81649606D01*
X213509709Y-81628709D01*
X213530606Y-81614745D01*
X213543987Y-81601365D01*
X213563576Y-81592715D01*
X213586921Y-81577117D01*
X213608727Y-81572779D01*
X213625338Y-81565445D01*
X213673954Y-81559804D01*
X213678000Y-81559000D01*
X214078000Y-81559000D01*
X214082047Y-81559805D01*
G37*
G36*
X215732047Y-81559805D02*
G01*
X215780661Y-81565445D01*
X215797271Y-81572779D01*
X215819079Y-81577117D01*
X215842425Y-81592716D01*
X215862012Y-81601365D01*
X215875390Y-81614743D01*
X215896291Y-81628709D01*
X215910256Y-81649609D01*
X215923634Y-81662987D01*
X215932281Y-81682572D01*
X215947883Y-81705921D01*
X215952221Y-81727731D01*
X215959554Y-81744338D01*
X215965192Y-81792942D01*
X215966000Y-81797000D01*
X215966000Y-82347000D01*
X215965192Y-82351059D01*
X215959554Y-82399661D01*
X215952221Y-82416266D01*
X215947883Y-82438079D01*
X215932280Y-82461429D01*
X215923634Y-82481012D01*
X215910258Y-82494387D01*
X215896291Y-82515291D01*
X215875387Y-82529258D01*
X215862012Y-82542634D01*
X215842429Y-82551280D01*
X215819079Y-82566883D01*
X215797266Y-82571221D01*
X215780661Y-82578554D01*
X215732059Y-82584192D01*
X215728000Y-82585000D01*
X215328000Y-82585000D01*
X215323942Y-82584192D01*
X215275338Y-82578554D01*
X215258731Y-82571221D01*
X215236921Y-82566883D01*
X215213572Y-82551281D01*
X215193987Y-82542634D01*
X215180609Y-82529256D01*
X215159709Y-82515291D01*
X215145743Y-82494390D01*
X215132365Y-82481012D01*
X215123716Y-82461425D01*
X215108117Y-82438079D01*
X215103779Y-82416271D01*
X215096445Y-82399661D01*
X215090805Y-82351047D01*
X215090000Y-82347000D01*
X215090000Y-81797000D01*
X215090804Y-81792954D01*
X215096445Y-81744338D01*
X215103779Y-81727727D01*
X215108117Y-81705921D01*
X215123715Y-81682576D01*
X215132365Y-81662987D01*
X215145745Y-81649606D01*
X215159709Y-81628709D01*
X215180606Y-81614745D01*
X215193987Y-81601365D01*
X215213576Y-81592715D01*
X215236921Y-81577117D01*
X215258727Y-81572779D01*
X215275338Y-81565445D01*
X215323954Y-81559804D01*
X215328000Y-81559000D01*
X215728000Y-81559000D01*
X215732047Y-81559805D01*
G37*
G36*
X220169409Y-81560274D02*
G01*
X220229852Y-81568232D01*
X220245057Y-81575322D01*
X220263646Y-81579020D01*
X220288266Y-81595470D01*
X220313407Y-81607194D01*
X220328702Y-81622489D01*
X220348969Y-81636031D01*
X220362510Y-81656297D01*
X220377805Y-81671592D01*
X220389527Y-81696730D01*
X220405980Y-81721354D01*
X220409677Y-81739944D01*
X220416767Y-81755147D01*
X220424722Y-81815577D01*
X220426000Y-81822000D01*
X220426000Y-82322000D01*
X220424722Y-82328424D01*
X220416767Y-82388852D01*
X220409678Y-82404054D01*
X220405980Y-82422646D01*
X220389525Y-82447271D01*
X220377805Y-82472407D01*
X220362512Y-82487699D01*
X220348969Y-82507969D01*
X220328699Y-82521512D01*
X220313407Y-82536805D01*
X220288271Y-82548525D01*
X220263646Y-82564980D01*
X220245054Y-82568678D01*
X220229852Y-82575767D01*
X220169424Y-82583722D01*
X220163000Y-82585000D01*
X219713000Y-82585000D01*
X219706577Y-82583722D01*
X219646147Y-82575767D01*
X219630944Y-82568677D01*
X219612354Y-82564980D01*
X219587730Y-82548527D01*
X219562592Y-82536805D01*
X219547297Y-82521510D01*
X219527031Y-82507969D01*
X219513489Y-82487702D01*
X219498194Y-82472407D01*
X219486470Y-82447266D01*
X219470020Y-82422646D01*
X219466322Y-82404057D01*
X219459232Y-82388852D01*
X219451274Y-82328409D01*
X219450000Y-82322000D01*
X219450000Y-81822000D01*
X219451274Y-81815592D01*
X219459232Y-81755147D01*
X219466322Y-81739940D01*
X219470020Y-81721354D01*
X219486469Y-81696735D01*
X219498194Y-81671592D01*
X219513491Y-81656294D01*
X219527031Y-81636031D01*
X219547294Y-81622491D01*
X219562592Y-81607194D01*
X219587735Y-81595469D01*
X219612354Y-81579020D01*
X219630940Y-81575322D01*
X219646147Y-81568232D01*
X219706592Y-81560274D01*
X219713000Y-81559000D01*
X220163000Y-81559000D01*
X220169409Y-81560274D01*
G37*
G36*
X221719409Y-81560274D02*
G01*
X221779852Y-81568232D01*
X221795057Y-81575322D01*
X221813646Y-81579020D01*
X221838266Y-81595470D01*
X221863407Y-81607194D01*
X221878702Y-81622489D01*
X221898969Y-81636031D01*
X221912510Y-81656297D01*
X221927805Y-81671592D01*
X221939527Y-81696730D01*
X221955980Y-81721354D01*
X221959677Y-81739944D01*
X221966767Y-81755147D01*
X221974722Y-81815577D01*
X221976000Y-81822000D01*
X221976000Y-82322000D01*
X221974722Y-82328424D01*
X221966767Y-82388852D01*
X221959678Y-82404054D01*
X221955980Y-82422646D01*
X221939525Y-82447271D01*
X221927805Y-82472407D01*
X221912512Y-82487699D01*
X221898969Y-82507969D01*
X221878699Y-82521512D01*
X221863407Y-82536805D01*
X221838271Y-82548525D01*
X221813646Y-82564980D01*
X221795054Y-82568678D01*
X221779852Y-82575767D01*
X221719424Y-82583722D01*
X221713000Y-82585000D01*
X221263000Y-82585000D01*
X221256577Y-82583722D01*
X221196147Y-82575767D01*
X221180944Y-82568677D01*
X221162354Y-82564980D01*
X221137730Y-82548527D01*
X221112592Y-82536805D01*
X221097297Y-82521510D01*
X221077031Y-82507969D01*
X221063489Y-82487702D01*
X221048194Y-82472407D01*
X221036470Y-82447266D01*
X221020020Y-82422646D01*
X221016322Y-82404057D01*
X221009232Y-82388852D01*
X221001274Y-82328409D01*
X221000000Y-82322000D01*
X221000000Y-81822000D01*
X221001274Y-81815592D01*
X221009232Y-81755147D01*
X221016322Y-81739940D01*
X221020020Y-81721354D01*
X221036469Y-81696735D01*
X221048194Y-81671592D01*
X221063491Y-81656294D01*
X221077031Y-81636031D01*
X221097294Y-81622491D01*
X221112592Y-81607194D01*
X221137735Y-81595469D01*
X221162354Y-81579020D01*
X221180940Y-81575322D01*
X221196147Y-81568232D01*
X221256592Y-81560274D01*
X221263000Y-81559000D01*
X221713000Y-81559000D01*
X221719409Y-81560274D01*
G37*
G36*
X196119409Y-79560274D02*
G01*
X196179852Y-79568232D01*
X196195057Y-79575322D01*
X196213646Y-79579020D01*
X196238266Y-79595470D01*
X196263407Y-79607194D01*
X196278702Y-79622489D01*
X196298969Y-79636031D01*
X196312510Y-79656297D01*
X196327805Y-79671592D01*
X196339527Y-79696730D01*
X196355980Y-79721354D01*
X196359677Y-79739944D01*
X196366767Y-79755147D01*
X196374722Y-79815577D01*
X196376000Y-79822000D01*
X196376000Y-80322000D01*
X196374722Y-80328424D01*
X196366767Y-80388852D01*
X196359678Y-80404054D01*
X196355980Y-80422646D01*
X196339525Y-80447271D01*
X196327805Y-80472407D01*
X196312512Y-80487699D01*
X196298969Y-80507969D01*
X196278699Y-80521512D01*
X196263407Y-80536805D01*
X196238271Y-80548525D01*
X196213646Y-80564980D01*
X196195054Y-80568678D01*
X196179852Y-80575767D01*
X196119424Y-80583722D01*
X196113000Y-80585000D01*
X195663000Y-80585000D01*
X195656577Y-80583722D01*
X195596147Y-80575767D01*
X195580944Y-80568677D01*
X195562354Y-80564980D01*
X195537730Y-80548527D01*
X195512592Y-80536805D01*
X195497297Y-80521510D01*
X195477031Y-80507969D01*
X195463489Y-80487702D01*
X195448194Y-80472407D01*
X195436470Y-80447266D01*
X195420020Y-80422646D01*
X195416322Y-80404057D01*
X195409232Y-80388852D01*
X195401274Y-80328409D01*
X195400000Y-80322000D01*
X195400000Y-79822000D01*
X195401274Y-79815592D01*
X195409232Y-79755147D01*
X195416322Y-79739940D01*
X195420020Y-79721354D01*
X195436469Y-79696735D01*
X195448194Y-79671592D01*
X195463491Y-79656294D01*
X195477031Y-79636031D01*
X195497294Y-79622491D01*
X195512592Y-79607194D01*
X195537735Y-79595469D01*
X195562354Y-79579020D01*
X195580940Y-79575322D01*
X195596147Y-79568232D01*
X195656592Y-79560274D01*
X195663000Y-79559000D01*
X196113000Y-79559000D01*
X196119409Y-79560274D01*
G37*
G36*
X197669409Y-79560274D02*
G01*
X197729852Y-79568232D01*
X197745057Y-79575322D01*
X197763646Y-79579020D01*
X197788266Y-79595470D01*
X197813407Y-79607194D01*
X197828702Y-79622489D01*
X197848969Y-79636031D01*
X197862510Y-79656297D01*
X197877805Y-79671592D01*
X197889527Y-79696730D01*
X197905980Y-79721354D01*
X197909677Y-79739944D01*
X197916767Y-79755147D01*
X197924722Y-79815577D01*
X197926000Y-79822000D01*
X197926000Y-80322000D01*
X197924722Y-80328424D01*
X197916767Y-80388852D01*
X197909678Y-80404054D01*
X197905980Y-80422646D01*
X197889525Y-80447271D01*
X197877805Y-80472407D01*
X197862512Y-80487699D01*
X197848969Y-80507969D01*
X197828699Y-80521512D01*
X197813407Y-80536805D01*
X197788271Y-80548525D01*
X197763646Y-80564980D01*
X197745054Y-80568678D01*
X197729852Y-80575767D01*
X197669424Y-80583722D01*
X197663000Y-80585000D01*
X197213000Y-80585000D01*
X197206577Y-80583722D01*
X197146147Y-80575767D01*
X197130944Y-80568677D01*
X197112354Y-80564980D01*
X197087730Y-80548527D01*
X197062592Y-80536805D01*
X197047297Y-80521510D01*
X197027031Y-80507969D01*
X197013489Y-80487702D01*
X196998194Y-80472407D01*
X196986470Y-80447266D01*
X196970020Y-80422646D01*
X196966322Y-80404057D01*
X196959232Y-80388852D01*
X196951274Y-80328409D01*
X196950000Y-80322000D01*
X196950000Y-79822000D01*
X196951274Y-79815592D01*
X196959232Y-79755147D01*
X196966322Y-79739940D01*
X196970020Y-79721354D01*
X196986469Y-79696735D01*
X196998194Y-79671592D01*
X197013491Y-79656294D01*
X197027031Y-79636031D01*
X197047294Y-79622491D01*
X197062592Y-79607194D01*
X197087735Y-79595469D01*
X197112354Y-79579020D01*
X197130940Y-79575322D01*
X197146147Y-79568232D01*
X197206592Y-79560274D01*
X197213000Y-79559000D01*
X197663000Y-79559000D01*
X197669409Y-79560274D01*
G37*
G36*
X200129409Y-79560274D02*
G01*
X200189852Y-79568232D01*
X200205057Y-79575322D01*
X200223646Y-79579020D01*
X200248266Y-79595470D01*
X200273407Y-79607194D01*
X200288702Y-79622489D01*
X200308969Y-79636031D01*
X200322510Y-79656297D01*
X200337805Y-79671592D01*
X200349527Y-79696730D01*
X200365980Y-79721354D01*
X200369677Y-79739944D01*
X200376767Y-79755147D01*
X200384722Y-79815577D01*
X200386000Y-79822000D01*
X200386000Y-80322000D01*
X200384722Y-80328424D01*
X200376767Y-80388852D01*
X200369678Y-80404054D01*
X200365980Y-80422646D01*
X200349525Y-80447271D01*
X200337805Y-80472407D01*
X200322512Y-80487699D01*
X200308969Y-80507969D01*
X200288699Y-80521512D01*
X200273407Y-80536805D01*
X200248271Y-80548525D01*
X200223646Y-80564980D01*
X200205054Y-80568678D01*
X200189852Y-80575767D01*
X200129424Y-80583722D01*
X200123000Y-80585000D01*
X199673000Y-80585000D01*
X199666577Y-80583722D01*
X199606147Y-80575767D01*
X199590944Y-80568677D01*
X199572354Y-80564980D01*
X199547730Y-80548527D01*
X199522592Y-80536805D01*
X199507297Y-80521510D01*
X199487031Y-80507969D01*
X199473489Y-80487702D01*
X199458194Y-80472407D01*
X199446470Y-80447266D01*
X199430020Y-80422646D01*
X199426322Y-80404057D01*
X199419232Y-80388852D01*
X199411274Y-80328409D01*
X199410000Y-80322000D01*
X199410000Y-79822000D01*
X199411274Y-79815592D01*
X199419232Y-79755147D01*
X199426322Y-79739940D01*
X199430020Y-79721354D01*
X199446469Y-79696735D01*
X199458194Y-79671592D01*
X199473491Y-79656294D01*
X199487031Y-79636031D01*
X199507294Y-79622491D01*
X199522592Y-79607194D01*
X199547735Y-79595469D01*
X199572354Y-79579020D01*
X199590940Y-79575322D01*
X199606147Y-79568232D01*
X199666592Y-79560274D01*
X199673000Y-79559000D01*
X200123000Y-79559000D01*
X200129409Y-79560274D01*
G37*
G36*
X201679409Y-79560274D02*
G01*
X201739852Y-79568232D01*
X201755057Y-79575322D01*
X201773646Y-79579020D01*
X201798266Y-79595470D01*
X201823407Y-79607194D01*
X201838702Y-79622489D01*
X201858969Y-79636031D01*
X201872510Y-79656297D01*
X201887805Y-79671592D01*
X201899527Y-79696730D01*
X201915980Y-79721354D01*
X201919677Y-79739944D01*
X201926767Y-79755147D01*
X201934722Y-79815577D01*
X201936000Y-79822000D01*
X201936000Y-80322000D01*
X201934722Y-80328424D01*
X201926767Y-80388852D01*
X201919678Y-80404054D01*
X201915980Y-80422646D01*
X201899525Y-80447271D01*
X201887805Y-80472407D01*
X201872512Y-80487699D01*
X201858969Y-80507969D01*
X201838699Y-80521512D01*
X201823407Y-80536805D01*
X201798271Y-80548525D01*
X201773646Y-80564980D01*
X201755054Y-80568678D01*
X201739852Y-80575767D01*
X201679424Y-80583722D01*
X201673000Y-80585000D01*
X201223000Y-80585000D01*
X201216577Y-80583722D01*
X201156147Y-80575767D01*
X201140944Y-80568677D01*
X201122354Y-80564980D01*
X201097730Y-80548527D01*
X201072592Y-80536805D01*
X201057297Y-80521510D01*
X201037031Y-80507969D01*
X201023489Y-80487702D01*
X201008194Y-80472407D01*
X200996470Y-80447266D01*
X200980020Y-80422646D01*
X200976322Y-80404057D01*
X200969232Y-80388852D01*
X200961274Y-80328409D01*
X200960000Y-80322000D01*
X200960000Y-79822000D01*
X200961274Y-79815592D01*
X200969232Y-79755147D01*
X200976322Y-79739940D01*
X200980020Y-79721354D01*
X200996469Y-79696735D01*
X201008194Y-79671592D01*
X201023491Y-79656294D01*
X201037031Y-79636031D01*
X201057294Y-79622491D01*
X201072592Y-79607194D01*
X201097735Y-79595469D01*
X201122354Y-79579020D01*
X201140940Y-79575322D01*
X201156147Y-79568232D01*
X201216592Y-79560274D01*
X201223000Y-79559000D01*
X201673000Y-79559000D01*
X201679409Y-79560274D01*
G37*
G36*
X204062047Y-79559805D02*
G01*
X204110661Y-79565445D01*
X204127271Y-79572779D01*
X204149079Y-79577117D01*
X204172425Y-79592716D01*
X204192012Y-79601365D01*
X204205390Y-79614743D01*
X204226291Y-79628709D01*
X204240256Y-79649609D01*
X204253634Y-79662987D01*
X204262281Y-79682572D01*
X204277883Y-79705921D01*
X204282221Y-79727731D01*
X204289554Y-79744338D01*
X204295192Y-79792942D01*
X204296000Y-79797000D01*
X204296000Y-80347000D01*
X204295192Y-80351059D01*
X204289554Y-80399661D01*
X204282221Y-80416266D01*
X204277883Y-80438079D01*
X204262280Y-80461429D01*
X204253634Y-80481012D01*
X204240258Y-80494387D01*
X204226291Y-80515291D01*
X204205387Y-80529258D01*
X204192012Y-80542634D01*
X204172429Y-80551280D01*
X204149079Y-80566883D01*
X204127266Y-80571221D01*
X204110661Y-80578554D01*
X204062059Y-80584192D01*
X204058000Y-80585000D01*
X203658000Y-80585000D01*
X203653942Y-80584192D01*
X203605338Y-80578554D01*
X203588731Y-80571221D01*
X203566921Y-80566883D01*
X203543572Y-80551281D01*
X203523987Y-80542634D01*
X203510609Y-80529256D01*
X203489709Y-80515291D01*
X203475743Y-80494390D01*
X203462365Y-80481012D01*
X203453716Y-80461425D01*
X203438117Y-80438079D01*
X203433779Y-80416271D01*
X203426445Y-80399661D01*
X203420805Y-80351047D01*
X203420000Y-80347000D01*
X203420000Y-79797000D01*
X203420804Y-79792954D01*
X203426445Y-79744338D01*
X203433779Y-79727727D01*
X203438117Y-79705921D01*
X203453715Y-79682576D01*
X203462365Y-79662987D01*
X203475745Y-79649606D01*
X203489709Y-79628709D01*
X203510606Y-79614745D01*
X203523987Y-79601365D01*
X203543576Y-79592715D01*
X203566921Y-79577117D01*
X203588727Y-79572779D01*
X203605338Y-79565445D01*
X203653954Y-79559804D01*
X203658000Y-79559000D01*
X204058000Y-79559000D01*
X204062047Y-79559805D01*
G37*
G36*
X205712047Y-79559805D02*
G01*
X205760661Y-79565445D01*
X205777271Y-79572779D01*
X205799079Y-79577117D01*
X205822425Y-79592716D01*
X205842012Y-79601365D01*
X205855390Y-79614743D01*
X205876291Y-79628709D01*
X205890256Y-79649609D01*
X205903634Y-79662987D01*
X205912281Y-79682572D01*
X205927883Y-79705921D01*
X205932221Y-79727731D01*
X205939554Y-79744338D01*
X205945192Y-79792942D01*
X205946000Y-79797000D01*
X205946000Y-80347000D01*
X205945192Y-80351059D01*
X205939554Y-80399661D01*
X205932221Y-80416266D01*
X205927883Y-80438079D01*
X205912280Y-80461429D01*
X205903634Y-80481012D01*
X205890258Y-80494387D01*
X205876291Y-80515291D01*
X205855387Y-80529258D01*
X205842012Y-80542634D01*
X205822429Y-80551280D01*
X205799079Y-80566883D01*
X205777266Y-80571221D01*
X205760661Y-80578554D01*
X205712059Y-80584192D01*
X205708000Y-80585000D01*
X205308000Y-80585000D01*
X205303942Y-80584192D01*
X205255338Y-80578554D01*
X205238731Y-80571221D01*
X205216921Y-80566883D01*
X205193572Y-80551281D01*
X205173987Y-80542634D01*
X205160609Y-80529256D01*
X205139709Y-80515291D01*
X205125743Y-80494390D01*
X205112365Y-80481012D01*
X205103716Y-80461425D01*
X205088117Y-80438079D01*
X205083779Y-80416271D01*
X205076445Y-80399661D01*
X205070805Y-80351047D01*
X205070000Y-80347000D01*
X205070000Y-79797000D01*
X205070804Y-79792954D01*
X205076445Y-79744338D01*
X205083779Y-79727727D01*
X205088117Y-79705921D01*
X205103715Y-79682576D01*
X205112365Y-79662987D01*
X205125745Y-79649606D01*
X205139709Y-79628709D01*
X205160606Y-79614745D01*
X205173987Y-79601365D01*
X205193576Y-79592715D01*
X205216921Y-79577117D01*
X205238727Y-79572779D01*
X205255338Y-79565445D01*
X205303954Y-79559804D01*
X205308000Y-79559000D01*
X205708000Y-79559000D01*
X205712047Y-79559805D01*
G37*
G36*
X196119409Y-77050274D02*
G01*
X196179852Y-77058232D01*
X196195057Y-77065322D01*
X196213646Y-77069020D01*
X196238266Y-77085470D01*
X196263407Y-77097194D01*
X196278702Y-77112489D01*
X196298969Y-77126031D01*
X196312510Y-77146297D01*
X196327805Y-77161592D01*
X196339527Y-77186730D01*
X196355980Y-77211354D01*
X196359677Y-77229944D01*
X196366767Y-77245147D01*
X196374722Y-77305577D01*
X196376000Y-77312000D01*
X196376000Y-77812000D01*
X196374722Y-77818424D01*
X196366767Y-77878852D01*
X196359678Y-77894054D01*
X196355980Y-77912646D01*
X196339525Y-77937271D01*
X196327805Y-77962407D01*
X196312512Y-77977699D01*
X196298969Y-77997969D01*
X196278699Y-78011512D01*
X196263407Y-78026805D01*
X196238271Y-78038525D01*
X196213646Y-78054980D01*
X196195054Y-78058678D01*
X196179852Y-78065767D01*
X196119424Y-78073722D01*
X196113000Y-78075000D01*
X195663000Y-78075000D01*
X195656577Y-78073722D01*
X195596147Y-78065767D01*
X195580944Y-78058677D01*
X195562354Y-78054980D01*
X195537730Y-78038527D01*
X195512592Y-78026805D01*
X195497297Y-78011510D01*
X195477031Y-77997969D01*
X195463489Y-77977702D01*
X195448194Y-77962407D01*
X195436470Y-77937266D01*
X195420020Y-77912646D01*
X195416322Y-77894057D01*
X195409232Y-77878852D01*
X195401274Y-77818409D01*
X195400000Y-77812000D01*
X195400000Y-77312000D01*
X195401274Y-77305592D01*
X195409232Y-77245147D01*
X195416322Y-77229940D01*
X195420020Y-77211354D01*
X195436469Y-77186735D01*
X195448194Y-77161592D01*
X195463491Y-77146294D01*
X195477031Y-77126031D01*
X195497294Y-77112491D01*
X195512592Y-77097194D01*
X195537735Y-77085469D01*
X195562354Y-77069020D01*
X195580940Y-77065322D01*
X195596147Y-77058232D01*
X195656592Y-77050274D01*
X195663000Y-77049000D01*
X196113000Y-77049000D01*
X196119409Y-77050274D01*
G37*
G36*
X197669409Y-77050274D02*
G01*
X197729852Y-77058232D01*
X197745057Y-77065322D01*
X197763646Y-77069020D01*
X197788266Y-77085470D01*
X197813407Y-77097194D01*
X197828702Y-77112489D01*
X197848969Y-77126031D01*
X197862510Y-77146297D01*
X197877805Y-77161592D01*
X197889527Y-77186730D01*
X197905980Y-77211354D01*
X197909677Y-77229944D01*
X197916767Y-77245147D01*
X197924722Y-77305577D01*
X197926000Y-77312000D01*
X197926000Y-77812000D01*
X197924722Y-77818424D01*
X197916767Y-77878852D01*
X197909678Y-77894054D01*
X197905980Y-77912646D01*
X197889525Y-77937271D01*
X197877805Y-77962407D01*
X197862512Y-77977699D01*
X197848969Y-77997969D01*
X197828699Y-78011512D01*
X197813407Y-78026805D01*
X197788271Y-78038525D01*
X197763646Y-78054980D01*
X197745054Y-78058678D01*
X197729852Y-78065767D01*
X197669424Y-78073722D01*
X197663000Y-78075000D01*
X197213000Y-78075000D01*
X197206577Y-78073722D01*
X197146147Y-78065767D01*
X197130944Y-78058677D01*
X197112354Y-78054980D01*
X197087730Y-78038527D01*
X197062592Y-78026805D01*
X197047297Y-78011510D01*
X197027031Y-77997969D01*
X197013489Y-77977702D01*
X196998194Y-77962407D01*
X196986470Y-77937266D01*
X196970020Y-77912646D01*
X196966322Y-77894057D01*
X196959232Y-77878852D01*
X196951274Y-77818409D01*
X196950000Y-77812000D01*
X196950000Y-77312000D01*
X196951274Y-77305592D01*
X196959232Y-77245147D01*
X196966322Y-77229940D01*
X196970020Y-77211354D01*
X196986469Y-77186735D01*
X196998194Y-77161592D01*
X197013491Y-77146294D01*
X197027031Y-77126031D01*
X197047294Y-77112491D01*
X197062592Y-77097194D01*
X197087735Y-77085469D01*
X197112354Y-77069020D01*
X197130940Y-77065322D01*
X197146147Y-77058232D01*
X197206592Y-77050274D01*
X197213000Y-77049000D01*
X197663000Y-77049000D01*
X197669409Y-77050274D01*
G37*
G36*
X200129409Y-77050274D02*
G01*
X200189852Y-77058232D01*
X200205057Y-77065322D01*
X200223646Y-77069020D01*
X200248266Y-77085470D01*
X200273407Y-77097194D01*
X200288702Y-77112489D01*
X200308969Y-77126031D01*
X200322510Y-77146297D01*
X200337805Y-77161592D01*
X200349527Y-77186730D01*
X200365980Y-77211354D01*
X200369677Y-77229944D01*
X200376767Y-77245147D01*
X200384722Y-77305577D01*
X200386000Y-77312000D01*
X200386000Y-77812000D01*
X200384722Y-77818424D01*
X200376767Y-77878852D01*
X200369678Y-77894054D01*
X200365980Y-77912646D01*
X200349525Y-77937271D01*
X200337805Y-77962407D01*
X200322512Y-77977699D01*
X200308969Y-77997969D01*
X200288699Y-78011512D01*
X200273407Y-78026805D01*
X200248271Y-78038525D01*
X200223646Y-78054980D01*
X200205054Y-78058678D01*
X200189852Y-78065767D01*
X200129424Y-78073722D01*
X200123000Y-78075000D01*
X199673000Y-78075000D01*
X199666577Y-78073722D01*
X199606147Y-78065767D01*
X199590944Y-78058677D01*
X199572354Y-78054980D01*
X199547730Y-78038527D01*
X199522592Y-78026805D01*
X199507297Y-78011510D01*
X199487031Y-77997969D01*
X199473489Y-77977702D01*
X199458194Y-77962407D01*
X199446470Y-77937266D01*
X199430020Y-77912646D01*
X199426322Y-77894057D01*
X199419232Y-77878852D01*
X199411274Y-77818409D01*
X199410000Y-77812000D01*
X199410000Y-77312000D01*
X199411274Y-77305592D01*
X199419232Y-77245147D01*
X199426322Y-77229940D01*
X199430020Y-77211354D01*
X199446469Y-77186735D01*
X199458194Y-77161592D01*
X199473491Y-77146294D01*
X199487031Y-77126031D01*
X199507294Y-77112491D01*
X199522592Y-77097194D01*
X199547735Y-77085469D01*
X199572354Y-77069020D01*
X199590940Y-77065322D01*
X199606147Y-77058232D01*
X199666592Y-77050274D01*
X199673000Y-77049000D01*
X200123000Y-77049000D01*
X200129409Y-77050274D01*
G37*
G36*
X201679409Y-77050274D02*
G01*
X201739852Y-77058232D01*
X201755057Y-77065322D01*
X201773646Y-77069020D01*
X201798266Y-77085470D01*
X201823407Y-77097194D01*
X201838702Y-77112489D01*
X201858969Y-77126031D01*
X201872510Y-77146297D01*
X201887805Y-77161592D01*
X201899527Y-77186730D01*
X201915980Y-77211354D01*
X201919677Y-77229944D01*
X201926767Y-77245147D01*
X201934722Y-77305577D01*
X201936000Y-77312000D01*
X201936000Y-77812000D01*
X201934722Y-77818424D01*
X201926767Y-77878852D01*
X201919678Y-77894054D01*
X201915980Y-77912646D01*
X201899525Y-77937271D01*
X201887805Y-77962407D01*
X201872512Y-77977699D01*
X201858969Y-77997969D01*
X201838699Y-78011512D01*
X201823407Y-78026805D01*
X201798271Y-78038525D01*
X201773646Y-78054980D01*
X201755054Y-78058678D01*
X201739852Y-78065767D01*
X201679424Y-78073722D01*
X201673000Y-78075000D01*
X201223000Y-78075000D01*
X201216577Y-78073722D01*
X201156147Y-78065767D01*
X201140944Y-78058677D01*
X201122354Y-78054980D01*
X201097730Y-78038527D01*
X201072592Y-78026805D01*
X201057297Y-78011510D01*
X201037031Y-77997969D01*
X201023489Y-77977702D01*
X201008194Y-77962407D01*
X200996470Y-77937266D01*
X200980020Y-77912646D01*
X200976322Y-77894057D01*
X200969232Y-77878852D01*
X200961274Y-77818409D01*
X200960000Y-77812000D01*
X200960000Y-77312000D01*
X200961274Y-77305592D01*
X200969232Y-77245147D01*
X200976322Y-77229940D01*
X200980020Y-77211354D01*
X200996469Y-77186735D01*
X201008194Y-77161592D01*
X201023491Y-77146294D01*
X201037031Y-77126031D01*
X201057294Y-77112491D01*
X201072592Y-77097194D01*
X201097735Y-77085469D01*
X201122354Y-77069020D01*
X201140940Y-77065322D01*
X201156147Y-77058232D01*
X201216592Y-77050274D01*
X201223000Y-77049000D01*
X201673000Y-77049000D01*
X201679409Y-77050274D01*
G37*
G36*
X204062047Y-77049805D02*
G01*
X204110661Y-77055445D01*
X204127271Y-77062779D01*
X204149079Y-77067117D01*
X204172425Y-77082716D01*
X204192012Y-77091365D01*
X204205390Y-77104743D01*
X204226291Y-77118709D01*
X204240256Y-77139609D01*
X204253634Y-77152987D01*
X204262281Y-77172572D01*
X204277883Y-77195921D01*
X204282221Y-77217731D01*
X204289554Y-77234338D01*
X204295192Y-77282942D01*
X204296000Y-77287000D01*
X204296000Y-77837000D01*
X204295192Y-77841059D01*
X204289554Y-77889661D01*
X204282221Y-77906266D01*
X204277883Y-77928079D01*
X204262280Y-77951429D01*
X204253634Y-77971012D01*
X204240258Y-77984387D01*
X204226291Y-78005291D01*
X204205387Y-78019258D01*
X204192012Y-78032634D01*
X204172429Y-78041280D01*
X204149079Y-78056883D01*
X204127266Y-78061221D01*
X204110661Y-78068554D01*
X204062059Y-78074192D01*
X204058000Y-78075000D01*
X203658000Y-78075000D01*
X203653942Y-78074192D01*
X203605338Y-78068554D01*
X203588731Y-78061221D01*
X203566921Y-78056883D01*
X203543572Y-78041281D01*
X203523987Y-78032634D01*
X203510609Y-78019256D01*
X203489709Y-78005291D01*
X203475743Y-77984390D01*
X203462365Y-77971012D01*
X203453716Y-77951425D01*
X203438117Y-77928079D01*
X203433779Y-77906271D01*
X203426445Y-77889661D01*
X203420805Y-77841047D01*
X203420000Y-77837000D01*
X203420000Y-77287000D01*
X203420804Y-77282954D01*
X203426445Y-77234338D01*
X203433779Y-77217727D01*
X203438117Y-77195921D01*
X203453715Y-77172576D01*
X203462365Y-77152987D01*
X203475745Y-77139606D01*
X203489709Y-77118709D01*
X203510606Y-77104745D01*
X203523987Y-77091365D01*
X203543576Y-77082715D01*
X203566921Y-77067117D01*
X203588727Y-77062779D01*
X203605338Y-77055445D01*
X203653954Y-77049804D01*
X203658000Y-77049000D01*
X204058000Y-77049000D01*
X204062047Y-77049805D01*
G37*
G36*
X205712047Y-77049805D02*
G01*
X205760661Y-77055445D01*
X205777271Y-77062779D01*
X205799079Y-77067117D01*
X205822425Y-77082716D01*
X205842012Y-77091365D01*
X205855390Y-77104743D01*
X205876291Y-77118709D01*
X205890256Y-77139609D01*
X205903634Y-77152987D01*
X205912281Y-77172572D01*
X205927883Y-77195921D01*
X205932221Y-77217731D01*
X205939554Y-77234338D01*
X205945192Y-77282942D01*
X205946000Y-77287000D01*
X205946000Y-77837000D01*
X205945192Y-77841059D01*
X205939554Y-77889661D01*
X205932221Y-77906266D01*
X205927883Y-77928079D01*
X205912280Y-77951429D01*
X205903634Y-77971012D01*
X205890258Y-77984387D01*
X205876291Y-78005291D01*
X205855387Y-78019258D01*
X205842012Y-78032634D01*
X205822429Y-78041280D01*
X205799079Y-78056883D01*
X205777266Y-78061221D01*
X205760661Y-78068554D01*
X205712059Y-78074192D01*
X205708000Y-78075000D01*
X205308000Y-78075000D01*
X205303942Y-78074192D01*
X205255338Y-78068554D01*
X205238731Y-78061221D01*
X205216921Y-78056883D01*
X205193572Y-78041281D01*
X205173987Y-78032634D01*
X205160609Y-78019256D01*
X205139709Y-78005291D01*
X205125743Y-77984390D01*
X205112365Y-77971012D01*
X205103716Y-77951425D01*
X205088117Y-77928079D01*
X205083779Y-77906271D01*
X205076445Y-77889661D01*
X205070805Y-77841047D01*
X205070000Y-77837000D01*
X205070000Y-77287000D01*
X205070804Y-77282954D01*
X205076445Y-77234338D01*
X205083779Y-77217727D01*
X205088117Y-77195921D01*
X205103715Y-77172576D01*
X205112365Y-77152987D01*
X205125745Y-77139606D01*
X205139709Y-77118709D01*
X205160606Y-77104745D01*
X205173987Y-77091365D01*
X205193576Y-77082715D01*
X205216921Y-77067117D01*
X205238727Y-77062779D01*
X205255338Y-77055445D01*
X205303954Y-77049804D01*
X205308000Y-77049000D01*
X205708000Y-77049000D01*
X205712047Y-77049805D01*
G37*
G36*
X214082047Y-77049805D02*
G01*
X214130661Y-77055445D01*
X214147271Y-77062779D01*
X214169079Y-77067117D01*
X214192425Y-77082716D01*
X214212012Y-77091365D01*
X214225390Y-77104743D01*
X214246291Y-77118709D01*
X214260256Y-77139609D01*
X214273634Y-77152987D01*
X214282281Y-77172572D01*
X214297883Y-77195921D01*
X214302221Y-77217731D01*
X214309554Y-77234338D01*
X214315192Y-77282942D01*
X214316000Y-77287000D01*
X214316000Y-77837000D01*
X214315192Y-77841059D01*
X214309554Y-77889661D01*
X214302221Y-77906266D01*
X214297883Y-77928079D01*
X214282280Y-77951429D01*
X214273634Y-77971012D01*
X214260258Y-77984387D01*
X214246291Y-78005291D01*
X214225387Y-78019258D01*
X214212012Y-78032634D01*
X214192429Y-78041280D01*
X214169079Y-78056883D01*
X214147266Y-78061221D01*
X214130661Y-78068554D01*
X214082059Y-78074192D01*
X214078000Y-78075000D01*
X213678000Y-78075000D01*
X213673942Y-78074192D01*
X213625338Y-78068554D01*
X213608731Y-78061221D01*
X213586921Y-78056883D01*
X213563572Y-78041281D01*
X213543987Y-78032634D01*
X213530609Y-78019256D01*
X213509709Y-78005291D01*
X213495743Y-77984390D01*
X213482365Y-77971012D01*
X213473716Y-77951425D01*
X213458117Y-77928079D01*
X213453779Y-77906271D01*
X213446445Y-77889661D01*
X213440805Y-77841047D01*
X213440000Y-77837000D01*
X213440000Y-77287000D01*
X213440804Y-77282954D01*
X213446445Y-77234338D01*
X213453779Y-77217727D01*
X213458117Y-77195921D01*
X213473715Y-77172576D01*
X213482365Y-77152987D01*
X213495745Y-77139606D01*
X213509709Y-77118709D01*
X213530606Y-77104745D01*
X213543987Y-77091365D01*
X213563576Y-77082715D01*
X213586921Y-77067117D01*
X213608727Y-77062779D01*
X213625338Y-77055445D01*
X213673954Y-77049804D01*
X213678000Y-77049000D01*
X214078000Y-77049000D01*
X214082047Y-77049805D01*
G37*
G36*
X215732047Y-77049805D02*
G01*
X215780661Y-77055445D01*
X215797271Y-77062779D01*
X215819079Y-77067117D01*
X215842425Y-77082716D01*
X215862012Y-77091365D01*
X215875390Y-77104743D01*
X215896291Y-77118709D01*
X215910256Y-77139609D01*
X215923634Y-77152987D01*
X215932281Y-77172572D01*
X215947883Y-77195921D01*
X215952221Y-77217731D01*
X215959554Y-77234338D01*
X215965192Y-77282942D01*
X215966000Y-77287000D01*
X215966000Y-77837000D01*
X215965192Y-77841059D01*
X215959554Y-77889661D01*
X215952221Y-77906266D01*
X215947883Y-77928079D01*
X215932280Y-77951429D01*
X215923634Y-77971012D01*
X215910258Y-77984387D01*
X215896291Y-78005291D01*
X215875387Y-78019258D01*
X215862012Y-78032634D01*
X215842429Y-78041280D01*
X215819079Y-78056883D01*
X215797266Y-78061221D01*
X215780661Y-78068554D01*
X215732059Y-78074192D01*
X215728000Y-78075000D01*
X215328000Y-78075000D01*
X215323942Y-78074192D01*
X215275338Y-78068554D01*
X215258731Y-78061221D01*
X215236921Y-78056883D01*
X215213572Y-78041281D01*
X215193987Y-78032634D01*
X215180609Y-78019256D01*
X215159709Y-78005291D01*
X215145743Y-77984390D01*
X215132365Y-77971012D01*
X215123716Y-77951425D01*
X215108117Y-77928079D01*
X215103779Y-77906271D01*
X215096445Y-77889661D01*
X215090805Y-77841047D01*
X215090000Y-77837000D01*
X215090000Y-77287000D01*
X215090804Y-77282954D01*
X215096445Y-77234338D01*
X215103779Y-77217727D01*
X215108117Y-77195921D01*
X215123715Y-77172576D01*
X215132365Y-77152987D01*
X215145745Y-77139606D01*
X215159709Y-77118709D01*
X215180606Y-77104745D01*
X215193987Y-77091365D01*
X215213576Y-77082715D01*
X215236921Y-77067117D01*
X215258727Y-77062779D01*
X215275338Y-77055445D01*
X215323954Y-77049804D01*
X215328000Y-77049000D01*
X215728000Y-77049000D01*
X215732047Y-77049805D01*
G37*
G36*
X196119409Y-74540274D02*
G01*
X196179852Y-74548232D01*
X196195057Y-74555322D01*
X196213646Y-74559020D01*
X196238266Y-74575470D01*
X196263407Y-74587194D01*
X196278702Y-74602489D01*
X196298969Y-74616031D01*
X196312510Y-74636297D01*
X196327805Y-74651592D01*
X196339527Y-74676730D01*
X196355980Y-74701354D01*
X196359677Y-74719944D01*
X196366767Y-74735147D01*
X196374722Y-74795577D01*
X196376000Y-74802000D01*
X196376000Y-75302000D01*
X196374722Y-75308424D01*
X196366767Y-75368852D01*
X196359678Y-75384054D01*
X196355980Y-75402646D01*
X196339525Y-75427271D01*
X196327805Y-75452407D01*
X196312512Y-75467699D01*
X196298969Y-75487969D01*
X196278699Y-75501512D01*
X196263407Y-75516805D01*
X196238271Y-75528525D01*
X196213646Y-75544980D01*
X196195054Y-75548678D01*
X196179852Y-75555767D01*
X196119424Y-75563722D01*
X196113000Y-75565000D01*
X195663000Y-75565000D01*
X195656577Y-75563722D01*
X195596147Y-75555767D01*
X195580944Y-75548677D01*
X195562354Y-75544980D01*
X195537730Y-75528527D01*
X195512592Y-75516805D01*
X195497297Y-75501510D01*
X195477031Y-75487969D01*
X195463489Y-75467702D01*
X195448194Y-75452407D01*
X195436470Y-75427266D01*
X195420020Y-75402646D01*
X195416322Y-75384057D01*
X195409232Y-75368852D01*
X195401274Y-75308409D01*
X195400000Y-75302000D01*
X195400000Y-74802000D01*
X195401274Y-74795592D01*
X195409232Y-74735147D01*
X195416322Y-74719940D01*
X195420020Y-74701354D01*
X195436469Y-74676735D01*
X195448194Y-74651592D01*
X195463491Y-74636294D01*
X195477031Y-74616031D01*
X195497294Y-74602491D01*
X195512592Y-74587194D01*
X195537735Y-74575469D01*
X195562354Y-74559020D01*
X195580940Y-74555322D01*
X195596147Y-74548232D01*
X195656592Y-74540274D01*
X195663000Y-74539000D01*
X196113000Y-74539000D01*
X196119409Y-74540274D01*
G37*
G36*
X197669409Y-74540274D02*
G01*
X197729852Y-74548232D01*
X197745057Y-74555322D01*
X197763646Y-74559020D01*
X197788266Y-74575470D01*
X197813407Y-74587194D01*
X197828702Y-74602489D01*
X197848969Y-74616031D01*
X197862510Y-74636297D01*
X197877805Y-74651592D01*
X197889527Y-74676730D01*
X197905980Y-74701354D01*
X197909677Y-74719944D01*
X197916767Y-74735147D01*
X197924722Y-74795577D01*
X197926000Y-74802000D01*
X197926000Y-75302000D01*
X197924722Y-75308424D01*
X197916767Y-75368852D01*
X197909678Y-75384054D01*
X197905980Y-75402646D01*
X197889525Y-75427271D01*
X197877805Y-75452407D01*
X197862512Y-75467699D01*
X197848969Y-75487969D01*
X197828699Y-75501512D01*
X197813407Y-75516805D01*
X197788271Y-75528525D01*
X197763646Y-75544980D01*
X197745054Y-75548678D01*
X197729852Y-75555767D01*
X197669424Y-75563722D01*
X197663000Y-75565000D01*
X197213000Y-75565000D01*
X197206577Y-75563722D01*
X197146147Y-75555767D01*
X197130944Y-75548677D01*
X197112354Y-75544980D01*
X197087730Y-75528527D01*
X197062592Y-75516805D01*
X197047297Y-75501510D01*
X197027031Y-75487969D01*
X197013489Y-75467702D01*
X196998194Y-75452407D01*
X196986470Y-75427266D01*
X196970020Y-75402646D01*
X196966322Y-75384057D01*
X196959232Y-75368852D01*
X196951274Y-75308409D01*
X196950000Y-75302000D01*
X196950000Y-74802000D01*
X196951274Y-74795592D01*
X196959232Y-74735147D01*
X196966322Y-74719940D01*
X196970020Y-74701354D01*
X196986469Y-74676735D01*
X196998194Y-74651592D01*
X197013491Y-74636294D01*
X197027031Y-74616031D01*
X197047294Y-74602491D01*
X197062592Y-74587194D01*
X197087735Y-74575469D01*
X197112354Y-74559020D01*
X197130940Y-74555322D01*
X197146147Y-74548232D01*
X197206592Y-74540274D01*
X197213000Y-74539000D01*
X197663000Y-74539000D01*
X197669409Y-74540274D01*
G37*
G36*
X200129409Y-74540274D02*
G01*
X200189852Y-74548232D01*
X200205057Y-74555322D01*
X200223646Y-74559020D01*
X200248266Y-74575470D01*
X200273407Y-74587194D01*
X200288702Y-74602489D01*
X200308969Y-74616031D01*
X200322510Y-74636297D01*
X200337805Y-74651592D01*
X200349527Y-74676730D01*
X200365980Y-74701354D01*
X200369677Y-74719944D01*
X200376767Y-74735147D01*
X200384722Y-74795577D01*
X200386000Y-74802000D01*
X200386000Y-75302000D01*
X200384722Y-75308424D01*
X200376767Y-75368852D01*
X200369678Y-75384054D01*
X200365980Y-75402646D01*
X200349525Y-75427271D01*
X200337805Y-75452407D01*
X200322512Y-75467699D01*
X200308969Y-75487969D01*
X200288699Y-75501512D01*
X200273407Y-75516805D01*
X200248271Y-75528525D01*
X200223646Y-75544980D01*
X200205054Y-75548678D01*
X200189852Y-75555767D01*
X200129424Y-75563722D01*
X200123000Y-75565000D01*
X199673000Y-75565000D01*
X199666577Y-75563722D01*
X199606147Y-75555767D01*
X199590944Y-75548677D01*
X199572354Y-75544980D01*
X199547730Y-75528527D01*
X199522592Y-75516805D01*
X199507297Y-75501510D01*
X199487031Y-75487969D01*
X199473489Y-75467702D01*
X199458194Y-75452407D01*
X199446470Y-75427266D01*
X199430020Y-75402646D01*
X199426322Y-75384057D01*
X199419232Y-75368852D01*
X199411274Y-75308409D01*
X199410000Y-75302000D01*
X199410000Y-74802000D01*
X199411274Y-74795592D01*
X199419232Y-74735147D01*
X199426322Y-74719940D01*
X199430020Y-74701354D01*
X199446469Y-74676735D01*
X199458194Y-74651592D01*
X199473491Y-74636294D01*
X199487031Y-74616031D01*
X199507294Y-74602491D01*
X199522592Y-74587194D01*
X199547735Y-74575469D01*
X199572354Y-74559020D01*
X199590940Y-74555322D01*
X199606147Y-74548232D01*
X199666592Y-74540274D01*
X199673000Y-74539000D01*
X200123000Y-74539000D01*
X200129409Y-74540274D01*
G37*
G36*
X201679409Y-74540274D02*
G01*
X201739852Y-74548232D01*
X201755057Y-74555322D01*
X201773646Y-74559020D01*
X201798266Y-74575470D01*
X201823407Y-74587194D01*
X201838702Y-74602489D01*
X201858969Y-74616031D01*
X201872510Y-74636297D01*
X201887805Y-74651592D01*
X201899527Y-74676730D01*
X201915980Y-74701354D01*
X201919677Y-74719944D01*
X201926767Y-74735147D01*
X201934722Y-74795577D01*
X201936000Y-74802000D01*
X201936000Y-75302000D01*
X201934722Y-75308424D01*
X201926767Y-75368852D01*
X201919678Y-75384054D01*
X201915980Y-75402646D01*
X201899525Y-75427271D01*
X201887805Y-75452407D01*
X201872512Y-75467699D01*
X201858969Y-75487969D01*
X201838699Y-75501512D01*
X201823407Y-75516805D01*
X201798271Y-75528525D01*
X201773646Y-75544980D01*
X201755054Y-75548678D01*
X201739852Y-75555767D01*
X201679424Y-75563722D01*
X201673000Y-75565000D01*
X201223000Y-75565000D01*
X201216577Y-75563722D01*
X201156147Y-75555767D01*
X201140944Y-75548677D01*
X201122354Y-75544980D01*
X201097730Y-75528527D01*
X201072592Y-75516805D01*
X201057297Y-75501510D01*
X201037031Y-75487969D01*
X201023489Y-75467702D01*
X201008194Y-75452407D01*
X200996470Y-75427266D01*
X200980020Y-75402646D01*
X200976322Y-75384057D01*
X200969232Y-75368852D01*
X200961274Y-75308409D01*
X200960000Y-75302000D01*
X200960000Y-74802000D01*
X200961274Y-74795592D01*
X200969232Y-74735147D01*
X200976322Y-74719940D01*
X200980020Y-74701354D01*
X200996469Y-74676735D01*
X201008194Y-74651592D01*
X201023491Y-74636294D01*
X201037031Y-74616031D01*
X201057294Y-74602491D01*
X201072592Y-74587194D01*
X201097735Y-74575469D01*
X201122354Y-74559020D01*
X201140940Y-74555322D01*
X201156147Y-74548232D01*
X201216592Y-74540274D01*
X201223000Y-74539000D01*
X201673000Y-74539000D01*
X201679409Y-74540274D01*
G37*
G36*
X204062047Y-74539805D02*
G01*
X204110661Y-74545445D01*
X204127271Y-74552779D01*
X204149079Y-74557117D01*
X204172425Y-74572716D01*
X204192012Y-74581365D01*
X204205390Y-74594743D01*
X204226291Y-74608709D01*
X204240256Y-74629609D01*
X204253634Y-74642987D01*
X204262281Y-74662572D01*
X204277883Y-74685921D01*
X204282221Y-74707731D01*
X204289554Y-74724338D01*
X204295192Y-74772942D01*
X204296000Y-74777000D01*
X204296000Y-75327000D01*
X204295192Y-75331059D01*
X204289554Y-75379661D01*
X204282221Y-75396266D01*
X204277883Y-75418079D01*
X204262280Y-75441429D01*
X204253634Y-75461012D01*
X204240258Y-75474387D01*
X204226291Y-75495291D01*
X204205387Y-75509258D01*
X204192012Y-75522634D01*
X204172429Y-75531280D01*
X204149079Y-75546883D01*
X204127266Y-75551221D01*
X204110661Y-75558554D01*
X204062059Y-75564192D01*
X204058000Y-75565000D01*
X203658000Y-75565000D01*
X203653942Y-75564192D01*
X203605338Y-75558554D01*
X203588731Y-75551221D01*
X203566921Y-75546883D01*
X203543572Y-75531281D01*
X203523987Y-75522634D01*
X203510609Y-75509256D01*
X203489709Y-75495291D01*
X203475743Y-75474390D01*
X203462365Y-75461012D01*
X203453716Y-75441425D01*
X203438117Y-75418079D01*
X203433779Y-75396271D01*
X203426445Y-75379661D01*
X203420805Y-75331047D01*
X203420000Y-75327000D01*
X203420000Y-74777000D01*
X203420804Y-74772954D01*
X203426445Y-74724338D01*
X203433779Y-74707727D01*
X203438117Y-74685921D01*
X203453715Y-74662576D01*
X203462365Y-74642987D01*
X203475745Y-74629606D01*
X203489709Y-74608709D01*
X203510606Y-74594745D01*
X203523987Y-74581365D01*
X203543576Y-74572715D01*
X203566921Y-74557117D01*
X203588727Y-74552779D01*
X203605338Y-74545445D01*
X203653954Y-74539804D01*
X203658000Y-74539000D01*
X204058000Y-74539000D01*
X204062047Y-74539805D01*
G37*
G36*
X205712047Y-74539805D02*
G01*
X205760661Y-74545445D01*
X205777271Y-74552779D01*
X205799079Y-74557117D01*
X205822425Y-74572716D01*
X205842012Y-74581365D01*
X205855390Y-74594743D01*
X205876291Y-74608709D01*
X205890256Y-74629609D01*
X205903634Y-74642987D01*
X205912281Y-74662572D01*
X205927883Y-74685921D01*
X205932221Y-74707731D01*
X205939554Y-74724338D01*
X205945192Y-74772942D01*
X205946000Y-74777000D01*
X205946000Y-75327000D01*
X205945192Y-75331059D01*
X205939554Y-75379661D01*
X205932221Y-75396266D01*
X205927883Y-75418079D01*
X205912280Y-75441429D01*
X205903634Y-75461012D01*
X205890258Y-75474387D01*
X205876291Y-75495291D01*
X205855387Y-75509258D01*
X205842012Y-75522634D01*
X205822429Y-75531280D01*
X205799079Y-75546883D01*
X205777266Y-75551221D01*
X205760661Y-75558554D01*
X205712059Y-75564192D01*
X205708000Y-75565000D01*
X205308000Y-75565000D01*
X205303942Y-75564192D01*
X205255338Y-75558554D01*
X205238731Y-75551221D01*
X205216921Y-75546883D01*
X205193572Y-75531281D01*
X205173987Y-75522634D01*
X205160609Y-75509256D01*
X205139709Y-75495291D01*
X205125743Y-75474390D01*
X205112365Y-75461012D01*
X205103716Y-75441425D01*
X205088117Y-75418079D01*
X205083779Y-75396271D01*
X205076445Y-75379661D01*
X205070805Y-75331047D01*
X205070000Y-75327000D01*
X205070000Y-74777000D01*
X205070804Y-74772954D01*
X205076445Y-74724338D01*
X205083779Y-74707727D01*
X205088117Y-74685921D01*
X205103715Y-74662576D01*
X205112365Y-74642987D01*
X205125745Y-74629606D01*
X205139709Y-74608709D01*
X205160606Y-74594745D01*
X205173987Y-74581365D01*
X205193576Y-74572715D01*
X205216921Y-74557117D01*
X205238727Y-74552779D01*
X205255338Y-74545445D01*
X205303954Y-74539804D01*
X205308000Y-74539000D01*
X205708000Y-74539000D01*
X205712047Y-74539805D01*
G37*
G36*
X214159409Y-74540274D02*
G01*
X214219852Y-74548232D01*
X214235057Y-74555322D01*
X214253646Y-74559020D01*
X214278266Y-74575470D01*
X214303407Y-74587194D01*
X214318702Y-74602489D01*
X214338969Y-74616031D01*
X214352510Y-74636297D01*
X214367805Y-74651592D01*
X214379527Y-74676730D01*
X214395980Y-74701354D01*
X214399677Y-74719944D01*
X214406767Y-74735147D01*
X214414722Y-74795577D01*
X214416000Y-74802000D01*
X214416000Y-75302000D01*
X214414722Y-75308424D01*
X214406767Y-75368852D01*
X214399678Y-75384054D01*
X214395980Y-75402646D01*
X214379525Y-75427271D01*
X214367805Y-75452407D01*
X214352512Y-75467699D01*
X214338969Y-75487969D01*
X214318699Y-75501512D01*
X214303407Y-75516805D01*
X214278271Y-75528525D01*
X214253646Y-75544980D01*
X214235054Y-75548678D01*
X214219852Y-75555767D01*
X214159424Y-75563722D01*
X214153000Y-75565000D01*
X213703000Y-75565000D01*
X213696577Y-75563722D01*
X213636147Y-75555767D01*
X213620944Y-75548677D01*
X213602354Y-75544980D01*
X213577730Y-75528527D01*
X213552592Y-75516805D01*
X213537297Y-75501510D01*
X213517031Y-75487969D01*
X213503489Y-75467702D01*
X213488194Y-75452407D01*
X213476470Y-75427266D01*
X213460020Y-75402646D01*
X213456322Y-75384057D01*
X213449232Y-75368852D01*
X213441274Y-75308409D01*
X213440000Y-75302000D01*
X213440000Y-74802000D01*
X213441274Y-74795592D01*
X213449232Y-74735147D01*
X213456322Y-74719940D01*
X213460020Y-74701354D01*
X213476469Y-74676735D01*
X213488194Y-74651592D01*
X213503491Y-74636294D01*
X213517031Y-74616031D01*
X213537294Y-74602491D01*
X213552592Y-74587194D01*
X213577735Y-74575469D01*
X213602354Y-74559020D01*
X213620940Y-74555322D01*
X213636147Y-74548232D01*
X213696592Y-74540274D01*
X213703000Y-74539000D01*
X214153000Y-74539000D01*
X214159409Y-74540274D01*
G37*
G36*
X215709409Y-74540274D02*
G01*
X215769852Y-74548232D01*
X215785057Y-74555322D01*
X215803646Y-74559020D01*
X215828266Y-74575470D01*
X215853407Y-74587194D01*
X215868702Y-74602489D01*
X215888969Y-74616031D01*
X215902510Y-74636297D01*
X215917805Y-74651592D01*
X215929527Y-74676730D01*
X215945980Y-74701354D01*
X215949677Y-74719944D01*
X215956767Y-74735147D01*
X215964722Y-74795577D01*
X215966000Y-74802000D01*
X215966000Y-75302000D01*
X215964722Y-75308424D01*
X215956767Y-75368852D01*
X215949678Y-75384054D01*
X215945980Y-75402646D01*
X215929525Y-75427271D01*
X215917805Y-75452407D01*
X215902512Y-75467699D01*
X215888969Y-75487969D01*
X215868699Y-75501512D01*
X215853407Y-75516805D01*
X215828271Y-75528525D01*
X215803646Y-75544980D01*
X215785054Y-75548678D01*
X215769852Y-75555767D01*
X215709424Y-75563722D01*
X215703000Y-75565000D01*
X215253000Y-75565000D01*
X215246577Y-75563722D01*
X215186147Y-75555767D01*
X215170944Y-75548677D01*
X215152354Y-75544980D01*
X215127730Y-75528527D01*
X215102592Y-75516805D01*
X215087297Y-75501510D01*
X215067031Y-75487969D01*
X215053489Y-75467702D01*
X215038194Y-75452407D01*
X215026470Y-75427266D01*
X215010020Y-75402646D01*
X215006322Y-75384057D01*
X214999232Y-75368852D01*
X214991274Y-75308409D01*
X214990000Y-75302000D01*
X214990000Y-74802000D01*
X214991274Y-74795592D01*
X214999232Y-74735147D01*
X215006322Y-74719940D01*
X215010020Y-74701354D01*
X215026469Y-74676735D01*
X215038194Y-74651592D01*
X215053491Y-74636294D01*
X215067031Y-74616031D01*
X215087294Y-74602491D01*
X215102592Y-74587194D01*
X215127735Y-74575469D01*
X215152354Y-74559020D01*
X215170940Y-74555322D01*
X215186147Y-74548232D01*
X215246592Y-74540274D01*
X215253000Y-74539000D01*
X215703000Y-74539000D01*
X215709409Y-74540274D01*
G37*
G36*
X196119409Y-72030274D02*
G01*
X196179852Y-72038232D01*
X196195057Y-72045322D01*
X196213646Y-72049020D01*
X196238266Y-72065470D01*
X196263407Y-72077194D01*
X196278702Y-72092489D01*
X196298969Y-72106031D01*
X196312510Y-72126297D01*
X196327805Y-72141592D01*
X196339527Y-72166730D01*
X196355980Y-72191354D01*
X196359677Y-72209944D01*
X196366767Y-72225147D01*
X196374722Y-72285577D01*
X196376000Y-72292000D01*
X196376000Y-72792000D01*
X196374722Y-72798424D01*
X196366767Y-72858852D01*
X196359678Y-72874054D01*
X196355980Y-72892646D01*
X196339525Y-72917271D01*
X196327805Y-72942407D01*
X196312512Y-72957699D01*
X196298969Y-72977969D01*
X196278699Y-72991512D01*
X196263407Y-73006805D01*
X196238271Y-73018525D01*
X196213646Y-73034980D01*
X196195054Y-73038678D01*
X196179852Y-73045767D01*
X196119424Y-73053722D01*
X196113000Y-73055000D01*
X195663000Y-73055000D01*
X195656577Y-73053722D01*
X195596147Y-73045767D01*
X195580944Y-73038677D01*
X195562354Y-73034980D01*
X195537730Y-73018527D01*
X195512592Y-73006805D01*
X195497297Y-72991510D01*
X195477031Y-72977969D01*
X195463489Y-72957702D01*
X195448194Y-72942407D01*
X195436470Y-72917266D01*
X195420020Y-72892646D01*
X195416322Y-72874057D01*
X195409232Y-72858852D01*
X195401274Y-72798409D01*
X195400000Y-72792000D01*
X195400000Y-72292000D01*
X195401274Y-72285592D01*
X195409232Y-72225147D01*
X195416322Y-72209940D01*
X195420020Y-72191354D01*
X195436469Y-72166735D01*
X195448194Y-72141592D01*
X195463491Y-72126294D01*
X195477031Y-72106031D01*
X195497294Y-72092491D01*
X195512592Y-72077194D01*
X195537735Y-72065469D01*
X195562354Y-72049020D01*
X195580940Y-72045322D01*
X195596147Y-72038232D01*
X195656592Y-72030274D01*
X195663000Y-72029000D01*
X196113000Y-72029000D01*
X196119409Y-72030274D01*
G37*
G36*
X197669409Y-72030274D02*
G01*
X197729852Y-72038232D01*
X197745057Y-72045322D01*
X197763646Y-72049020D01*
X197788266Y-72065470D01*
X197813407Y-72077194D01*
X197828702Y-72092489D01*
X197848969Y-72106031D01*
X197862510Y-72126297D01*
X197877805Y-72141592D01*
X197889527Y-72166730D01*
X197905980Y-72191354D01*
X197909677Y-72209944D01*
X197916767Y-72225147D01*
X197924722Y-72285577D01*
X197926000Y-72292000D01*
X197926000Y-72792000D01*
X197924722Y-72798424D01*
X197916767Y-72858852D01*
X197909678Y-72874054D01*
X197905980Y-72892646D01*
X197889525Y-72917271D01*
X197877805Y-72942407D01*
X197862512Y-72957699D01*
X197848969Y-72977969D01*
X197828699Y-72991512D01*
X197813407Y-73006805D01*
X197788271Y-73018525D01*
X197763646Y-73034980D01*
X197745054Y-73038678D01*
X197729852Y-73045767D01*
X197669424Y-73053722D01*
X197663000Y-73055000D01*
X197213000Y-73055000D01*
X197206577Y-73053722D01*
X197146147Y-73045767D01*
X197130944Y-73038677D01*
X197112354Y-73034980D01*
X197087730Y-73018527D01*
X197062592Y-73006805D01*
X197047297Y-72991510D01*
X197027031Y-72977969D01*
X197013489Y-72957702D01*
X196998194Y-72942407D01*
X196986470Y-72917266D01*
X196970020Y-72892646D01*
X196966322Y-72874057D01*
X196959232Y-72858852D01*
X196951274Y-72798409D01*
X196950000Y-72792000D01*
X196950000Y-72292000D01*
X196951274Y-72285592D01*
X196959232Y-72225147D01*
X196966322Y-72209940D01*
X196970020Y-72191354D01*
X196986469Y-72166735D01*
X196998194Y-72141592D01*
X197013491Y-72126294D01*
X197027031Y-72106031D01*
X197047294Y-72092491D01*
X197062592Y-72077194D01*
X197087735Y-72065469D01*
X197112354Y-72049020D01*
X197130940Y-72045322D01*
X197146147Y-72038232D01*
X197206592Y-72030274D01*
X197213000Y-72029000D01*
X197663000Y-72029000D01*
X197669409Y-72030274D01*
G37*
G36*
X200129409Y-72030274D02*
G01*
X200189852Y-72038232D01*
X200205057Y-72045322D01*
X200223646Y-72049020D01*
X200248266Y-72065470D01*
X200273407Y-72077194D01*
X200288702Y-72092489D01*
X200308969Y-72106031D01*
X200322510Y-72126297D01*
X200337805Y-72141592D01*
X200349527Y-72166730D01*
X200365980Y-72191354D01*
X200369677Y-72209944D01*
X200376767Y-72225147D01*
X200384722Y-72285577D01*
X200386000Y-72292000D01*
X200386000Y-72792000D01*
X200384722Y-72798424D01*
X200376767Y-72858852D01*
X200369678Y-72874054D01*
X200365980Y-72892646D01*
X200349525Y-72917271D01*
X200337805Y-72942407D01*
X200322512Y-72957699D01*
X200308969Y-72977969D01*
X200288699Y-72991512D01*
X200273407Y-73006805D01*
X200248271Y-73018525D01*
X200223646Y-73034980D01*
X200205054Y-73038678D01*
X200189852Y-73045767D01*
X200129424Y-73053722D01*
X200123000Y-73055000D01*
X199673000Y-73055000D01*
X199666577Y-73053722D01*
X199606147Y-73045767D01*
X199590944Y-73038677D01*
X199572354Y-73034980D01*
X199547730Y-73018527D01*
X199522592Y-73006805D01*
X199507297Y-72991510D01*
X199487031Y-72977969D01*
X199473489Y-72957702D01*
X199458194Y-72942407D01*
X199446470Y-72917266D01*
X199430020Y-72892646D01*
X199426322Y-72874057D01*
X199419232Y-72858852D01*
X199411274Y-72798409D01*
X199410000Y-72792000D01*
X199410000Y-72292000D01*
X199411274Y-72285592D01*
X199419232Y-72225147D01*
X199426322Y-72209940D01*
X199430020Y-72191354D01*
X199446469Y-72166735D01*
X199458194Y-72141592D01*
X199473491Y-72126294D01*
X199487031Y-72106031D01*
X199507294Y-72092491D01*
X199522592Y-72077194D01*
X199547735Y-72065469D01*
X199572354Y-72049020D01*
X199590940Y-72045322D01*
X199606147Y-72038232D01*
X199666592Y-72030274D01*
X199673000Y-72029000D01*
X200123000Y-72029000D01*
X200129409Y-72030274D01*
G37*
G36*
X201679409Y-72030274D02*
G01*
X201739852Y-72038232D01*
X201755057Y-72045322D01*
X201773646Y-72049020D01*
X201798266Y-72065470D01*
X201823407Y-72077194D01*
X201838702Y-72092489D01*
X201858969Y-72106031D01*
X201872510Y-72126297D01*
X201887805Y-72141592D01*
X201899527Y-72166730D01*
X201915980Y-72191354D01*
X201919677Y-72209944D01*
X201926767Y-72225147D01*
X201934722Y-72285577D01*
X201936000Y-72292000D01*
X201936000Y-72792000D01*
X201934722Y-72798424D01*
X201926767Y-72858852D01*
X201919678Y-72874054D01*
X201915980Y-72892646D01*
X201899525Y-72917271D01*
X201887805Y-72942407D01*
X201872512Y-72957699D01*
X201858969Y-72977969D01*
X201838699Y-72991512D01*
X201823407Y-73006805D01*
X201798271Y-73018525D01*
X201773646Y-73034980D01*
X201755054Y-73038678D01*
X201739852Y-73045767D01*
X201679424Y-73053722D01*
X201673000Y-73055000D01*
X201223000Y-73055000D01*
X201216577Y-73053722D01*
X201156147Y-73045767D01*
X201140944Y-73038677D01*
X201122354Y-73034980D01*
X201097730Y-73018527D01*
X201072592Y-73006805D01*
X201057297Y-72991510D01*
X201037031Y-72977969D01*
X201023489Y-72957702D01*
X201008194Y-72942407D01*
X200996470Y-72917266D01*
X200980020Y-72892646D01*
X200976322Y-72874057D01*
X200969232Y-72858852D01*
X200961274Y-72798409D01*
X200960000Y-72792000D01*
X200960000Y-72292000D01*
X200961274Y-72285592D01*
X200969232Y-72225147D01*
X200976322Y-72209940D01*
X200980020Y-72191354D01*
X200996469Y-72166735D01*
X201008194Y-72141592D01*
X201023491Y-72126294D01*
X201037031Y-72106031D01*
X201057294Y-72092491D01*
X201072592Y-72077194D01*
X201097735Y-72065469D01*
X201122354Y-72049020D01*
X201140940Y-72045322D01*
X201156147Y-72038232D01*
X201216592Y-72030274D01*
X201223000Y-72029000D01*
X201673000Y-72029000D01*
X201679409Y-72030274D01*
G37*
G36*
X204062047Y-72029805D02*
G01*
X204110661Y-72035445D01*
X204127271Y-72042779D01*
X204149079Y-72047117D01*
X204172425Y-72062716D01*
X204192012Y-72071365D01*
X204205390Y-72084743D01*
X204226291Y-72098709D01*
X204240256Y-72119609D01*
X204253634Y-72132987D01*
X204262281Y-72152572D01*
X204277883Y-72175921D01*
X204282221Y-72197731D01*
X204289554Y-72214338D01*
X204295192Y-72262942D01*
X204296000Y-72267000D01*
X204296000Y-72817000D01*
X204295192Y-72821059D01*
X204289554Y-72869661D01*
X204282221Y-72886266D01*
X204277883Y-72908079D01*
X204262280Y-72931429D01*
X204253634Y-72951012D01*
X204240258Y-72964387D01*
X204226291Y-72985291D01*
X204205387Y-72999258D01*
X204192012Y-73012634D01*
X204172429Y-73021280D01*
X204149079Y-73036883D01*
X204127266Y-73041221D01*
X204110661Y-73048554D01*
X204062059Y-73054192D01*
X204058000Y-73055000D01*
X203658000Y-73055000D01*
X203653942Y-73054192D01*
X203605338Y-73048554D01*
X203588731Y-73041221D01*
X203566921Y-73036883D01*
X203543572Y-73021281D01*
X203523987Y-73012634D01*
X203510609Y-72999256D01*
X203489709Y-72985291D01*
X203475743Y-72964390D01*
X203462365Y-72951012D01*
X203453716Y-72931425D01*
X203438117Y-72908079D01*
X203433779Y-72886271D01*
X203426445Y-72869661D01*
X203420805Y-72821047D01*
X203420000Y-72817000D01*
X203420000Y-72267000D01*
X203420804Y-72262954D01*
X203426445Y-72214338D01*
X203433779Y-72197727D01*
X203438117Y-72175921D01*
X203453715Y-72152576D01*
X203462365Y-72132987D01*
X203475745Y-72119606D01*
X203489709Y-72098709D01*
X203510606Y-72084745D01*
X203523987Y-72071365D01*
X203543576Y-72062715D01*
X203566921Y-72047117D01*
X203588727Y-72042779D01*
X203605338Y-72035445D01*
X203653954Y-72029804D01*
X203658000Y-72029000D01*
X204058000Y-72029000D01*
X204062047Y-72029805D01*
G37*
G36*
X205712047Y-72029805D02*
G01*
X205760661Y-72035445D01*
X205777271Y-72042779D01*
X205799079Y-72047117D01*
X205822425Y-72062716D01*
X205842012Y-72071365D01*
X205855390Y-72084743D01*
X205876291Y-72098709D01*
X205890256Y-72119609D01*
X205903634Y-72132987D01*
X205912281Y-72152572D01*
X205927883Y-72175921D01*
X205932221Y-72197731D01*
X205939554Y-72214338D01*
X205945192Y-72262942D01*
X205946000Y-72267000D01*
X205946000Y-72817000D01*
X205945192Y-72821059D01*
X205939554Y-72869661D01*
X205932221Y-72886266D01*
X205927883Y-72908079D01*
X205912280Y-72931429D01*
X205903634Y-72951012D01*
X205890258Y-72964387D01*
X205876291Y-72985291D01*
X205855387Y-72999258D01*
X205842012Y-73012634D01*
X205822429Y-73021280D01*
X205799079Y-73036883D01*
X205777266Y-73041221D01*
X205760661Y-73048554D01*
X205712059Y-73054192D01*
X205708000Y-73055000D01*
X205308000Y-73055000D01*
X205303942Y-73054192D01*
X205255338Y-73048554D01*
X205238731Y-73041221D01*
X205216921Y-73036883D01*
X205193572Y-73021281D01*
X205173987Y-73012634D01*
X205160609Y-72999256D01*
X205139709Y-72985291D01*
X205125743Y-72964390D01*
X205112365Y-72951012D01*
X205103716Y-72931425D01*
X205088117Y-72908079D01*
X205083779Y-72886271D01*
X205076445Y-72869661D01*
X205070805Y-72821047D01*
X205070000Y-72817000D01*
X205070000Y-72267000D01*
X205070804Y-72262954D01*
X205076445Y-72214338D01*
X205083779Y-72197727D01*
X205088117Y-72175921D01*
X205103715Y-72152576D01*
X205112365Y-72132987D01*
X205125745Y-72119606D01*
X205139709Y-72098709D01*
X205160606Y-72084745D01*
X205173987Y-72071365D01*
X205193576Y-72062715D01*
X205216921Y-72047117D01*
X205238727Y-72042779D01*
X205255338Y-72035445D01*
X205303954Y-72029804D01*
X205308000Y-72029000D01*
X205708000Y-72029000D01*
X205712047Y-72029805D01*
G37*
G36*
X208072047Y-72029805D02*
G01*
X208120661Y-72035445D01*
X208137271Y-72042779D01*
X208159079Y-72047117D01*
X208182425Y-72062716D01*
X208202012Y-72071365D01*
X208215390Y-72084743D01*
X208236291Y-72098709D01*
X208250256Y-72119609D01*
X208263634Y-72132987D01*
X208272281Y-72152572D01*
X208287883Y-72175921D01*
X208292221Y-72197731D01*
X208299554Y-72214338D01*
X208305192Y-72262942D01*
X208306000Y-72267000D01*
X208306000Y-72817000D01*
X208305192Y-72821059D01*
X208299554Y-72869661D01*
X208292221Y-72886266D01*
X208287883Y-72908079D01*
X208272280Y-72931429D01*
X208263634Y-72951012D01*
X208250258Y-72964387D01*
X208236291Y-72985291D01*
X208215387Y-72999258D01*
X208202012Y-73012634D01*
X208182429Y-73021280D01*
X208159079Y-73036883D01*
X208137266Y-73041221D01*
X208120661Y-73048554D01*
X208072059Y-73054192D01*
X208068000Y-73055000D01*
X207668000Y-73055000D01*
X207663942Y-73054192D01*
X207615338Y-73048554D01*
X207598731Y-73041221D01*
X207576921Y-73036883D01*
X207553572Y-73021281D01*
X207533987Y-73012634D01*
X207520609Y-72999256D01*
X207499709Y-72985291D01*
X207485743Y-72964390D01*
X207472365Y-72951012D01*
X207463716Y-72931425D01*
X207448117Y-72908079D01*
X207443779Y-72886271D01*
X207436445Y-72869661D01*
X207430805Y-72821047D01*
X207430000Y-72817000D01*
X207430000Y-72267000D01*
X207430804Y-72262954D01*
X207436445Y-72214338D01*
X207443779Y-72197727D01*
X207448117Y-72175921D01*
X207463715Y-72152576D01*
X207472365Y-72132987D01*
X207485745Y-72119606D01*
X207499709Y-72098709D01*
X207520606Y-72084745D01*
X207533987Y-72071365D01*
X207553576Y-72062715D01*
X207576921Y-72047117D01*
X207598727Y-72042779D01*
X207615338Y-72035445D01*
X207663954Y-72029804D01*
X207668000Y-72029000D01*
X208068000Y-72029000D01*
X208072047Y-72029805D01*
G37*
G36*
X209722047Y-72029805D02*
G01*
X209770661Y-72035445D01*
X209787271Y-72042779D01*
X209809079Y-72047117D01*
X209832425Y-72062716D01*
X209852012Y-72071365D01*
X209865390Y-72084743D01*
X209886291Y-72098709D01*
X209900256Y-72119609D01*
X209913634Y-72132987D01*
X209922281Y-72152572D01*
X209937883Y-72175921D01*
X209942221Y-72197731D01*
X209949554Y-72214338D01*
X209955192Y-72262942D01*
X209956000Y-72267000D01*
X209956000Y-72817000D01*
X209955192Y-72821059D01*
X209949554Y-72869661D01*
X209942221Y-72886266D01*
X209937883Y-72908079D01*
X209922280Y-72931429D01*
X209913634Y-72951012D01*
X209900258Y-72964387D01*
X209886291Y-72985291D01*
X209865387Y-72999258D01*
X209852012Y-73012634D01*
X209832429Y-73021280D01*
X209809079Y-73036883D01*
X209787266Y-73041221D01*
X209770661Y-73048554D01*
X209722059Y-73054192D01*
X209718000Y-73055000D01*
X209318000Y-73055000D01*
X209313942Y-73054192D01*
X209265338Y-73048554D01*
X209248731Y-73041221D01*
X209226921Y-73036883D01*
X209203572Y-73021281D01*
X209183987Y-73012634D01*
X209170609Y-72999256D01*
X209149709Y-72985291D01*
X209135743Y-72964390D01*
X209122365Y-72951012D01*
X209113716Y-72931425D01*
X209098117Y-72908079D01*
X209093779Y-72886271D01*
X209086445Y-72869661D01*
X209080805Y-72821047D01*
X209080000Y-72817000D01*
X209080000Y-72267000D01*
X209080804Y-72262954D01*
X209086445Y-72214338D01*
X209093779Y-72197727D01*
X209098117Y-72175921D01*
X209113715Y-72152576D01*
X209122365Y-72132987D01*
X209135745Y-72119606D01*
X209149709Y-72098709D01*
X209170606Y-72084745D01*
X209183987Y-72071365D01*
X209203576Y-72062715D01*
X209226921Y-72047117D01*
X209248727Y-72042779D01*
X209265338Y-72035445D01*
X209313954Y-72029804D01*
X209318000Y-72029000D01*
X209718000Y-72029000D01*
X209722047Y-72029805D01*
G37*
G36*
X214159409Y-72030274D02*
G01*
X214219852Y-72038232D01*
X214235057Y-72045322D01*
X214253646Y-72049020D01*
X214278266Y-72065470D01*
X214303407Y-72077194D01*
X214318702Y-72092489D01*
X214338969Y-72106031D01*
X214352510Y-72126297D01*
X214367805Y-72141592D01*
X214379527Y-72166730D01*
X214395980Y-72191354D01*
X214399677Y-72209944D01*
X214406767Y-72225147D01*
X214414722Y-72285577D01*
X214416000Y-72292000D01*
X214416000Y-72792000D01*
X214414722Y-72798424D01*
X214406767Y-72858852D01*
X214399678Y-72874054D01*
X214395980Y-72892646D01*
X214379525Y-72917271D01*
X214367805Y-72942407D01*
X214352512Y-72957699D01*
X214338969Y-72977969D01*
X214318699Y-72991512D01*
X214303407Y-73006805D01*
X214278271Y-73018525D01*
X214253646Y-73034980D01*
X214235054Y-73038678D01*
X214219852Y-73045767D01*
X214159424Y-73053722D01*
X214153000Y-73055000D01*
X213703000Y-73055000D01*
X213696577Y-73053722D01*
X213636147Y-73045767D01*
X213620944Y-73038677D01*
X213602354Y-73034980D01*
X213577730Y-73018527D01*
X213552592Y-73006805D01*
X213537297Y-72991510D01*
X213517031Y-72977969D01*
X213503489Y-72957702D01*
X213488194Y-72942407D01*
X213476470Y-72917266D01*
X213460020Y-72892646D01*
X213456322Y-72874057D01*
X213449232Y-72858852D01*
X213441274Y-72798409D01*
X213440000Y-72792000D01*
X213440000Y-72292000D01*
X213441274Y-72285592D01*
X213449232Y-72225147D01*
X213456322Y-72209940D01*
X213460020Y-72191354D01*
X213476469Y-72166735D01*
X213488194Y-72141592D01*
X213503491Y-72126294D01*
X213517031Y-72106031D01*
X213537294Y-72092491D01*
X213552592Y-72077194D01*
X213577735Y-72065469D01*
X213602354Y-72049020D01*
X213620940Y-72045322D01*
X213636147Y-72038232D01*
X213696592Y-72030274D01*
X213703000Y-72029000D01*
X214153000Y-72029000D01*
X214159409Y-72030274D01*
G37*
G36*
X215709409Y-72030274D02*
G01*
X215769852Y-72038232D01*
X215785057Y-72045322D01*
X215803646Y-72049020D01*
X215828266Y-72065470D01*
X215853407Y-72077194D01*
X215868702Y-72092489D01*
X215888969Y-72106031D01*
X215902510Y-72126297D01*
X215917805Y-72141592D01*
X215929527Y-72166730D01*
X215945980Y-72191354D01*
X215949677Y-72209944D01*
X215956767Y-72225147D01*
X215964722Y-72285577D01*
X215966000Y-72292000D01*
X215966000Y-72792000D01*
X215964722Y-72798424D01*
X215956767Y-72858852D01*
X215949678Y-72874054D01*
X215945980Y-72892646D01*
X215929525Y-72917271D01*
X215917805Y-72942407D01*
X215902512Y-72957699D01*
X215888969Y-72977969D01*
X215868699Y-72991512D01*
X215853407Y-73006805D01*
X215828271Y-73018525D01*
X215803646Y-73034980D01*
X215785054Y-73038678D01*
X215769852Y-73045767D01*
X215709424Y-73053722D01*
X215703000Y-73055000D01*
X215253000Y-73055000D01*
X215246577Y-73053722D01*
X215186147Y-73045767D01*
X215170944Y-73038677D01*
X215152354Y-73034980D01*
X215127730Y-73018527D01*
X215102592Y-73006805D01*
X215087297Y-72991510D01*
X215067031Y-72977969D01*
X215053489Y-72957702D01*
X215038194Y-72942407D01*
X215026470Y-72917266D01*
X215010020Y-72892646D01*
X215006322Y-72874057D01*
X214999232Y-72858852D01*
X214991274Y-72798409D01*
X214990000Y-72792000D01*
X214990000Y-72292000D01*
X214991274Y-72285592D01*
X214999232Y-72225147D01*
X215006322Y-72209940D01*
X215010020Y-72191354D01*
X215026469Y-72166735D01*
X215038194Y-72141592D01*
X215053491Y-72126294D01*
X215067031Y-72106031D01*
X215087294Y-72092491D01*
X215102592Y-72077194D01*
X215127735Y-72065469D01*
X215152354Y-72049020D01*
X215170940Y-72045322D01*
X215186147Y-72038232D01*
X215246592Y-72030274D01*
X215253000Y-72029000D01*
X215703000Y-72029000D01*
X215709409Y-72030274D01*
G37*
G36*
X196119409Y-69520274D02*
G01*
X196179852Y-69528232D01*
X196195057Y-69535322D01*
X196213646Y-69539020D01*
X196238266Y-69555470D01*
X196263407Y-69567194D01*
X196278702Y-69582489D01*
X196298969Y-69596031D01*
X196312510Y-69616297D01*
X196327805Y-69631592D01*
X196339527Y-69656730D01*
X196355980Y-69681354D01*
X196359677Y-69699944D01*
X196366767Y-69715147D01*
X196374722Y-69775577D01*
X196376000Y-69782000D01*
X196376000Y-70282000D01*
X196374722Y-70288424D01*
X196366767Y-70348852D01*
X196359678Y-70364054D01*
X196355980Y-70382646D01*
X196339525Y-70407271D01*
X196327805Y-70432407D01*
X196312512Y-70447699D01*
X196298969Y-70467969D01*
X196278699Y-70481512D01*
X196263407Y-70496805D01*
X196238271Y-70508525D01*
X196213646Y-70524980D01*
X196195054Y-70528678D01*
X196179852Y-70535767D01*
X196119424Y-70543722D01*
X196113000Y-70545000D01*
X195663000Y-70545000D01*
X195656577Y-70543722D01*
X195596147Y-70535767D01*
X195580944Y-70528677D01*
X195562354Y-70524980D01*
X195537730Y-70508527D01*
X195512592Y-70496805D01*
X195497297Y-70481510D01*
X195477031Y-70467969D01*
X195463489Y-70447702D01*
X195448194Y-70432407D01*
X195436470Y-70407266D01*
X195420020Y-70382646D01*
X195416322Y-70364057D01*
X195409232Y-70348852D01*
X195401274Y-70288409D01*
X195400000Y-70282000D01*
X195400000Y-69782000D01*
X195401274Y-69775592D01*
X195409232Y-69715147D01*
X195416322Y-69699940D01*
X195420020Y-69681354D01*
X195436469Y-69656735D01*
X195448194Y-69631592D01*
X195463491Y-69616294D01*
X195477031Y-69596031D01*
X195497294Y-69582491D01*
X195512592Y-69567194D01*
X195537735Y-69555469D01*
X195562354Y-69539020D01*
X195580940Y-69535322D01*
X195596147Y-69528232D01*
X195656592Y-69520274D01*
X195663000Y-69519000D01*
X196113000Y-69519000D01*
X196119409Y-69520274D01*
G37*
G36*
X197669409Y-69520274D02*
G01*
X197729852Y-69528232D01*
X197745057Y-69535322D01*
X197763646Y-69539020D01*
X197788266Y-69555470D01*
X197813407Y-69567194D01*
X197828702Y-69582489D01*
X197848969Y-69596031D01*
X197862510Y-69616297D01*
X197877805Y-69631592D01*
X197889527Y-69656730D01*
X197905980Y-69681354D01*
X197909677Y-69699944D01*
X197916767Y-69715147D01*
X197924722Y-69775577D01*
X197926000Y-69782000D01*
X197926000Y-70282000D01*
X197924722Y-70288424D01*
X197916767Y-70348852D01*
X197909678Y-70364054D01*
X197905980Y-70382646D01*
X197889525Y-70407271D01*
X197877805Y-70432407D01*
X197862512Y-70447699D01*
X197848969Y-70467969D01*
X197828699Y-70481512D01*
X197813407Y-70496805D01*
X197788271Y-70508525D01*
X197763646Y-70524980D01*
X197745054Y-70528678D01*
X197729852Y-70535767D01*
X197669424Y-70543722D01*
X197663000Y-70545000D01*
X197213000Y-70545000D01*
X197206577Y-70543722D01*
X197146147Y-70535767D01*
X197130944Y-70528677D01*
X197112354Y-70524980D01*
X197087730Y-70508527D01*
X197062592Y-70496805D01*
X197047297Y-70481510D01*
X197027031Y-70467969D01*
X197013489Y-70447702D01*
X196998194Y-70432407D01*
X196986470Y-70407266D01*
X196970020Y-70382646D01*
X196966322Y-70364057D01*
X196959232Y-70348852D01*
X196951274Y-70288409D01*
X196950000Y-70282000D01*
X196950000Y-69782000D01*
X196951274Y-69775592D01*
X196959232Y-69715147D01*
X196966322Y-69699940D01*
X196970020Y-69681354D01*
X196986469Y-69656735D01*
X196998194Y-69631592D01*
X197013491Y-69616294D01*
X197027031Y-69596031D01*
X197047294Y-69582491D01*
X197062592Y-69567194D01*
X197087735Y-69555469D01*
X197112354Y-69539020D01*
X197130940Y-69535322D01*
X197146147Y-69528232D01*
X197206592Y-69520274D01*
X197213000Y-69519000D01*
X197663000Y-69519000D01*
X197669409Y-69520274D01*
G37*
G36*
X200129409Y-69520274D02*
G01*
X200189852Y-69528232D01*
X200205057Y-69535322D01*
X200223646Y-69539020D01*
X200248266Y-69555470D01*
X200273407Y-69567194D01*
X200288702Y-69582489D01*
X200308969Y-69596031D01*
X200322510Y-69616297D01*
X200337805Y-69631592D01*
X200349527Y-69656730D01*
X200365980Y-69681354D01*
X200369677Y-69699944D01*
X200376767Y-69715147D01*
X200384722Y-69775577D01*
X200386000Y-69782000D01*
X200386000Y-70282000D01*
X200384722Y-70288424D01*
X200376767Y-70348852D01*
X200369678Y-70364054D01*
X200365980Y-70382646D01*
X200349525Y-70407271D01*
X200337805Y-70432407D01*
X200322512Y-70447699D01*
X200308969Y-70467969D01*
X200288699Y-70481512D01*
X200273407Y-70496805D01*
X200248271Y-70508525D01*
X200223646Y-70524980D01*
X200205054Y-70528678D01*
X200189852Y-70535767D01*
X200129424Y-70543722D01*
X200123000Y-70545000D01*
X199673000Y-70545000D01*
X199666577Y-70543722D01*
X199606147Y-70535767D01*
X199590944Y-70528677D01*
X199572354Y-70524980D01*
X199547730Y-70508527D01*
X199522592Y-70496805D01*
X199507297Y-70481510D01*
X199487031Y-70467969D01*
X199473489Y-70447702D01*
X199458194Y-70432407D01*
X199446470Y-70407266D01*
X199430020Y-70382646D01*
X199426322Y-70364057D01*
X199419232Y-70348852D01*
X199411274Y-70288409D01*
X199410000Y-70282000D01*
X199410000Y-69782000D01*
X199411274Y-69775592D01*
X199419232Y-69715147D01*
X199426322Y-69699940D01*
X199430020Y-69681354D01*
X199446469Y-69656735D01*
X199458194Y-69631592D01*
X199473491Y-69616294D01*
X199487031Y-69596031D01*
X199507294Y-69582491D01*
X199522592Y-69567194D01*
X199547735Y-69555469D01*
X199572354Y-69539020D01*
X199590940Y-69535322D01*
X199606147Y-69528232D01*
X199666592Y-69520274D01*
X199673000Y-69519000D01*
X200123000Y-69519000D01*
X200129409Y-69520274D01*
G37*
G36*
X201679409Y-69520274D02*
G01*
X201739852Y-69528232D01*
X201755057Y-69535322D01*
X201773646Y-69539020D01*
X201798266Y-69555470D01*
X201823407Y-69567194D01*
X201838702Y-69582489D01*
X201858969Y-69596031D01*
X201872510Y-69616297D01*
X201887805Y-69631592D01*
X201899527Y-69656730D01*
X201915980Y-69681354D01*
X201919677Y-69699944D01*
X201926767Y-69715147D01*
X201934722Y-69775577D01*
X201936000Y-69782000D01*
X201936000Y-70282000D01*
X201934722Y-70288424D01*
X201926767Y-70348852D01*
X201919678Y-70364054D01*
X201915980Y-70382646D01*
X201899525Y-70407271D01*
X201887805Y-70432407D01*
X201872512Y-70447699D01*
X201858969Y-70467969D01*
X201838699Y-70481512D01*
X201823407Y-70496805D01*
X201798271Y-70508525D01*
X201773646Y-70524980D01*
X201755054Y-70528678D01*
X201739852Y-70535767D01*
X201679424Y-70543722D01*
X201673000Y-70545000D01*
X201223000Y-70545000D01*
X201216577Y-70543722D01*
X201156147Y-70535767D01*
X201140944Y-70528677D01*
X201122354Y-70524980D01*
X201097730Y-70508527D01*
X201072592Y-70496805D01*
X201057297Y-70481510D01*
X201037031Y-70467969D01*
X201023489Y-70447702D01*
X201008194Y-70432407D01*
X200996470Y-70407266D01*
X200980020Y-70382646D01*
X200976322Y-70364057D01*
X200969232Y-70348852D01*
X200961274Y-70288409D01*
X200960000Y-70282000D01*
X200960000Y-69782000D01*
X200961274Y-69775592D01*
X200969232Y-69715147D01*
X200976322Y-69699940D01*
X200980020Y-69681354D01*
X200996469Y-69656735D01*
X201008194Y-69631592D01*
X201023491Y-69616294D01*
X201037031Y-69596031D01*
X201057294Y-69582491D01*
X201072592Y-69567194D01*
X201097735Y-69555469D01*
X201122354Y-69539020D01*
X201140940Y-69535322D01*
X201156147Y-69528232D01*
X201216592Y-69520274D01*
X201223000Y-69519000D01*
X201673000Y-69519000D01*
X201679409Y-69520274D01*
G37*
G36*
X204062047Y-69519805D02*
G01*
X204110661Y-69525445D01*
X204127271Y-69532779D01*
X204149079Y-69537117D01*
X204172425Y-69552716D01*
X204192012Y-69561365D01*
X204205390Y-69574743D01*
X204226291Y-69588709D01*
X204240256Y-69609609D01*
X204253634Y-69622987D01*
X204262281Y-69642572D01*
X204277883Y-69665921D01*
X204282221Y-69687731D01*
X204289554Y-69704338D01*
X204295192Y-69752942D01*
X204296000Y-69757000D01*
X204296000Y-70307000D01*
X204295192Y-70311059D01*
X204289554Y-70359661D01*
X204282221Y-70376266D01*
X204277883Y-70398079D01*
X204262280Y-70421429D01*
X204253634Y-70441012D01*
X204240258Y-70454387D01*
X204226291Y-70475291D01*
X204205387Y-70489258D01*
X204192012Y-70502634D01*
X204172429Y-70511280D01*
X204149079Y-70526883D01*
X204127266Y-70531221D01*
X204110661Y-70538554D01*
X204062059Y-70544192D01*
X204058000Y-70545000D01*
X203658000Y-70545000D01*
X203653942Y-70544192D01*
X203605338Y-70538554D01*
X203588731Y-70531221D01*
X203566921Y-70526883D01*
X203543572Y-70511281D01*
X203523987Y-70502634D01*
X203510609Y-70489256D01*
X203489709Y-70475291D01*
X203475743Y-70454390D01*
X203462365Y-70441012D01*
X203453716Y-70421425D01*
X203438117Y-70398079D01*
X203433779Y-70376271D01*
X203426445Y-70359661D01*
X203420805Y-70311047D01*
X203420000Y-70307000D01*
X203420000Y-69757000D01*
X203420804Y-69752954D01*
X203426445Y-69704338D01*
X203433779Y-69687727D01*
X203438117Y-69665921D01*
X203453715Y-69642576D01*
X203462365Y-69622987D01*
X203475745Y-69609606D01*
X203489709Y-69588709D01*
X203510606Y-69574745D01*
X203523987Y-69561365D01*
X203543576Y-69552715D01*
X203566921Y-69537117D01*
X203588727Y-69532779D01*
X203605338Y-69525445D01*
X203653954Y-69519804D01*
X203658000Y-69519000D01*
X204058000Y-69519000D01*
X204062047Y-69519805D01*
G37*
G36*
X205712047Y-69519805D02*
G01*
X205760661Y-69525445D01*
X205777271Y-69532779D01*
X205799079Y-69537117D01*
X205822425Y-69552716D01*
X205842012Y-69561365D01*
X205855390Y-69574743D01*
X205876291Y-69588709D01*
X205890256Y-69609609D01*
X205903634Y-69622987D01*
X205912281Y-69642572D01*
X205927883Y-69665921D01*
X205932221Y-69687731D01*
X205939554Y-69704338D01*
X205945192Y-69752942D01*
X205946000Y-69757000D01*
X205946000Y-70307000D01*
X205945192Y-70311059D01*
X205939554Y-70359661D01*
X205932221Y-70376266D01*
X205927883Y-70398079D01*
X205912280Y-70421429D01*
X205903634Y-70441012D01*
X205890258Y-70454387D01*
X205876291Y-70475291D01*
X205855387Y-70489258D01*
X205842012Y-70502634D01*
X205822429Y-70511280D01*
X205799079Y-70526883D01*
X205777266Y-70531221D01*
X205760661Y-70538554D01*
X205712059Y-70544192D01*
X205708000Y-70545000D01*
X205308000Y-70545000D01*
X205303942Y-70544192D01*
X205255338Y-70538554D01*
X205238731Y-70531221D01*
X205216921Y-70526883D01*
X205193572Y-70511281D01*
X205173987Y-70502634D01*
X205160609Y-70489256D01*
X205139709Y-70475291D01*
X205125743Y-70454390D01*
X205112365Y-70441012D01*
X205103716Y-70421425D01*
X205088117Y-70398079D01*
X205083779Y-70376271D01*
X205076445Y-70359661D01*
X205070805Y-70311047D01*
X205070000Y-70307000D01*
X205070000Y-69757000D01*
X205070804Y-69752954D01*
X205076445Y-69704338D01*
X205083779Y-69687727D01*
X205088117Y-69665921D01*
X205103715Y-69642576D01*
X205112365Y-69622987D01*
X205125745Y-69609606D01*
X205139709Y-69588709D01*
X205160606Y-69574745D01*
X205173987Y-69561365D01*
X205193576Y-69552715D01*
X205216921Y-69537117D01*
X205238727Y-69532779D01*
X205255338Y-69525445D01*
X205303954Y-69519804D01*
X205308000Y-69519000D01*
X205708000Y-69519000D01*
X205712047Y-69519805D01*
G37*
G36*
X208072047Y-69519805D02*
G01*
X208120661Y-69525445D01*
X208137271Y-69532779D01*
X208159079Y-69537117D01*
X208182425Y-69552716D01*
X208202012Y-69561365D01*
X208215390Y-69574743D01*
X208236291Y-69588709D01*
X208250256Y-69609609D01*
X208263634Y-69622987D01*
X208272281Y-69642572D01*
X208287883Y-69665921D01*
X208292221Y-69687731D01*
X208299554Y-69704338D01*
X208305192Y-69752942D01*
X208306000Y-69757000D01*
X208306000Y-70307000D01*
X208305192Y-70311059D01*
X208299554Y-70359661D01*
X208292221Y-70376266D01*
X208287883Y-70398079D01*
X208272280Y-70421429D01*
X208263634Y-70441012D01*
X208250258Y-70454387D01*
X208236291Y-70475291D01*
X208215387Y-70489258D01*
X208202012Y-70502634D01*
X208182429Y-70511280D01*
X208159079Y-70526883D01*
X208137266Y-70531221D01*
X208120661Y-70538554D01*
X208072059Y-70544192D01*
X208068000Y-70545000D01*
X207668000Y-70545000D01*
X207663942Y-70544192D01*
X207615338Y-70538554D01*
X207598731Y-70531221D01*
X207576921Y-70526883D01*
X207553572Y-70511281D01*
X207533987Y-70502634D01*
X207520609Y-70489256D01*
X207499709Y-70475291D01*
X207485743Y-70454390D01*
X207472365Y-70441012D01*
X207463716Y-70421425D01*
X207448117Y-70398079D01*
X207443779Y-70376271D01*
X207436445Y-70359661D01*
X207430805Y-70311047D01*
X207430000Y-70307000D01*
X207430000Y-69757000D01*
X207430804Y-69752954D01*
X207436445Y-69704338D01*
X207443779Y-69687727D01*
X207448117Y-69665921D01*
X207463715Y-69642576D01*
X207472365Y-69622987D01*
X207485745Y-69609606D01*
X207499709Y-69588709D01*
X207520606Y-69574745D01*
X207533987Y-69561365D01*
X207553576Y-69552715D01*
X207576921Y-69537117D01*
X207598727Y-69532779D01*
X207615338Y-69525445D01*
X207663954Y-69519804D01*
X207668000Y-69519000D01*
X208068000Y-69519000D01*
X208072047Y-69519805D01*
G37*
G36*
X209722047Y-69519805D02*
G01*
X209770661Y-69525445D01*
X209787271Y-69532779D01*
X209809079Y-69537117D01*
X209832425Y-69552716D01*
X209852012Y-69561365D01*
X209865390Y-69574743D01*
X209886291Y-69588709D01*
X209900256Y-69609609D01*
X209913634Y-69622987D01*
X209922281Y-69642572D01*
X209937883Y-69665921D01*
X209942221Y-69687731D01*
X209949554Y-69704338D01*
X209955192Y-69752942D01*
X209956000Y-69757000D01*
X209956000Y-70307000D01*
X209955192Y-70311059D01*
X209949554Y-70359661D01*
X209942221Y-70376266D01*
X209937883Y-70398079D01*
X209922280Y-70421429D01*
X209913634Y-70441012D01*
X209900258Y-70454387D01*
X209886291Y-70475291D01*
X209865387Y-70489258D01*
X209852012Y-70502634D01*
X209832429Y-70511280D01*
X209809079Y-70526883D01*
X209787266Y-70531221D01*
X209770661Y-70538554D01*
X209722059Y-70544192D01*
X209718000Y-70545000D01*
X209318000Y-70545000D01*
X209313942Y-70544192D01*
X209265338Y-70538554D01*
X209248731Y-70531221D01*
X209226921Y-70526883D01*
X209203572Y-70511281D01*
X209183987Y-70502634D01*
X209170609Y-70489256D01*
X209149709Y-70475291D01*
X209135743Y-70454390D01*
X209122365Y-70441012D01*
X209113716Y-70421425D01*
X209098117Y-70398079D01*
X209093779Y-70376271D01*
X209086445Y-70359661D01*
X209080805Y-70311047D01*
X209080000Y-70307000D01*
X209080000Y-69757000D01*
X209080804Y-69752954D01*
X209086445Y-69704338D01*
X209093779Y-69687727D01*
X209098117Y-69665921D01*
X209113715Y-69642576D01*
X209122365Y-69622987D01*
X209135745Y-69609606D01*
X209149709Y-69588709D01*
X209170606Y-69574745D01*
X209183987Y-69561365D01*
X209203576Y-69552715D01*
X209226921Y-69537117D01*
X209248727Y-69532779D01*
X209265338Y-69525445D01*
X209313954Y-69519804D01*
X209318000Y-69519000D01*
X209718000Y-69519000D01*
X209722047Y-69519805D01*
G37*
G36*
X214159409Y-69520274D02*
G01*
X214219852Y-69528232D01*
X214235057Y-69535322D01*
X214253646Y-69539020D01*
X214278266Y-69555470D01*
X214303407Y-69567194D01*
X214318702Y-69582489D01*
X214338969Y-69596031D01*
X214352510Y-69616297D01*
X214367805Y-69631592D01*
X214379527Y-69656730D01*
X214395980Y-69681354D01*
X214399677Y-69699944D01*
X214406767Y-69715147D01*
X214414722Y-69775577D01*
X214416000Y-69782000D01*
X214416000Y-70282000D01*
X214414722Y-70288424D01*
X214406767Y-70348852D01*
X214399678Y-70364054D01*
X214395980Y-70382646D01*
X214379525Y-70407271D01*
X214367805Y-70432407D01*
X214352512Y-70447699D01*
X214338969Y-70467969D01*
X214318699Y-70481512D01*
X214303407Y-70496805D01*
X214278271Y-70508525D01*
X214253646Y-70524980D01*
X214235054Y-70528678D01*
X214219852Y-70535767D01*
X214159424Y-70543722D01*
X214153000Y-70545000D01*
X213703000Y-70545000D01*
X213696577Y-70543722D01*
X213636147Y-70535767D01*
X213620944Y-70528677D01*
X213602354Y-70524980D01*
X213577730Y-70508527D01*
X213552592Y-70496805D01*
X213537297Y-70481510D01*
X213517031Y-70467969D01*
X213503489Y-70447702D01*
X213488194Y-70432407D01*
X213476470Y-70407266D01*
X213460020Y-70382646D01*
X213456322Y-70364057D01*
X213449232Y-70348852D01*
X213441274Y-70288409D01*
X213440000Y-70282000D01*
X213440000Y-69782000D01*
X213441274Y-69775592D01*
X213449232Y-69715147D01*
X213456322Y-69699940D01*
X213460020Y-69681354D01*
X213476469Y-69656735D01*
X213488194Y-69631592D01*
X213503491Y-69616294D01*
X213517031Y-69596031D01*
X213537294Y-69582491D01*
X213552592Y-69567194D01*
X213577735Y-69555469D01*
X213602354Y-69539020D01*
X213620940Y-69535322D01*
X213636147Y-69528232D01*
X213696592Y-69520274D01*
X213703000Y-69519000D01*
X214153000Y-69519000D01*
X214159409Y-69520274D01*
G37*
G36*
X215709409Y-69520274D02*
G01*
X215769852Y-69528232D01*
X215785057Y-69535322D01*
X215803646Y-69539020D01*
X215828266Y-69555470D01*
X215853407Y-69567194D01*
X215868702Y-69582489D01*
X215888969Y-69596031D01*
X215902510Y-69616297D01*
X215917805Y-69631592D01*
X215929527Y-69656730D01*
X215945980Y-69681354D01*
X215949677Y-69699944D01*
X215956767Y-69715147D01*
X215964722Y-69775577D01*
X215966000Y-69782000D01*
X215966000Y-70282000D01*
X215964722Y-70288424D01*
X215956767Y-70348852D01*
X215949678Y-70364054D01*
X215945980Y-70382646D01*
X215929525Y-70407271D01*
X215917805Y-70432407D01*
X215902512Y-70447699D01*
X215888969Y-70467969D01*
X215868699Y-70481512D01*
X215853407Y-70496805D01*
X215828271Y-70508525D01*
X215803646Y-70524980D01*
X215785054Y-70528678D01*
X215769852Y-70535767D01*
X215709424Y-70543722D01*
X215703000Y-70545000D01*
X215253000Y-70545000D01*
X215246577Y-70543722D01*
X215186147Y-70535767D01*
X215170944Y-70528677D01*
X215152354Y-70524980D01*
X215127730Y-70508527D01*
X215102592Y-70496805D01*
X215087297Y-70481510D01*
X215067031Y-70467969D01*
X215053489Y-70447702D01*
X215038194Y-70432407D01*
X215026470Y-70407266D01*
X215010020Y-70382646D01*
X215006322Y-70364057D01*
X214999232Y-70348852D01*
X214991274Y-70288409D01*
X214990000Y-70282000D01*
X214990000Y-69782000D01*
X214991274Y-69775592D01*
X214999232Y-69715147D01*
X215006322Y-69699940D01*
X215010020Y-69681354D01*
X215026469Y-69656735D01*
X215038194Y-69631592D01*
X215053491Y-69616294D01*
X215067031Y-69596031D01*
X215087294Y-69582491D01*
X215102592Y-69567194D01*
X215127735Y-69555469D01*
X215152354Y-69539020D01*
X215170940Y-69535322D01*
X215186147Y-69528232D01*
X215246592Y-69520274D01*
X215253000Y-69519000D01*
X215703000Y-69519000D01*
X215709409Y-69520274D01*
G37*
G36*
X196119409Y-67010274D02*
G01*
X196179852Y-67018232D01*
X196195057Y-67025322D01*
X196213646Y-67029020D01*
X196238266Y-67045470D01*
X196263407Y-67057194D01*
X196278702Y-67072489D01*
X196298969Y-67086031D01*
X196312510Y-67106297D01*
X196327805Y-67121592D01*
X196339527Y-67146730D01*
X196355980Y-67171354D01*
X196359677Y-67189944D01*
X196366767Y-67205147D01*
X196374722Y-67265577D01*
X196376000Y-67272000D01*
X196376000Y-67772000D01*
X196374722Y-67778424D01*
X196366767Y-67838852D01*
X196359678Y-67854054D01*
X196355980Y-67872646D01*
X196339525Y-67897271D01*
X196327805Y-67922407D01*
X196312512Y-67937699D01*
X196298969Y-67957969D01*
X196278699Y-67971512D01*
X196263407Y-67986805D01*
X196238271Y-67998525D01*
X196213646Y-68014980D01*
X196195054Y-68018678D01*
X196179852Y-68025767D01*
X196119424Y-68033722D01*
X196113000Y-68035000D01*
X195663000Y-68035000D01*
X195656577Y-68033722D01*
X195596147Y-68025767D01*
X195580944Y-68018677D01*
X195562354Y-68014980D01*
X195537730Y-67998527D01*
X195512592Y-67986805D01*
X195497297Y-67971510D01*
X195477031Y-67957969D01*
X195463489Y-67937702D01*
X195448194Y-67922407D01*
X195436470Y-67897266D01*
X195420020Y-67872646D01*
X195416322Y-67854057D01*
X195409232Y-67838852D01*
X195401274Y-67778409D01*
X195400000Y-67772000D01*
X195400000Y-67272000D01*
X195401274Y-67265592D01*
X195409232Y-67205147D01*
X195416322Y-67189940D01*
X195420020Y-67171354D01*
X195436469Y-67146735D01*
X195448194Y-67121592D01*
X195463491Y-67106294D01*
X195477031Y-67086031D01*
X195497294Y-67072491D01*
X195512592Y-67057194D01*
X195537735Y-67045469D01*
X195562354Y-67029020D01*
X195580940Y-67025322D01*
X195596147Y-67018232D01*
X195656592Y-67010274D01*
X195663000Y-67009000D01*
X196113000Y-67009000D01*
X196119409Y-67010274D01*
G37*
G36*
X197669409Y-67010274D02*
G01*
X197729852Y-67018232D01*
X197745057Y-67025322D01*
X197763646Y-67029020D01*
X197788266Y-67045470D01*
X197813407Y-67057194D01*
X197828702Y-67072489D01*
X197848969Y-67086031D01*
X197862510Y-67106297D01*
X197877805Y-67121592D01*
X197889527Y-67146730D01*
X197905980Y-67171354D01*
X197909677Y-67189944D01*
X197916767Y-67205147D01*
X197924722Y-67265577D01*
X197926000Y-67272000D01*
X197926000Y-67772000D01*
X197924722Y-67778424D01*
X197916767Y-67838852D01*
X197909678Y-67854054D01*
X197905980Y-67872646D01*
X197889525Y-67897271D01*
X197877805Y-67922407D01*
X197862512Y-67937699D01*
X197848969Y-67957969D01*
X197828699Y-67971512D01*
X197813407Y-67986805D01*
X197788271Y-67998525D01*
X197763646Y-68014980D01*
X197745054Y-68018678D01*
X197729852Y-68025767D01*
X197669424Y-68033722D01*
X197663000Y-68035000D01*
X197213000Y-68035000D01*
X197206577Y-68033722D01*
X197146147Y-68025767D01*
X197130944Y-68018677D01*
X197112354Y-68014980D01*
X197087730Y-67998527D01*
X197062592Y-67986805D01*
X197047297Y-67971510D01*
X197027031Y-67957969D01*
X197013489Y-67937702D01*
X196998194Y-67922407D01*
X196986470Y-67897266D01*
X196970020Y-67872646D01*
X196966322Y-67854057D01*
X196959232Y-67838852D01*
X196951274Y-67778409D01*
X196950000Y-67772000D01*
X196950000Y-67272000D01*
X196951274Y-67265592D01*
X196959232Y-67205147D01*
X196966322Y-67189940D01*
X196970020Y-67171354D01*
X196986469Y-67146735D01*
X196998194Y-67121592D01*
X197013491Y-67106294D01*
X197027031Y-67086031D01*
X197047294Y-67072491D01*
X197062592Y-67057194D01*
X197087735Y-67045469D01*
X197112354Y-67029020D01*
X197130940Y-67025322D01*
X197146147Y-67018232D01*
X197206592Y-67010274D01*
X197213000Y-67009000D01*
X197663000Y-67009000D01*
X197669409Y-67010274D01*
G37*
G36*
X200129409Y-67010274D02*
G01*
X200189852Y-67018232D01*
X200205057Y-67025322D01*
X200223646Y-67029020D01*
X200248266Y-67045470D01*
X200273407Y-67057194D01*
X200288702Y-67072489D01*
X200308969Y-67086031D01*
X200322510Y-67106297D01*
X200337805Y-67121592D01*
X200349527Y-67146730D01*
X200365980Y-67171354D01*
X200369677Y-67189944D01*
X200376767Y-67205147D01*
X200384722Y-67265577D01*
X200386000Y-67272000D01*
X200386000Y-67772000D01*
X200384722Y-67778424D01*
X200376767Y-67838852D01*
X200369678Y-67854054D01*
X200365980Y-67872646D01*
X200349525Y-67897271D01*
X200337805Y-67922407D01*
X200322512Y-67937699D01*
X200308969Y-67957969D01*
X200288699Y-67971512D01*
X200273407Y-67986805D01*
X200248271Y-67998525D01*
X200223646Y-68014980D01*
X200205054Y-68018678D01*
X200189852Y-68025767D01*
X200129424Y-68033722D01*
X200123000Y-68035000D01*
X199673000Y-68035000D01*
X199666577Y-68033722D01*
X199606147Y-68025767D01*
X199590944Y-68018677D01*
X199572354Y-68014980D01*
X199547730Y-67998527D01*
X199522592Y-67986805D01*
X199507297Y-67971510D01*
X199487031Y-67957969D01*
X199473489Y-67937702D01*
X199458194Y-67922407D01*
X199446470Y-67897266D01*
X199430020Y-67872646D01*
X199426322Y-67854057D01*
X199419232Y-67838852D01*
X199411274Y-67778409D01*
X199410000Y-67772000D01*
X199410000Y-67272000D01*
X199411274Y-67265592D01*
X199419232Y-67205147D01*
X199426322Y-67189940D01*
X199430020Y-67171354D01*
X199446469Y-67146735D01*
X199458194Y-67121592D01*
X199473491Y-67106294D01*
X199487031Y-67086031D01*
X199507294Y-67072491D01*
X199522592Y-67057194D01*
X199547735Y-67045469D01*
X199572354Y-67029020D01*
X199590940Y-67025322D01*
X199606147Y-67018232D01*
X199666592Y-67010274D01*
X199673000Y-67009000D01*
X200123000Y-67009000D01*
X200129409Y-67010274D01*
G37*
G36*
X201679409Y-67010274D02*
G01*
X201739852Y-67018232D01*
X201755057Y-67025322D01*
X201773646Y-67029020D01*
X201798266Y-67045470D01*
X201823407Y-67057194D01*
X201838702Y-67072489D01*
X201858969Y-67086031D01*
X201872510Y-67106297D01*
X201887805Y-67121592D01*
X201899527Y-67146730D01*
X201915980Y-67171354D01*
X201919677Y-67189944D01*
X201926767Y-67205147D01*
X201934722Y-67265577D01*
X201936000Y-67272000D01*
X201936000Y-67772000D01*
X201934722Y-67778424D01*
X201926767Y-67838852D01*
X201919678Y-67854054D01*
X201915980Y-67872646D01*
X201899525Y-67897271D01*
X201887805Y-67922407D01*
X201872512Y-67937699D01*
X201858969Y-67957969D01*
X201838699Y-67971512D01*
X201823407Y-67986805D01*
X201798271Y-67998525D01*
X201773646Y-68014980D01*
X201755054Y-68018678D01*
X201739852Y-68025767D01*
X201679424Y-68033722D01*
X201673000Y-68035000D01*
X201223000Y-68035000D01*
X201216577Y-68033722D01*
X201156147Y-68025767D01*
X201140944Y-68018677D01*
X201122354Y-68014980D01*
X201097730Y-67998527D01*
X201072592Y-67986805D01*
X201057297Y-67971510D01*
X201037031Y-67957969D01*
X201023489Y-67937702D01*
X201008194Y-67922407D01*
X200996470Y-67897266D01*
X200980020Y-67872646D01*
X200976322Y-67854057D01*
X200969232Y-67838852D01*
X200961274Y-67778409D01*
X200960000Y-67772000D01*
X200960000Y-67272000D01*
X200961274Y-67265592D01*
X200969232Y-67205147D01*
X200976322Y-67189940D01*
X200980020Y-67171354D01*
X200996469Y-67146735D01*
X201008194Y-67121592D01*
X201023491Y-67106294D01*
X201037031Y-67086031D01*
X201057294Y-67072491D01*
X201072592Y-67057194D01*
X201097735Y-67045469D01*
X201122354Y-67029020D01*
X201140940Y-67025322D01*
X201156147Y-67018232D01*
X201216592Y-67010274D01*
X201223000Y-67009000D01*
X201673000Y-67009000D01*
X201679409Y-67010274D01*
G37*
G36*
X204139409Y-67010274D02*
G01*
X204199852Y-67018232D01*
X204215057Y-67025322D01*
X204233646Y-67029020D01*
X204258266Y-67045470D01*
X204283407Y-67057194D01*
X204298702Y-67072489D01*
X204318969Y-67086031D01*
X204332510Y-67106297D01*
X204347805Y-67121592D01*
X204359527Y-67146730D01*
X204375980Y-67171354D01*
X204379677Y-67189944D01*
X204386767Y-67205147D01*
X204394722Y-67265577D01*
X204396000Y-67272000D01*
X204396000Y-67772000D01*
X204394722Y-67778424D01*
X204386767Y-67838852D01*
X204379678Y-67854054D01*
X204375980Y-67872646D01*
X204359525Y-67897271D01*
X204347805Y-67922407D01*
X204332512Y-67937699D01*
X204318969Y-67957969D01*
X204298699Y-67971512D01*
X204283407Y-67986805D01*
X204258271Y-67998525D01*
X204233646Y-68014980D01*
X204215054Y-68018678D01*
X204199852Y-68025767D01*
X204139424Y-68033722D01*
X204133000Y-68035000D01*
X203683000Y-68035000D01*
X203676577Y-68033722D01*
X203616147Y-68025767D01*
X203600944Y-68018677D01*
X203582354Y-68014980D01*
X203557730Y-67998527D01*
X203532592Y-67986805D01*
X203517297Y-67971510D01*
X203497031Y-67957969D01*
X203483489Y-67937702D01*
X203468194Y-67922407D01*
X203456470Y-67897266D01*
X203440020Y-67872646D01*
X203436322Y-67854057D01*
X203429232Y-67838852D01*
X203421274Y-67778409D01*
X203420000Y-67772000D01*
X203420000Y-67272000D01*
X203421274Y-67265592D01*
X203429232Y-67205147D01*
X203436322Y-67189940D01*
X203440020Y-67171354D01*
X203456469Y-67146735D01*
X203468194Y-67121592D01*
X203483491Y-67106294D01*
X203497031Y-67086031D01*
X203517294Y-67072491D01*
X203532592Y-67057194D01*
X203557735Y-67045469D01*
X203582354Y-67029020D01*
X203600940Y-67025322D01*
X203616147Y-67018232D01*
X203676592Y-67010274D01*
X203683000Y-67009000D01*
X204133000Y-67009000D01*
X204139409Y-67010274D01*
G37*
G36*
X205689409Y-67010274D02*
G01*
X205749852Y-67018232D01*
X205765057Y-67025322D01*
X205783646Y-67029020D01*
X205808266Y-67045470D01*
X205833407Y-67057194D01*
X205848702Y-67072489D01*
X205868969Y-67086031D01*
X205882510Y-67106297D01*
X205897805Y-67121592D01*
X205909527Y-67146730D01*
X205925980Y-67171354D01*
X205929677Y-67189944D01*
X205936767Y-67205147D01*
X205944722Y-67265577D01*
X205946000Y-67272000D01*
X205946000Y-67772000D01*
X205944722Y-67778424D01*
X205936767Y-67838852D01*
X205929678Y-67854054D01*
X205925980Y-67872646D01*
X205909525Y-67897271D01*
X205897805Y-67922407D01*
X205882512Y-67937699D01*
X205868969Y-67957969D01*
X205848699Y-67971512D01*
X205833407Y-67986805D01*
X205808271Y-67998525D01*
X205783646Y-68014980D01*
X205765054Y-68018678D01*
X205749852Y-68025767D01*
X205689424Y-68033722D01*
X205683000Y-68035000D01*
X205233000Y-68035000D01*
X205226577Y-68033722D01*
X205166147Y-68025767D01*
X205150944Y-68018677D01*
X205132354Y-68014980D01*
X205107730Y-67998527D01*
X205082592Y-67986805D01*
X205067297Y-67971510D01*
X205047031Y-67957969D01*
X205033489Y-67937702D01*
X205018194Y-67922407D01*
X205006470Y-67897266D01*
X204990020Y-67872646D01*
X204986322Y-67854057D01*
X204979232Y-67838852D01*
X204971274Y-67778409D01*
X204970000Y-67772000D01*
X204970000Y-67272000D01*
X204971274Y-67265592D01*
X204979232Y-67205147D01*
X204986322Y-67189940D01*
X204990020Y-67171354D01*
X205006469Y-67146735D01*
X205018194Y-67121592D01*
X205033491Y-67106294D01*
X205047031Y-67086031D01*
X205067294Y-67072491D01*
X205082592Y-67057194D01*
X205107735Y-67045469D01*
X205132354Y-67029020D01*
X205150940Y-67025322D01*
X205166147Y-67018232D01*
X205226592Y-67010274D01*
X205233000Y-67009000D01*
X205683000Y-67009000D01*
X205689409Y-67010274D01*
G37*
G36*
X208072047Y-67009805D02*
G01*
X208120661Y-67015445D01*
X208137271Y-67022779D01*
X208159079Y-67027117D01*
X208182425Y-67042716D01*
X208202012Y-67051365D01*
X208215390Y-67064743D01*
X208236291Y-67078709D01*
X208250256Y-67099609D01*
X208263634Y-67112987D01*
X208272281Y-67132572D01*
X208287883Y-67155921D01*
X208292221Y-67177731D01*
X208299554Y-67194338D01*
X208305192Y-67242942D01*
X208306000Y-67247000D01*
X208306000Y-67797000D01*
X208305192Y-67801059D01*
X208299554Y-67849661D01*
X208292221Y-67866266D01*
X208287883Y-67888079D01*
X208272280Y-67911429D01*
X208263634Y-67931012D01*
X208250258Y-67944387D01*
X208236291Y-67965291D01*
X208215387Y-67979258D01*
X208202012Y-67992634D01*
X208182429Y-68001280D01*
X208159079Y-68016883D01*
X208137266Y-68021221D01*
X208120661Y-68028554D01*
X208072059Y-68034192D01*
X208068000Y-68035000D01*
X207668000Y-68035000D01*
X207663942Y-68034192D01*
X207615338Y-68028554D01*
X207598731Y-68021221D01*
X207576921Y-68016883D01*
X207553572Y-68001281D01*
X207533987Y-67992634D01*
X207520609Y-67979256D01*
X207499709Y-67965291D01*
X207485743Y-67944390D01*
X207472365Y-67931012D01*
X207463716Y-67911425D01*
X207448117Y-67888079D01*
X207443779Y-67866271D01*
X207436445Y-67849661D01*
X207430805Y-67801047D01*
X207430000Y-67797000D01*
X207430000Y-67247000D01*
X207430804Y-67242954D01*
X207436445Y-67194338D01*
X207443779Y-67177727D01*
X207448117Y-67155921D01*
X207463715Y-67132576D01*
X207472365Y-67112987D01*
X207485745Y-67099606D01*
X207499709Y-67078709D01*
X207520606Y-67064745D01*
X207533987Y-67051365D01*
X207553576Y-67042715D01*
X207576921Y-67027117D01*
X207598727Y-67022779D01*
X207615338Y-67015445D01*
X207663954Y-67009804D01*
X207668000Y-67009000D01*
X208068000Y-67009000D01*
X208072047Y-67009805D01*
G37*
G36*
X209722047Y-67009805D02*
G01*
X209770661Y-67015445D01*
X209787271Y-67022779D01*
X209809079Y-67027117D01*
X209832425Y-67042716D01*
X209852012Y-67051365D01*
X209865390Y-67064743D01*
X209886291Y-67078709D01*
X209900256Y-67099609D01*
X209913634Y-67112987D01*
X209922281Y-67132572D01*
X209937883Y-67155921D01*
X209942221Y-67177731D01*
X209949554Y-67194338D01*
X209955192Y-67242942D01*
X209956000Y-67247000D01*
X209956000Y-67797000D01*
X209955192Y-67801059D01*
X209949554Y-67849661D01*
X209942221Y-67866266D01*
X209937883Y-67888079D01*
X209922280Y-67911429D01*
X209913634Y-67931012D01*
X209900258Y-67944387D01*
X209886291Y-67965291D01*
X209865387Y-67979258D01*
X209852012Y-67992634D01*
X209832429Y-68001280D01*
X209809079Y-68016883D01*
X209787266Y-68021221D01*
X209770661Y-68028554D01*
X209722059Y-68034192D01*
X209718000Y-68035000D01*
X209318000Y-68035000D01*
X209313942Y-68034192D01*
X209265338Y-68028554D01*
X209248731Y-68021221D01*
X209226921Y-68016883D01*
X209203572Y-68001281D01*
X209183987Y-67992634D01*
X209170609Y-67979256D01*
X209149709Y-67965291D01*
X209135743Y-67944390D01*
X209122365Y-67931012D01*
X209113716Y-67911425D01*
X209098117Y-67888079D01*
X209093779Y-67866271D01*
X209086445Y-67849661D01*
X209080805Y-67801047D01*
X209080000Y-67797000D01*
X209080000Y-67247000D01*
X209080804Y-67242954D01*
X209086445Y-67194338D01*
X209093779Y-67177727D01*
X209098117Y-67155921D01*
X209113715Y-67132576D01*
X209122365Y-67112987D01*
X209135745Y-67099606D01*
X209149709Y-67078709D01*
X209170606Y-67064745D01*
X209183987Y-67051365D01*
X209203576Y-67042715D01*
X209226921Y-67027117D01*
X209248727Y-67022779D01*
X209265338Y-67015445D01*
X209313954Y-67009804D01*
X209318000Y-67009000D01*
X209718000Y-67009000D01*
X209722047Y-67009805D01*
G37*
G36*
X214159409Y-67010274D02*
G01*
X214219852Y-67018232D01*
X214235057Y-67025322D01*
X214253646Y-67029020D01*
X214278266Y-67045470D01*
X214303407Y-67057194D01*
X214318702Y-67072489D01*
X214338969Y-67086031D01*
X214352510Y-67106297D01*
X214367805Y-67121592D01*
X214379527Y-67146730D01*
X214395980Y-67171354D01*
X214399677Y-67189944D01*
X214406767Y-67205147D01*
X214414722Y-67265577D01*
X214416000Y-67272000D01*
X214416000Y-67772000D01*
X214414722Y-67778424D01*
X214406767Y-67838852D01*
X214399678Y-67854054D01*
X214395980Y-67872646D01*
X214379525Y-67897271D01*
X214367805Y-67922407D01*
X214352512Y-67937699D01*
X214338969Y-67957969D01*
X214318699Y-67971512D01*
X214303407Y-67986805D01*
X214278271Y-67998525D01*
X214253646Y-68014980D01*
X214235054Y-68018678D01*
X214219852Y-68025767D01*
X214159424Y-68033722D01*
X214153000Y-68035000D01*
X213703000Y-68035000D01*
X213696577Y-68033722D01*
X213636147Y-68025767D01*
X213620944Y-68018677D01*
X213602354Y-68014980D01*
X213577730Y-67998527D01*
X213552592Y-67986805D01*
X213537297Y-67971510D01*
X213517031Y-67957969D01*
X213503489Y-67937702D01*
X213488194Y-67922407D01*
X213476470Y-67897266D01*
X213460020Y-67872646D01*
X213456322Y-67854057D01*
X213449232Y-67838852D01*
X213441274Y-67778409D01*
X213440000Y-67772000D01*
X213440000Y-67272000D01*
X213441274Y-67265592D01*
X213449232Y-67205147D01*
X213456322Y-67189940D01*
X213460020Y-67171354D01*
X213476469Y-67146735D01*
X213488194Y-67121592D01*
X213503491Y-67106294D01*
X213517031Y-67086031D01*
X213537294Y-67072491D01*
X213552592Y-67057194D01*
X213577735Y-67045469D01*
X213602354Y-67029020D01*
X213620940Y-67025322D01*
X213636147Y-67018232D01*
X213696592Y-67010274D01*
X213703000Y-67009000D01*
X214153000Y-67009000D01*
X214159409Y-67010274D01*
G37*
G36*
X215709409Y-67010274D02*
G01*
X215769852Y-67018232D01*
X215785057Y-67025322D01*
X215803646Y-67029020D01*
X215828266Y-67045470D01*
X215853407Y-67057194D01*
X215868702Y-67072489D01*
X215888969Y-67086031D01*
X215902510Y-67106297D01*
X215917805Y-67121592D01*
X215929527Y-67146730D01*
X215945980Y-67171354D01*
X215949677Y-67189944D01*
X215956767Y-67205147D01*
X215964722Y-67265577D01*
X215966000Y-67272000D01*
X215966000Y-67772000D01*
X215964722Y-67778424D01*
X215956767Y-67838852D01*
X215949678Y-67854054D01*
X215945980Y-67872646D01*
X215929525Y-67897271D01*
X215917805Y-67922407D01*
X215902512Y-67937699D01*
X215888969Y-67957969D01*
X215868699Y-67971512D01*
X215853407Y-67986805D01*
X215828271Y-67998525D01*
X215803646Y-68014980D01*
X215785054Y-68018678D01*
X215769852Y-68025767D01*
X215709424Y-68033722D01*
X215703000Y-68035000D01*
X215253000Y-68035000D01*
X215246577Y-68033722D01*
X215186147Y-68025767D01*
X215170944Y-68018677D01*
X215152354Y-68014980D01*
X215127730Y-67998527D01*
X215102592Y-67986805D01*
X215087297Y-67971510D01*
X215067031Y-67957969D01*
X215053489Y-67937702D01*
X215038194Y-67922407D01*
X215026470Y-67897266D01*
X215010020Y-67872646D01*
X215006322Y-67854057D01*
X214999232Y-67838852D01*
X214991274Y-67778409D01*
X214990000Y-67772000D01*
X214990000Y-67272000D01*
X214991274Y-67265592D01*
X214999232Y-67205147D01*
X215006322Y-67189940D01*
X215010020Y-67171354D01*
X215026469Y-67146735D01*
X215038194Y-67121592D01*
X215053491Y-67106294D01*
X215067031Y-67086031D01*
X215087294Y-67072491D01*
X215102592Y-67057194D01*
X215127735Y-67045469D01*
X215152354Y-67029020D01*
X215170940Y-67025322D01*
X215186147Y-67018232D01*
X215246592Y-67010274D01*
X215253000Y-67009000D01*
X215703000Y-67009000D01*
X215709409Y-67010274D01*
G37*
G36*
X220169409Y-67010274D02*
G01*
X220229852Y-67018232D01*
X220245057Y-67025322D01*
X220263646Y-67029020D01*
X220288266Y-67045470D01*
X220313407Y-67057194D01*
X220328702Y-67072489D01*
X220348969Y-67086031D01*
X220362510Y-67106297D01*
X220377805Y-67121592D01*
X220389527Y-67146730D01*
X220405980Y-67171354D01*
X220409677Y-67189944D01*
X220416767Y-67205147D01*
X220424722Y-67265577D01*
X220426000Y-67272000D01*
X220426000Y-67772000D01*
X220424722Y-67778424D01*
X220416767Y-67838852D01*
X220409678Y-67854054D01*
X220405980Y-67872646D01*
X220389525Y-67897271D01*
X220377805Y-67922407D01*
X220362512Y-67937699D01*
X220348969Y-67957969D01*
X220328699Y-67971512D01*
X220313407Y-67986805D01*
X220288271Y-67998525D01*
X220263646Y-68014980D01*
X220245054Y-68018678D01*
X220229852Y-68025767D01*
X220169424Y-68033722D01*
X220163000Y-68035000D01*
X219713000Y-68035000D01*
X219706577Y-68033722D01*
X219646147Y-68025767D01*
X219630944Y-68018677D01*
X219612354Y-68014980D01*
X219587730Y-67998527D01*
X219562592Y-67986805D01*
X219547297Y-67971510D01*
X219527031Y-67957969D01*
X219513489Y-67937702D01*
X219498194Y-67922407D01*
X219486470Y-67897266D01*
X219470020Y-67872646D01*
X219466322Y-67854057D01*
X219459232Y-67838852D01*
X219451274Y-67778409D01*
X219450000Y-67772000D01*
X219450000Y-67272000D01*
X219451274Y-67265592D01*
X219459232Y-67205147D01*
X219466322Y-67189940D01*
X219470020Y-67171354D01*
X219486469Y-67146735D01*
X219498194Y-67121592D01*
X219513491Y-67106294D01*
X219527031Y-67086031D01*
X219547294Y-67072491D01*
X219562592Y-67057194D01*
X219587735Y-67045469D01*
X219612354Y-67029020D01*
X219630940Y-67025322D01*
X219646147Y-67018232D01*
X219706592Y-67010274D01*
X219713000Y-67009000D01*
X220163000Y-67009000D01*
X220169409Y-67010274D01*
G37*
G36*
X221719409Y-67010274D02*
G01*
X221779852Y-67018232D01*
X221795057Y-67025322D01*
X221813646Y-67029020D01*
X221838266Y-67045470D01*
X221863407Y-67057194D01*
X221878702Y-67072489D01*
X221898969Y-67086031D01*
X221912510Y-67106297D01*
X221927805Y-67121592D01*
X221939527Y-67146730D01*
X221955980Y-67171354D01*
X221959677Y-67189944D01*
X221966767Y-67205147D01*
X221974722Y-67265577D01*
X221976000Y-67272000D01*
X221976000Y-67772000D01*
X221974722Y-67778424D01*
X221966767Y-67838852D01*
X221959678Y-67854054D01*
X221955980Y-67872646D01*
X221939525Y-67897271D01*
X221927805Y-67922407D01*
X221912512Y-67937699D01*
X221898969Y-67957969D01*
X221878699Y-67971512D01*
X221863407Y-67986805D01*
X221838271Y-67998525D01*
X221813646Y-68014980D01*
X221795054Y-68018678D01*
X221779852Y-68025767D01*
X221719424Y-68033722D01*
X221713000Y-68035000D01*
X221263000Y-68035000D01*
X221256577Y-68033722D01*
X221196147Y-68025767D01*
X221180944Y-68018677D01*
X221162354Y-68014980D01*
X221137730Y-67998527D01*
X221112592Y-67986805D01*
X221097297Y-67971510D01*
X221077031Y-67957969D01*
X221063489Y-67937702D01*
X221048194Y-67922407D01*
X221036470Y-67897266D01*
X221020020Y-67872646D01*
X221016322Y-67854057D01*
X221009232Y-67838852D01*
X221001274Y-67778409D01*
X221000000Y-67772000D01*
X221000000Y-67272000D01*
X221001274Y-67265592D01*
X221009232Y-67205147D01*
X221016322Y-67189940D01*
X221020020Y-67171354D01*
X221036469Y-67146735D01*
X221048194Y-67121592D01*
X221063491Y-67106294D01*
X221077031Y-67086031D01*
X221097294Y-67072491D01*
X221112592Y-67057194D01*
X221137735Y-67045469D01*
X221162354Y-67029020D01*
X221180940Y-67025322D01*
X221196147Y-67018232D01*
X221256592Y-67010274D01*
X221263000Y-67009000D01*
X221713000Y-67009000D01*
X221719409Y-67010274D01*
G37*
G36*
X196119409Y-64500274D02*
G01*
X196179852Y-64508232D01*
X196195057Y-64515322D01*
X196213646Y-64519020D01*
X196238266Y-64535470D01*
X196263407Y-64547194D01*
X196278702Y-64562489D01*
X196298969Y-64576031D01*
X196312510Y-64596297D01*
X196327805Y-64611592D01*
X196339527Y-64636730D01*
X196355980Y-64661354D01*
X196359677Y-64679944D01*
X196366767Y-64695147D01*
X196374722Y-64755577D01*
X196376000Y-64762000D01*
X196376000Y-65262000D01*
X196374722Y-65268424D01*
X196366767Y-65328852D01*
X196359678Y-65344054D01*
X196355980Y-65362646D01*
X196339525Y-65387271D01*
X196327805Y-65412407D01*
X196312512Y-65427699D01*
X196298969Y-65447969D01*
X196278699Y-65461512D01*
X196263407Y-65476805D01*
X196238271Y-65488525D01*
X196213646Y-65504980D01*
X196195054Y-65508678D01*
X196179852Y-65515767D01*
X196119424Y-65523722D01*
X196113000Y-65525000D01*
X195663000Y-65525000D01*
X195656577Y-65523722D01*
X195596147Y-65515767D01*
X195580944Y-65508677D01*
X195562354Y-65504980D01*
X195537730Y-65488527D01*
X195512592Y-65476805D01*
X195497297Y-65461510D01*
X195477031Y-65447969D01*
X195463489Y-65427702D01*
X195448194Y-65412407D01*
X195436470Y-65387266D01*
X195420020Y-65362646D01*
X195416322Y-65344057D01*
X195409232Y-65328852D01*
X195401274Y-65268409D01*
X195400000Y-65262000D01*
X195400000Y-64762000D01*
X195401274Y-64755592D01*
X195409232Y-64695147D01*
X195416322Y-64679940D01*
X195420020Y-64661354D01*
X195436469Y-64636735D01*
X195448194Y-64611592D01*
X195463491Y-64596294D01*
X195477031Y-64576031D01*
X195497294Y-64562491D01*
X195512592Y-64547194D01*
X195537735Y-64535469D01*
X195562354Y-64519020D01*
X195580940Y-64515322D01*
X195596147Y-64508232D01*
X195656592Y-64500274D01*
X195663000Y-64499000D01*
X196113000Y-64499000D01*
X196119409Y-64500274D01*
G37*
G36*
X197669409Y-64500274D02*
G01*
X197729852Y-64508232D01*
X197745057Y-64515322D01*
X197763646Y-64519020D01*
X197788266Y-64535470D01*
X197813407Y-64547194D01*
X197828702Y-64562489D01*
X197848969Y-64576031D01*
X197862510Y-64596297D01*
X197877805Y-64611592D01*
X197889527Y-64636730D01*
X197905980Y-64661354D01*
X197909677Y-64679944D01*
X197916767Y-64695147D01*
X197924722Y-64755577D01*
X197926000Y-64762000D01*
X197926000Y-65262000D01*
X197924722Y-65268424D01*
X197916767Y-65328852D01*
X197909678Y-65344054D01*
X197905980Y-65362646D01*
X197889525Y-65387271D01*
X197877805Y-65412407D01*
X197862512Y-65427699D01*
X197848969Y-65447969D01*
X197828699Y-65461512D01*
X197813407Y-65476805D01*
X197788271Y-65488525D01*
X197763646Y-65504980D01*
X197745054Y-65508678D01*
X197729852Y-65515767D01*
X197669424Y-65523722D01*
X197663000Y-65525000D01*
X197213000Y-65525000D01*
X197206577Y-65523722D01*
X197146147Y-65515767D01*
X197130944Y-65508677D01*
X197112354Y-65504980D01*
X197087730Y-65488527D01*
X197062592Y-65476805D01*
X197047297Y-65461510D01*
X197027031Y-65447969D01*
X197013489Y-65427702D01*
X196998194Y-65412407D01*
X196986470Y-65387266D01*
X196970020Y-65362646D01*
X196966322Y-65344057D01*
X196959232Y-65328852D01*
X196951274Y-65268409D01*
X196950000Y-65262000D01*
X196950000Y-64762000D01*
X196951274Y-64755592D01*
X196959232Y-64695147D01*
X196966322Y-64679940D01*
X196970020Y-64661354D01*
X196986469Y-64636735D01*
X196998194Y-64611592D01*
X197013491Y-64596294D01*
X197027031Y-64576031D01*
X197047294Y-64562491D01*
X197062592Y-64547194D01*
X197087735Y-64535469D01*
X197112354Y-64519020D01*
X197130940Y-64515322D01*
X197146147Y-64508232D01*
X197206592Y-64500274D01*
X197213000Y-64499000D01*
X197663000Y-64499000D01*
X197669409Y-64500274D01*
G37*
G36*
X200129409Y-64500274D02*
G01*
X200189852Y-64508232D01*
X200205057Y-64515322D01*
X200223646Y-64519020D01*
X200248266Y-64535470D01*
X200273407Y-64547194D01*
X200288702Y-64562489D01*
X200308969Y-64576031D01*
X200322510Y-64596297D01*
X200337805Y-64611592D01*
X200349527Y-64636730D01*
X200365980Y-64661354D01*
X200369677Y-64679944D01*
X200376767Y-64695147D01*
X200384722Y-64755577D01*
X200386000Y-64762000D01*
X200386000Y-65262000D01*
X200384722Y-65268424D01*
X200376767Y-65328852D01*
X200369678Y-65344054D01*
X200365980Y-65362646D01*
X200349525Y-65387271D01*
X200337805Y-65412407D01*
X200322512Y-65427699D01*
X200308969Y-65447969D01*
X200288699Y-65461512D01*
X200273407Y-65476805D01*
X200248271Y-65488525D01*
X200223646Y-65504980D01*
X200205054Y-65508678D01*
X200189852Y-65515767D01*
X200129424Y-65523722D01*
X200123000Y-65525000D01*
X199673000Y-65525000D01*
X199666577Y-65523722D01*
X199606147Y-65515767D01*
X199590944Y-65508677D01*
X199572354Y-65504980D01*
X199547730Y-65488527D01*
X199522592Y-65476805D01*
X199507297Y-65461510D01*
X199487031Y-65447969D01*
X199473489Y-65427702D01*
X199458194Y-65412407D01*
X199446470Y-65387266D01*
X199430020Y-65362646D01*
X199426322Y-65344057D01*
X199419232Y-65328852D01*
X199411274Y-65268409D01*
X199410000Y-65262000D01*
X199410000Y-64762000D01*
X199411274Y-64755592D01*
X199419232Y-64695147D01*
X199426322Y-64679940D01*
X199430020Y-64661354D01*
X199446469Y-64636735D01*
X199458194Y-64611592D01*
X199473491Y-64596294D01*
X199487031Y-64576031D01*
X199507294Y-64562491D01*
X199522592Y-64547194D01*
X199547735Y-64535469D01*
X199572354Y-64519020D01*
X199590940Y-64515322D01*
X199606147Y-64508232D01*
X199666592Y-64500274D01*
X199673000Y-64499000D01*
X200123000Y-64499000D01*
X200129409Y-64500274D01*
G37*
G36*
X201679409Y-64500274D02*
G01*
X201739852Y-64508232D01*
X201755057Y-64515322D01*
X201773646Y-64519020D01*
X201798266Y-64535470D01*
X201823407Y-64547194D01*
X201838702Y-64562489D01*
X201858969Y-64576031D01*
X201872510Y-64596297D01*
X201887805Y-64611592D01*
X201899527Y-64636730D01*
X201915980Y-64661354D01*
X201919677Y-64679944D01*
X201926767Y-64695147D01*
X201934722Y-64755577D01*
X201936000Y-64762000D01*
X201936000Y-65262000D01*
X201934722Y-65268424D01*
X201926767Y-65328852D01*
X201919678Y-65344054D01*
X201915980Y-65362646D01*
X201899525Y-65387271D01*
X201887805Y-65412407D01*
X201872512Y-65427699D01*
X201858969Y-65447969D01*
X201838699Y-65461512D01*
X201823407Y-65476805D01*
X201798271Y-65488525D01*
X201773646Y-65504980D01*
X201755054Y-65508678D01*
X201739852Y-65515767D01*
X201679424Y-65523722D01*
X201673000Y-65525000D01*
X201223000Y-65525000D01*
X201216577Y-65523722D01*
X201156147Y-65515767D01*
X201140944Y-65508677D01*
X201122354Y-65504980D01*
X201097730Y-65488527D01*
X201072592Y-65476805D01*
X201057297Y-65461510D01*
X201037031Y-65447969D01*
X201023489Y-65427702D01*
X201008194Y-65412407D01*
X200996470Y-65387266D01*
X200980020Y-65362646D01*
X200976322Y-65344057D01*
X200969232Y-65328852D01*
X200961274Y-65268409D01*
X200960000Y-65262000D01*
X200960000Y-64762000D01*
X200961274Y-64755592D01*
X200969232Y-64695147D01*
X200976322Y-64679940D01*
X200980020Y-64661354D01*
X200996469Y-64636735D01*
X201008194Y-64611592D01*
X201023491Y-64596294D01*
X201037031Y-64576031D01*
X201057294Y-64562491D01*
X201072592Y-64547194D01*
X201097735Y-64535469D01*
X201122354Y-64519020D01*
X201140940Y-64515322D01*
X201156147Y-64508232D01*
X201216592Y-64500274D01*
X201223000Y-64499000D01*
X201673000Y-64499000D01*
X201679409Y-64500274D01*
G37*
G36*
X204139409Y-64500274D02*
G01*
X204199852Y-64508232D01*
X204215057Y-64515322D01*
X204233646Y-64519020D01*
X204258266Y-64535470D01*
X204283407Y-64547194D01*
X204298702Y-64562489D01*
X204318969Y-64576031D01*
X204332510Y-64596297D01*
X204347805Y-64611592D01*
X204359527Y-64636730D01*
X204375980Y-64661354D01*
X204379677Y-64679944D01*
X204386767Y-64695147D01*
X204394722Y-64755577D01*
X204396000Y-64762000D01*
X204396000Y-65262000D01*
X204394722Y-65268424D01*
X204386767Y-65328852D01*
X204379678Y-65344054D01*
X204375980Y-65362646D01*
X204359525Y-65387271D01*
X204347805Y-65412407D01*
X204332512Y-65427699D01*
X204318969Y-65447969D01*
X204298699Y-65461512D01*
X204283407Y-65476805D01*
X204258271Y-65488525D01*
X204233646Y-65504980D01*
X204215054Y-65508678D01*
X204199852Y-65515767D01*
X204139424Y-65523722D01*
X204133000Y-65525000D01*
X203683000Y-65525000D01*
X203676577Y-65523722D01*
X203616147Y-65515767D01*
X203600944Y-65508677D01*
X203582354Y-65504980D01*
X203557730Y-65488527D01*
X203532592Y-65476805D01*
X203517297Y-65461510D01*
X203497031Y-65447969D01*
X203483489Y-65427702D01*
X203468194Y-65412407D01*
X203456470Y-65387266D01*
X203440020Y-65362646D01*
X203436322Y-65344057D01*
X203429232Y-65328852D01*
X203421274Y-65268409D01*
X203420000Y-65262000D01*
X203420000Y-64762000D01*
X203421274Y-64755592D01*
X203429232Y-64695147D01*
X203436322Y-64679940D01*
X203440020Y-64661354D01*
X203456469Y-64636735D01*
X203468194Y-64611592D01*
X203483491Y-64596294D01*
X203497031Y-64576031D01*
X203517294Y-64562491D01*
X203532592Y-64547194D01*
X203557735Y-64535469D01*
X203582354Y-64519020D01*
X203600940Y-64515322D01*
X203616147Y-64508232D01*
X203676592Y-64500274D01*
X203683000Y-64499000D01*
X204133000Y-64499000D01*
X204139409Y-64500274D01*
G37*
G36*
X205689409Y-64500274D02*
G01*
X205749852Y-64508232D01*
X205765057Y-64515322D01*
X205783646Y-64519020D01*
X205808266Y-64535470D01*
X205833407Y-64547194D01*
X205848702Y-64562489D01*
X205868969Y-64576031D01*
X205882510Y-64596297D01*
X205897805Y-64611592D01*
X205909527Y-64636730D01*
X205925980Y-64661354D01*
X205929677Y-64679944D01*
X205936767Y-64695147D01*
X205944722Y-64755577D01*
X205946000Y-64762000D01*
X205946000Y-65262000D01*
X205944722Y-65268424D01*
X205936767Y-65328852D01*
X205929678Y-65344054D01*
X205925980Y-65362646D01*
X205909525Y-65387271D01*
X205897805Y-65412407D01*
X205882512Y-65427699D01*
X205868969Y-65447969D01*
X205848699Y-65461512D01*
X205833407Y-65476805D01*
X205808271Y-65488525D01*
X205783646Y-65504980D01*
X205765054Y-65508678D01*
X205749852Y-65515767D01*
X205689424Y-65523722D01*
X205683000Y-65525000D01*
X205233000Y-65525000D01*
X205226577Y-65523722D01*
X205166147Y-65515767D01*
X205150944Y-65508677D01*
X205132354Y-65504980D01*
X205107730Y-65488527D01*
X205082592Y-65476805D01*
X205067297Y-65461510D01*
X205047031Y-65447969D01*
X205033489Y-65427702D01*
X205018194Y-65412407D01*
X205006470Y-65387266D01*
X204990020Y-65362646D01*
X204986322Y-65344057D01*
X204979232Y-65328852D01*
X204971274Y-65268409D01*
X204970000Y-65262000D01*
X204970000Y-64762000D01*
X204971274Y-64755592D01*
X204979232Y-64695147D01*
X204986322Y-64679940D01*
X204990020Y-64661354D01*
X205006469Y-64636735D01*
X205018194Y-64611592D01*
X205033491Y-64596294D01*
X205047031Y-64576031D01*
X205067294Y-64562491D01*
X205082592Y-64547194D01*
X205107735Y-64535469D01*
X205132354Y-64519020D01*
X205150940Y-64515322D01*
X205166147Y-64508232D01*
X205226592Y-64500274D01*
X205233000Y-64499000D01*
X205683000Y-64499000D01*
X205689409Y-64500274D01*
G37*
G36*
X208072047Y-64499805D02*
G01*
X208120661Y-64505445D01*
X208137271Y-64512779D01*
X208159079Y-64517117D01*
X208182425Y-64532716D01*
X208202012Y-64541365D01*
X208215390Y-64554743D01*
X208236291Y-64568709D01*
X208250256Y-64589609D01*
X208263634Y-64602987D01*
X208272281Y-64622572D01*
X208287883Y-64645921D01*
X208292221Y-64667731D01*
X208299554Y-64684338D01*
X208305192Y-64732942D01*
X208306000Y-64737000D01*
X208306000Y-65287000D01*
X208305192Y-65291059D01*
X208299554Y-65339661D01*
X208292221Y-65356266D01*
X208287883Y-65378079D01*
X208272280Y-65401429D01*
X208263634Y-65421012D01*
X208250258Y-65434387D01*
X208236291Y-65455291D01*
X208215387Y-65469258D01*
X208202012Y-65482634D01*
X208182429Y-65491280D01*
X208159079Y-65506883D01*
X208137266Y-65511221D01*
X208120661Y-65518554D01*
X208072059Y-65524192D01*
X208068000Y-65525000D01*
X207668000Y-65525000D01*
X207663942Y-65524192D01*
X207615338Y-65518554D01*
X207598731Y-65511221D01*
X207576921Y-65506883D01*
X207553572Y-65491281D01*
X207533987Y-65482634D01*
X207520609Y-65469256D01*
X207499709Y-65455291D01*
X207485743Y-65434390D01*
X207472365Y-65421012D01*
X207463716Y-65401425D01*
X207448117Y-65378079D01*
X207443779Y-65356271D01*
X207436445Y-65339661D01*
X207430805Y-65291047D01*
X207430000Y-65287000D01*
X207430000Y-64737000D01*
X207430804Y-64732954D01*
X207436445Y-64684338D01*
X207443779Y-64667727D01*
X207448117Y-64645921D01*
X207463715Y-64622576D01*
X207472365Y-64602987D01*
X207485745Y-64589606D01*
X207499709Y-64568709D01*
X207520606Y-64554745D01*
X207533987Y-64541365D01*
X207553576Y-64532715D01*
X207576921Y-64517117D01*
X207598727Y-64512779D01*
X207615338Y-64505445D01*
X207663954Y-64499804D01*
X207668000Y-64499000D01*
X208068000Y-64499000D01*
X208072047Y-64499805D01*
G37*
G36*
X209722047Y-64499805D02*
G01*
X209770661Y-64505445D01*
X209787271Y-64512779D01*
X209809079Y-64517117D01*
X209832425Y-64532716D01*
X209852012Y-64541365D01*
X209865390Y-64554743D01*
X209886291Y-64568709D01*
X209900256Y-64589609D01*
X209913634Y-64602987D01*
X209922281Y-64622572D01*
X209937883Y-64645921D01*
X209942221Y-64667731D01*
X209949554Y-64684338D01*
X209955192Y-64732942D01*
X209956000Y-64737000D01*
X209956000Y-65287000D01*
X209955192Y-65291059D01*
X209949554Y-65339661D01*
X209942221Y-65356266D01*
X209937883Y-65378079D01*
X209922280Y-65401429D01*
X209913634Y-65421012D01*
X209900258Y-65434387D01*
X209886291Y-65455291D01*
X209865387Y-65469258D01*
X209852012Y-65482634D01*
X209832429Y-65491280D01*
X209809079Y-65506883D01*
X209787266Y-65511221D01*
X209770661Y-65518554D01*
X209722059Y-65524192D01*
X209718000Y-65525000D01*
X209318000Y-65525000D01*
X209313942Y-65524192D01*
X209265338Y-65518554D01*
X209248731Y-65511221D01*
X209226921Y-65506883D01*
X209203572Y-65491281D01*
X209183987Y-65482634D01*
X209170609Y-65469256D01*
X209149709Y-65455291D01*
X209135743Y-65434390D01*
X209122365Y-65421012D01*
X209113716Y-65401425D01*
X209098117Y-65378079D01*
X209093779Y-65356271D01*
X209086445Y-65339661D01*
X209080805Y-65291047D01*
X209080000Y-65287000D01*
X209080000Y-64737000D01*
X209080804Y-64732954D01*
X209086445Y-64684338D01*
X209093779Y-64667727D01*
X209098117Y-64645921D01*
X209113715Y-64622576D01*
X209122365Y-64602987D01*
X209135745Y-64589606D01*
X209149709Y-64568709D01*
X209170606Y-64554745D01*
X209183987Y-64541365D01*
X209203576Y-64532715D01*
X209226921Y-64517117D01*
X209248727Y-64512779D01*
X209265338Y-64505445D01*
X209313954Y-64499804D01*
X209318000Y-64499000D01*
X209718000Y-64499000D01*
X209722047Y-64499805D01*
G37*
G36*
X214159409Y-64500274D02*
G01*
X214219852Y-64508232D01*
X214235057Y-64515322D01*
X214253646Y-64519020D01*
X214278266Y-64535470D01*
X214303407Y-64547194D01*
X214318702Y-64562489D01*
X214338969Y-64576031D01*
X214352510Y-64596297D01*
X214367805Y-64611592D01*
X214379527Y-64636730D01*
X214395980Y-64661354D01*
X214399677Y-64679944D01*
X214406767Y-64695147D01*
X214414722Y-64755577D01*
X214416000Y-64762000D01*
X214416000Y-65262000D01*
X214414722Y-65268424D01*
X214406767Y-65328852D01*
X214399678Y-65344054D01*
X214395980Y-65362646D01*
X214379525Y-65387271D01*
X214367805Y-65412407D01*
X214352512Y-65427699D01*
X214338969Y-65447969D01*
X214318699Y-65461512D01*
X214303407Y-65476805D01*
X214278271Y-65488525D01*
X214253646Y-65504980D01*
X214235054Y-65508678D01*
X214219852Y-65515767D01*
X214159424Y-65523722D01*
X214153000Y-65525000D01*
X213703000Y-65525000D01*
X213696577Y-65523722D01*
X213636147Y-65515767D01*
X213620944Y-65508677D01*
X213602354Y-65504980D01*
X213577730Y-65488527D01*
X213552592Y-65476805D01*
X213537297Y-65461510D01*
X213517031Y-65447969D01*
X213503489Y-65427702D01*
X213488194Y-65412407D01*
X213476470Y-65387266D01*
X213460020Y-65362646D01*
X213456322Y-65344057D01*
X213449232Y-65328852D01*
X213441274Y-65268409D01*
X213440000Y-65262000D01*
X213440000Y-64762000D01*
X213441274Y-64755592D01*
X213449232Y-64695147D01*
X213456322Y-64679940D01*
X213460020Y-64661354D01*
X213476469Y-64636735D01*
X213488194Y-64611592D01*
X213503491Y-64596294D01*
X213517031Y-64576031D01*
X213537294Y-64562491D01*
X213552592Y-64547194D01*
X213577735Y-64535469D01*
X213602354Y-64519020D01*
X213620940Y-64515322D01*
X213636147Y-64508232D01*
X213696592Y-64500274D01*
X213703000Y-64499000D01*
X214153000Y-64499000D01*
X214159409Y-64500274D01*
G37*
G36*
X215709409Y-64500274D02*
G01*
X215769852Y-64508232D01*
X215785057Y-64515322D01*
X215803646Y-64519020D01*
X215828266Y-64535470D01*
X215853407Y-64547194D01*
X215868702Y-64562489D01*
X215888969Y-64576031D01*
X215902510Y-64596297D01*
X215917805Y-64611592D01*
X215929527Y-64636730D01*
X215945980Y-64661354D01*
X215949677Y-64679944D01*
X215956767Y-64695147D01*
X215964722Y-64755577D01*
X215966000Y-64762000D01*
X215966000Y-65262000D01*
X215964722Y-65268424D01*
X215956767Y-65328852D01*
X215949678Y-65344054D01*
X215945980Y-65362646D01*
X215929525Y-65387271D01*
X215917805Y-65412407D01*
X215902512Y-65427699D01*
X215888969Y-65447969D01*
X215868699Y-65461512D01*
X215853407Y-65476805D01*
X215828271Y-65488525D01*
X215803646Y-65504980D01*
X215785054Y-65508678D01*
X215769852Y-65515767D01*
X215709424Y-65523722D01*
X215703000Y-65525000D01*
X215253000Y-65525000D01*
X215246577Y-65523722D01*
X215186147Y-65515767D01*
X215170944Y-65508677D01*
X215152354Y-65504980D01*
X215127730Y-65488527D01*
X215102592Y-65476805D01*
X215087297Y-65461510D01*
X215067031Y-65447969D01*
X215053489Y-65427702D01*
X215038194Y-65412407D01*
X215026470Y-65387266D01*
X215010020Y-65362646D01*
X215006322Y-65344057D01*
X214999232Y-65328852D01*
X214991274Y-65268409D01*
X214990000Y-65262000D01*
X214990000Y-64762000D01*
X214991274Y-64755592D01*
X214999232Y-64695147D01*
X215006322Y-64679940D01*
X215010020Y-64661354D01*
X215026469Y-64636735D01*
X215038194Y-64611592D01*
X215053491Y-64596294D01*
X215067031Y-64576031D01*
X215087294Y-64562491D01*
X215102592Y-64547194D01*
X215127735Y-64535469D01*
X215152354Y-64519020D01*
X215170940Y-64515322D01*
X215186147Y-64508232D01*
X215246592Y-64500274D01*
X215253000Y-64499000D01*
X215703000Y-64499000D01*
X215709409Y-64500274D01*
G37*
G36*
X220169409Y-64500274D02*
G01*
X220229852Y-64508232D01*
X220245057Y-64515322D01*
X220263646Y-64519020D01*
X220288266Y-64535470D01*
X220313407Y-64547194D01*
X220328702Y-64562489D01*
X220348969Y-64576031D01*
X220362510Y-64596297D01*
X220377805Y-64611592D01*
X220389527Y-64636730D01*
X220405980Y-64661354D01*
X220409677Y-64679944D01*
X220416767Y-64695147D01*
X220424722Y-64755577D01*
X220426000Y-64762000D01*
X220426000Y-65262000D01*
X220424722Y-65268424D01*
X220416767Y-65328852D01*
X220409678Y-65344054D01*
X220405980Y-65362646D01*
X220389525Y-65387271D01*
X220377805Y-65412407D01*
X220362512Y-65427699D01*
X220348969Y-65447969D01*
X220328699Y-65461512D01*
X220313407Y-65476805D01*
X220288271Y-65488525D01*
X220263646Y-65504980D01*
X220245054Y-65508678D01*
X220229852Y-65515767D01*
X220169424Y-65523722D01*
X220163000Y-65525000D01*
X219713000Y-65525000D01*
X219706577Y-65523722D01*
X219646147Y-65515767D01*
X219630944Y-65508677D01*
X219612354Y-65504980D01*
X219587730Y-65488527D01*
X219562592Y-65476805D01*
X219547297Y-65461510D01*
X219527031Y-65447969D01*
X219513489Y-65427702D01*
X219498194Y-65412407D01*
X219486470Y-65387266D01*
X219470020Y-65362646D01*
X219466322Y-65344057D01*
X219459232Y-65328852D01*
X219451274Y-65268409D01*
X219450000Y-65262000D01*
X219450000Y-64762000D01*
X219451274Y-64755592D01*
X219459232Y-64695147D01*
X219466322Y-64679940D01*
X219470020Y-64661354D01*
X219486469Y-64636735D01*
X219498194Y-64611592D01*
X219513491Y-64596294D01*
X219527031Y-64576031D01*
X219547294Y-64562491D01*
X219562592Y-64547194D01*
X219587735Y-64535469D01*
X219612354Y-64519020D01*
X219630940Y-64515322D01*
X219646147Y-64508232D01*
X219706592Y-64500274D01*
X219713000Y-64499000D01*
X220163000Y-64499000D01*
X220169409Y-64500274D01*
G37*
G36*
X221719409Y-64500274D02*
G01*
X221779852Y-64508232D01*
X221795057Y-64515322D01*
X221813646Y-64519020D01*
X221838266Y-64535470D01*
X221863407Y-64547194D01*
X221878702Y-64562489D01*
X221898969Y-64576031D01*
X221912510Y-64596297D01*
X221927805Y-64611592D01*
X221939527Y-64636730D01*
X221955980Y-64661354D01*
X221959677Y-64679944D01*
X221966767Y-64695147D01*
X221974722Y-64755577D01*
X221976000Y-64762000D01*
X221976000Y-65262000D01*
X221974722Y-65268424D01*
X221966767Y-65328852D01*
X221959678Y-65344054D01*
X221955980Y-65362646D01*
X221939525Y-65387271D01*
X221927805Y-65412407D01*
X221912512Y-65427699D01*
X221898969Y-65447969D01*
X221878699Y-65461512D01*
X221863407Y-65476805D01*
X221838271Y-65488525D01*
X221813646Y-65504980D01*
X221795054Y-65508678D01*
X221779852Y-65515767D01*
X221719424Y-65523722D01*
X221713000Y-65525000D01*
X221263000Y-65525000D01*
X221256577Y-65523722D01*
X221196147Y-65515767D01*
X221180944Y-65508677D01*
X221162354Y-65504980D01*
X221137730Y-65488527D01*
X221112592Y-65476805D01*
X221097297Y-65461510D01*
X221077031Y-65447969D01*
X221063489Y-65427702D01*
X221048194Y-65412407D01*
X221036470Y-65387266D01*
X221020020Y-65362646D01*
X221016322Y-65344057D01*
X221009232Y-65328852D01*
X221001274Y-65268409D01*
X221000000Y-65262000D01*
X221000000Y-64762000D01*
X221001274Y-64755592D01*
X221009232Y-64695147D01*
X221016322Y-64679940D01*
X221020020Y-64661354D01*
X221036469Y-64636735D01*
X221048194Y-64611592D01*
X221063491Y-64596294D01*
X221077031Y-64576031D01*
X221097294Y-64562491D01*
X221112592Y-64547194D01*
X221137735Y-64535469D01*
X221162354Y-64519020D01*
X221180940Y-64515322D01*
X221196147Y-64508232D01*
X221256592Y-64500274D01*
X221263000Y-64499000D01*
X221713000Y-64499000D01*
X221719409Y-64500274D01*
G37*
M02*
