%TF.GenerationSoftware,KiCad,Pcbnew,8.0.4*%
%TF.CreationDate,2024-08-10T08:10:45+10:00*%
%TF.ProjectId,CW HF Transceiver,43572048-4620-4547-9261-6e7363656976,rev?*%
%TF.SameCoordinates,Original*%
%TF.FileFunction,Legend,Top*%
%TF.FilePolarity,Positive*%
%FSLAX46Y46*%
G04 Gerber Fmt 4.6, Leading zero omitted, Abs format (unit mm)*
G04 Created by KiCad (PCBNEW 8.0.4) date 2024-08-10 08:10:45*
%MOMM*%
%LPD*%
G01*
G04 APERTURE LIST*
G04 Aperture macros list*
%AMRoundRect*
0 Rectangle with rounded corners*
0 $1 Rounding radius*
0 $2 $3 $4 $5 $6 $7 $8 $9 X,Y pos of 4 corners*
0 Add a 4 corners polygon primitive as box body*
4,1,4,$2,$3,$4,$5,$6,$7,$8,$9,$2,$3,0*
0 Add four circle primitives for the rounded corners*
1,1,$1+$1,$2,$3*
1,1,$1+$1,$4,$5*
1,1,$1+$1,$6,$7*
1,1,$1+$1,$8,$9*
0 Add four rect primitives between the rounded corners*
20,1,$1+$1,$2,$3,$4,$5,0*
20,1,$1+$1,$4,$5,$6,$7,0*
20,1,$1+$1,$6,$7,$8,$9,0*
20,1,$1+$1,$8,$9,$2,$3,0*%
%AMFreePoly0*
4,1,21,3.889370,0.893370,3.900500,0.866500,3.900500,-0.866500,3.889370,-0.893370,3.862500,-0.904500,0.737500,-0.904500,0.710630,-0.893370,0.699500,-0.866500,0.699500,-0.488000,-0.737500,-0.488000,-0.764370,-0.476870,-0.775500,-0.450000,-0.775500,0.450000,-0.764370,0.476870,-0.737500,0.488000,0.699500,0.488000,0.699500,0.866500,0.710630,0.893370,0.737500,0.904500,3.862500,0.904500,
3.889370,0.893370,3.889370,0.893370,$1*%
G04 Aperture macros list end*
%ADD10C,0.150000*%
%ADD11C,0.120000*%
%ADD12RoundRect,0.244000X-0.244000X-0.269000X0.244000X-0.269000X0.244000X0.269000X-0.244000X0.269000X0*%
%ADD13RoundRect,0.219000X-0.219000X-0.294000X0.219000X-0.294000X0.219000X0.294000X-0.219000X0.294000X0*%
%ADD14RoundRect,0.244000X-0.444000X-0.244000X0.444000X-0.244000X0.444000X0.244000X-0.444000X0.244000X0*%
%ADD15FreePoly0,0.000000*%
%ADD16RoundRect,0.106500X-0.744000X-0.106500X0.744000X-0.106500X0.744000X0.106500X-0.744000X0.106500X0*%
G04 APERTURE END LIST*
D10*
X196020142Y-86021580D02*
X195972523Y-86069200D01*
X195972523Y-86069200D02*
X195829666Y-86116819D01*
X195829666Y-86116819D02*
X195734428Y-86116819D01*
X195734428Y-86116819D02*
X195591571Y-86069200D01*
X195591571Y-86069200D02*
X195496333Y-85973961D01*
X195496333Y-85973961D02*
X195448714Y-85878723D01*
X195448714Y-85878723D02*
X195401095Y-85688247D01*
X195401095Y-85688247D02*
X195401095Y-85545390D01*
X195401095Y-85545390D02*
X195448714Y-85354914D01*
X195448714Y-85354914D02*
X195496333Y-85259676D01*
X195496333Y-85259676D02*
X195591571Y-85164438D01*
X195591571Y-85164438D02*
X195734428Y-85116819D01*
X195734428Y-85116819D02*
X195829666Y-85116819D01*
X195829666Y-85116819D02*
X195972523Y-85164438D01*
X195972523Y-85164438D02*
X196020142Y-85212057D01*
X196401095Y-85212057D02*
X196448714Y-85164438D01*
X196448714Y-85164438D02*
X196543952Y-85116819D01*
X196543952Y-85116819D02*
X196782047Y-85116819D01*
X196782047Y-85116819D02*
X196877285Y-85164438D01*
X196877285Y-85164438D02*
X196924904Y-85212057D01*
X196924904Y-85212057D02*
X196972523Y-85307295D01*
X196972523Y-85307295D02*
X196972523Y-85402533D01*
X196972523Y-85402533D02*
X196924904Y-85545390D01*
X196924904Y-85545390D02*
X196353476Y-86116819D01*
X196353476Y-86116819D02*
X196972523Y-86116819D01*
X197353476Y-85212057D02*
X197401095Y-85164438D01*
X197401095Y-85164438D02*
X197496333Y-85116819D01*
X197496333Y-85116819D02*
X197734428Y-85116819D01*
X197734428Y-85116819D02*
X197829666Y-85164438D01*
X197829666Y-85164438D02*
X197877285Y-85212057D01*
X197877285Y-85212057D02*
X197924904Y-85307295D01*
X197924904Y-85307295D02*
X197924904Y-85402533D01*
X197924904Y-85402533D02*
X197877285Y-85545390D01*
X197877285Y-85545390D02*
X197305857Y-86116819D01*
X197305857Y-86116819D02*
X197924904Y-86116819D01*
X214060142Y-83606819D02*
X213726809Y-83130628D01*
X213488714Y-83606819D02*
X213488714Y-82606819D01*
X213488714Y-82606819D02*
X213869666Y-82606819D01*
X213869666Y-82606819D02*
X213964904Y-82654438D01*
X213964904Y-82654438D02*
X214012523Y-82702057D01*
X214012523Y-82702057D02*
X214060142Y-82797295D01*
X214060142Y-82797295D02*
X214060142Y-82940152D01*
X214060142Y-82940152D02*
X214012523Y-83035390D01*
X214012523Y-83035390D02*
X213964904Y-83083009D01*
X213964904Y-83083009D02*
X213869666Y-83130628D01*
X213869666Y-83130628D02*
X213488714Y-83130628D01*
X215012523Y-83606819D02*
X214441095Y-83606819D01*
X214726809Y-83606819D02*
X214726809Y-82606819D01*
X214726809Y-82606819D02*
X214631571Y-82749676D01*
X214631571Y-82749676D02*
X214536333Y-82844914D01*
X214536333Y-82844914D02*
X214441095Y-82892533D01*
X215393476Y-82702057D02*
X215441095Y-82654438D01*
X215441095Y-82654438D02*
X215536333Y-82606819D01*
X215536333Y-82606819D02*
X215774428Y-82606819D01*
X215774428Y-82606819D02*
X215869666Y-82654438D01*
X215869666Y-82654438D02*
X215917285Y-82702057D01*
X215917285Y-82702057D02*
X215964904Y-82797295D01*
X215964904Y-82797295D02*
X215964904Y-82892533D01*
X215964904Y-82892533D02*
X215917285Y-83035390D01*
X215917285Y-83035390D02*
X215345857Y-83606819D01*
X215345857Y-83606819D02*
X215964904Y-83606819D01*
X208526333Y-66546819D02*
X208193000Y-66070628D01*
X207954905Y-66546819D02*
X207954905Y-65546819D01*
X207954905Y-65546819D02*
X208335857Y-65546819D01*
X208335857Y-65546819D02*
X208431095Y-65594438D01*
X208431095Y-65594438D02*
X208478714Y-65642057D01*
X208478714Y-65642057D02*
X208526333Y-65737295D01*
X208526333Y-65737295D02*
X208526333Y-65880152D01*
X208526333Y-65880152D02*
X208478714Y-65975390D01*
X208478714Y-65975390D02*
X208431095Y-66023009D01*
X208431095Y-66023009D02*
X208335857Y-66070628D01*
X208335857Y-66070628D02*
X207954905Y-66070628D01*
X209097762Y-65975390D02*
X209002524Y-65927771D01*
X209002524Y-65927771D02*
X208954905Y-65880152D01*
X208954905Y-65880152D02*
X208907286Y-65784914D01*
X208907286Y-65784914D02*
X208907286Y-65737295D01*
X208907286Y-65737295D02*
X208954905Y-65642057D01*
X208954905Y-65642057D02*
X209002524Y-65594438D01*
X209002524Y-65594438D02*
X209097762Y-65546819D01*
X209097762Y-65546819D02*
X209288238Y-65546819D01*
X209288238Y-65546819D02*
X209383476Y-65594438D01*
X209383476Y-65594438D02*
X209431095Y-65642057D01*
X209431095Y-65642057D02*
X209478714Y-65737295D01*
X209478714Y-65737295D02*
X209478714Y-65784914D01*
X209478714Y-65784914D02*
X209431095Y-65880152D01*
X209431095Y-65880152D02*
X209383476Y-65927771D01*
X209383476Y-65927771D02*
X209288238Y-65975390D01*
X209288238Y-65975390D02*
X209097762Y-65975390D01*
X209097762Y-65975390D02*
X209002524Y-66023009D01*
X209002524Y-66023009D02*
X208954905Y-66070628D01*
X208954905Y-66070628D02*
X208907286Y-66165866D01*
X208907286Y-66165866D02*
X208907286Y-66356342D01*
X208907286Y-66356342D02*
X208954905Y-66451580D01*
X208954905Y-66451580D02*
X209002524Y-66499200D01*
X209002524Y-66499200D02*
X209097762Y-66546819D01*
X209097762Y-66546819D02*
X209288238Y-66546819D01*
X209288238Y-66546819D02*
X209383476Y-66499200D01*
X209383476Y-66499200D02*
X209431095Y-66451580D01*
X209431095Y-66451580D02*
X209478714Y-66356342D01*
X209478714Y-66356342D02*
X209478714Y-66165866D01*
X209478714Y-66165866D02*
X209431095Y-66070628D01*
X209431095Y-66070628D02*
X209383476Y-66023009D01*
X209383476Y-66023009D02*
X209288238Y-65975390D01*
X196496333Y-63941580D02*
X196448714Y-63989200D01*
X196448714Y-63989200D02*
X196305857Y-64036819D01*
X196305857Y-64036819D02*
X196210619Y-64036819D01*
X196210619Y-64036819D02*
X196067762Y-63989200D01*
X196067762Y-63989200D02*
X195972524Y-63893961D01*
X195972524Y-63893961D02*
X195924905Y-63798723D01*
X195924905Y-63798723D02*
X195877286Y-63608247D01*
X195877286Y-63608247D02*
X195877286Y-63465390D01*
X195877286Y-63465390D02*
X195924905Y-63274914D01*
X195924905Y-63274914D02*
X195972524Y-63179676D01*
X195972524Y-63179676D02*
X196067762Y-63084438D01*
X196067762Y-63084438D02*
X196210619Y-63036819D01*
X196210619Y-63036819D02*
X196305857Y-63036819D01*
X196305857Y-63036819D02*
X196448714Y-63084438D01*
X196448714Y-63084438D02*
X196496333Y-63132057D01*
X197448714Y-64036819D02*
X196877286Y-64036819D01*
X197163000Y-64036819D02*
X197163000Y-63036819D01*
X197163000Y-63036819D02*
X197067762Y-63179676D01*
X197067762Y-63179676D02*
X196972524Y-63274914D01*
X196972524Y-63274914D02*
X196877286Y-63322533D01*
X196496333Y-71471580D02*
X196448714Y-71519200D01*
X196448714Y-71519200D02*
X196305857Y-71566819D01*
X196305857Y-71566819D02*
X196210619Y-71566819D01*
X196210619Y-71566819D02*
X196067762Y-71519200D01*
X196067762Y-71519200D02*
X195972524Y-71423961D01*
X195972524Y-71423961D02*
X195924905Y-71328723D01*
X195924905Y-71328723D02*
X195877286Y-71138247D01*
X195877286Y-71138247D02*
X195877286Y-70995390D01*
X195877286Y-70995390D02*
X195924905Y-70804914D01*
X195924905Y-70804914D02*
X195972524Y-70709676D01*
X195972524Y-70709676D02*
X196067762Y-70614438D01*
X196067762Y-70614438D02*
X196210619Y-70566819D01*
X196210619Y-70566819D02*
X196305857Y-70566819D01*
X196305857Y-70566819D02*
X196448714Y-70614438D01*
X196448714Y-70614438D02*
X196496333Y-70662057D01*
X197353476Y-70900152D02*
X197353476Y-71566819D01*
X197115381Y-70519200D02*
X196877286Y-71233485D01*
X196877286Y-71233485D02*
X197496333Y-71233485D01*
X196496333Y-73981580D02*
X196448714Y-74029200D01*
X196448714Y-74029200D02*
X196305857Y-74076819D01*
X196305857Y-74076819D02*
X196210619Y-74076819D01*
X196210619Y-74076819D02*
X196067762Y-74029200D01*
X196067762Y-74029200D02*
X195972524Y-73933961D01*
X195972524Y-73933961D02*
X195924905Y-73838723D01*
X195924905Y-73838723D02*
X195877286Y-73648247D01*
X195877286Y-73648247D02*
X195877286Y-73505390D01*
X195877286Y-73505390D02*
X195924905Y-73314914D01*
X195924905Y-73314914D02*
X195972524Y-73219676D01*
X195972524Y-73219676D02*
X196067762Y-73124438D01*
X196067762Y-73124438D02*
X196210619Y-73076819D01*
X196210619Y-73076819D02*
X196305857Y-73076819D01*
X196305857Y-73076819D02*
X196448714Y-73124438D01*
X196448714Y-73124438D02*
X196496333Y-73172057D01*
X197401095Y-73076819D02*
X196924905Y-73076819D01*
X196924905Y-73076819D02*
X196877286Y-73553009D01*
X196877286Y-73553009D02*
X196924905Y-73505390D01*
X196924905Y-73505390D02*
X197020143Y-73457771D01*
X197020143Y-73457771D02*
X197258238Y-73457771D01*
X197258238Y-73457771D02*
X197353476Y-73505390D01*
X197353476Y-73505390D02*
X197401095Y-73553009D01*
X197401095Y-73553009D02*
X197448714Y-73648247D01*
X197448714Y-73648247D02*
X197448714Y-73886342D01*
X197448714Y-73886342D02*
X197401095Y-73981580D01*
X197401095Y-73981580D02*
X197353476Y-74029200D01*
X197353476Y-74029200D02*
X197258238Y-74076819D01*
X197258238Y-74076819D02*
X197020143Y-74076819D01*
X197020143Y-74076819D02*
X196924905Y-74029200D01*
X196924905Y-74029200D02*
X196877286Y-73981580D01*
X196496333Y-76491580D02*
X196448714Y-76539200D01*
X196448714Y-76539200D02*
X196305857Y-76586819D01*
X196305857Y-76586819D02*
X196210619Y-76586819D01*
X196210619Y-76586819D02*
X196067762Y-76539200D01*
X196067762Y-76539200D02*
X195972524Y-76443961D01*
X195972524Y-76443961D02*
X195924905Y-76348723D01*
X195924905Y-76348723D02*
X195877286Y-76158247D01*
X195877286Y-76158247D02*
X195877286Y-76015390D01*
X195877286Y-76015390D02*
X195924905Y-75824914D01*
X195924905Y-75824914D02*
X195972524Y-75729676D01*
X195972524Y-75729676D02*
X196067762Y-75634438D01*
X196067762Y-75634438D02*
X196210619Y-75586819D01*
X196210619Y-75586819D02*
X196305857Y-75586819D01*
X196305857Y-75586819D02*
X196448714Y-75634438D01*
X196448714Y-75634438D02*
X196496333Y-75682057D01*
X197353476Y-75586819D02*
X197163000Y-75586819D01*
X197163000Y-75586819D02*
X197067762Y-75634438D01*
X197067762Y-75634438D02*
X197020143Y-75682057D01*
X197020143Y-75682057D02*
X196924905Y-75824914D01*
X196924905Y-75824914D02*
X196877286Y-76015390D01*
X196877286Y-76015390D02*
X196877286Y-76396342D01*
X196877286Y-76396342D02*
X196924905Y-76491580D01*
X196924905Y-76491580D02*
X196972524Y-76539200D01*
X196972524Y-76539200D02*
X197067762Y-76586819D01*
X197067762Y-76586819D02*
X197258238Y-76586819D01*
X197258238Y-76586819D02*
X197353476Y-76539200D01*
X197353476Y-76539200D02*
X197401095Y-76491580D01*
X197401095Y-76491580D02*
X197448714Y-76396342D01*
X197448714Y-76396342D02*
X197448714Y-76158247D01*
X197448714Y-76158247D02*
X197401095Y-76063009D01*
X197401095Y-76063009D02*
X197353476Y-76015390D01*
X197353476Y-76015390D02*
X197258238Y-75967771D01*
X197258238Y-75967771D02*
X197067762Y-75967771D01*
X197067762Y-75967771D02*
X196972524Y-76015390D01*
X196972524Y-76015390D02*
X196924905Y-76063009D01*
X196924905Y-76063009D02*
X196877286Y-76158247D01*
X208526333Y-64036819D02*
X208193000Y-63560628D01*
X207954905Y-64036819D02*
X207954905Y-63036819D01*
X207954905Y-63036819D02*
X208335857Y-63036819D01*
X208335857Y-63036819D02*
X208431095Y-63084438D01*
X208431095Y-63084438D02*
X208478714Y-63132057D01*
X208478714Y-63132057D02*
X208526333Y-63227295D01*
X208526333Y-63227295D02*
X208526333Y-63370152D01*
X208526333Y-63370152D02*
X208478714Y-63465390D01*
X208478714Y-63465390D02*
X208431095Y-63513009D01*
X208431095Y-63513009D02*
X208335857Y-63560628D01*
X208335857Y-63560628D02*
X207954905Y-63560628D01*
X208859667Y-63036819D02*
X209526333Y-63036819D01*
X209526333Y-63036819D02*
X209097762Y-64036819D01*
X208526333Y-69056819D02*
X208193000Y-68580628D01*
X207954905Y-69056819D02*
X207954905Y-68056819D01*
X207954905Y-68056819D02*
X208335857Y-68056819D01*
X208335857Y-68056819D02*
X208431095Y-68104438D01*
X208431095Y-68104438D02*
X208478714Y-68152057D01*
X208478714Y-68152057D02*
X208526333Y-68247295D01*
X208526333Y-68247295D02*
X208526333Y-68390152D01*
X208526333Y-68390152D02*
X208478714Y-68485390D01*
X208478714Y-68485390D02*
X208431095Y-68533009D01*
X208431095Y-68533009D02*
X208335857Y-68580628D01*
X208335857Y-68580628D02*
X207954905Y-68580628D01*
X209002524Y-69056819D02*
X209193000Y-69056819D01*
X209193000Y-69056819D02*
X209288238Y-69009200D01*
X209288238Y-69009200D02*
X209335857Y-68961580D01*
X209335857Y-68961580D02*
X209431095Y-68818723D01*
X209431095Y-68818723D02*
X209478714Y-68628247D01*
X209478714Y-68628247D02*
X209478714Y-68247295D01*
X209478714Y-68247295D02*
X209431095Y-68152057D01*
X209431095Y-68152057D02*
X209383476Y-68104438D01*
X209383476Y-68104438D02*
X209288238Y-68056819D01*
X209288238Y-68056819D02*
X209097762Y-68056819D01*
X209097762Y-68056819D02*
X209002524Y-68104438D01*
X209002524Y-68104438D02*
X208954905Y-68152057D01*
X208954905Y-68152057D02*
X208907286Y-68247295D01*
X208907286Y-68247295D02*
X208907286Y-68485390D01*
X208907286Y-68485390D02*
X208954905Y-68580628D01*
X208954905Y-68580628D02*
X209002524Y-68628247D01*
X209002524Y-68628247D02*
X209097762Y-68675866D01*
X209097762Y-68675866D02*
X209288238Y-68675866D01*
X209288238Y-68675866D02*
X209383476Y-68628247D01*
X209383476Y-68628247D02*
X209431095Y-68580628D01*
X209431095Y-68580628D02*
X209478714Y-68485390D01*
X220070142Y-83511580D02*
X220022523Y-83559200D01*
X220022523Y-83559200D02*
X219879666Y-83606819D01*
X219879666Y-83606819D02*
X219784428Y-83606819D01*
X219784428Y-83606819D02*
X219641571Y-83559200D01*
X219641571Y-83559200D02*
X219546333Y-83463961D01*
X219546333Y-83463961D02*
X219498714Y-83368723D01*
X219498714Y-83368723D02*
X219451095Y-83178247D01*
X219451095Y-83178247D02*
X219451095Y-83035390D01*
X219451095Y-83035390D02*
X219498714Y-82844914D01*
X219498714Y-82844914D02*
X219546333Y-82749676D01*
X219546333Y-82749676D02*
X219641571Y-82654438D01*
X219641571Y-82654438D02*
X219784428Y-82606819D01*
X219784428Y-82606819D02*
X219879666Y-82606819D01*
X219879666Y-82606819D02*
X220022523Y-82654438D01*
X220022523Y-82654438D02*
X220070142Y-82702057D01*
X220451095Y-82702057D02*
X220498714Y-82654438D01*
X220498714Y-82654438D02*
X220593952Y-82606819D01*
X220593952Y-82606819D02*
X220832047Y-82606819D01*
X220832047Y-82606819D02*
X220927285Y-82654438D01*
X220927285Y-82654438D02*
X220974904Y-82702057D01*
X220974904Y-82702057D02*
X221022523Y-82797295D01*
X221022523Y-82797295D02*
X221022523Y-82892533D01*
X221022523Y-82892533D02*
X220974904Y-83035390D01*
X220974904Y-83035390D02*
X220403476Y-83606819D01*
X220403476Y-83606819D02*
X221022523Y-83606819D01*
X221641571Y-82606819D02*
X221736809Y-82606819D01*
X221736809Y-82606819D02*
X221832047Y-82654438D01*
X221832047Y-82654438D02*
X221879666Y-82702057D01*
X221879666Y-82702057D02*
X221927285Y-82797295D01*
X221927285Y-82797295D02*
X221974904Y-82987771D01*
X221974904Y-82987771D02*
X221974904Y-83225866D01*
X221974904Y-83225866D02*
X221927285Y-83416342D01*
X221927285Y-83416342D02*
X221879666Y-83511580D01*
X221879666Y-83511580D02*
X221832047Y-83559200D01*
X221832047Y-83559200D02*
X221736809Y-83606819D01*
X221736809Y-83606819D02*
X221641571Y-83606819D01*
X221641571Y-83606819D02*
X221546333Y-83559200D01*
X221546333Y-83559200D02*
X221498714Y-83511580D01*
X221498714Y-83511580D02*
X221451095Y-83416342D01*
X221451095Y-83416342D02*
X221403476Y-83225866D01*
X221403476Y-83225866D02*
X221403476Y-82987771D01*
X221403476Y-82987771D02*
X221451095Y-82797295D01*
X221451095Y-82797295D02*
X221498714Y-82702057D01*
X221498714Y-82702057D02*
X221546333Y-82654438D01*
X221546333Y-82654438D02*
X221641571Y-82606819D01*
X200030142Y-73981580D02*
X199982523Y-74029200D01*
X199982523Y-74029200D02*
X199839666Y-74076819D01*
X199839666Y-74076819D02*
X199744428Y-74076819D01*
X199744428Y-74076819D02*
X199601571Y-74029200D01*
X199601571Y-74029200D02*
X199506333Y-73933961D01*
X199506333Y-73933961D02*
X199458714Y-73838723D01*
X199458714Y-73838723D02*
X199411095Y-73648247D01*
X199411095Y-73648247D02*
X199411095Y-73505390D01*
X199411095Y-73505390D02*
X199458714Y-73314914D01*
X199458714Y-73314914D02*
X199506333Y-73219676D01*
X199506333Y-73219676D02*
X199601571Y-73124438D01*
X199601571Y-73124438D02*
X199744428Y-73076819D01*
X199744428Y-73076819D02*
X199839666Y-73076819D01*
X199839666Y-73076819D02*
X199982523Y-73124438D01*
X199982523Y-73124438D02*
X200030142Y-73172057D01*
X200982523Y-74076819D02*
X200411095Y-74076819D01*
X200696809Y-74076819D02*
X200696809Y-73076819D01*
X200696809Y-73076819D02*
X200601571Y-73219676D01*
X200601571Y-73219676D02*
X200506333Y-73314914D01*
X200506333Y-73314914D02*
X200411095Y-73362533D01*
X201363476Y-73172057D02*
X201411095Y-73124438D01*
X201411095Y-73124438D02*
X201506333Y-73076819D01*
X201506333Y-73076819D02*
X201744428Y-73076819D01*
X201744428Y-73076819D02*
X201839666Y-73124438D01*
X201839666Y-73124438D02*
X201887285Y-73172057D01*
X201887285Y-73172057D02*
X201934904Y-73267295D01*
X201934904Y-73267295D02*
X201934904Y-73362533D01*
X201934904Y-73362533D02*
X201887285Y-73505390D01*
X201887285Y-73505390D02*
X201315857Y-74076819D01*
X201315857Y-74076819D02*
X201934904Y-74076819D01*
X204516333Y-76586819D02*
X204183000Y-76110628D01*
X203944905Y-76586819D02*
X203944905Y-75586819D01*
X203944905Y-75586819D02*
X204325857Y-75586819D01*
X204325857Y-75586819D02*
X204421095Y-75634438D01*
X204421095Y-75634438D02*
X204468714Y-75682057D01*
X204468714Y-75682057D02*
X204516333Y-75777295D01*
X204516333Y-75777295D02*
X204516333Y-75920152D01*
X204516333Y-75920152D02*
X204468714Y-76015390D01*
X204468714Y-76015390D02*
X204421095Y-76063009D01*
X204421095Y-76063009D02*
X204325857Y-76110628D01*
X204325857Y-76110628D02*
X203944905Y-76110628D01*
X205421095Y-75586819D02*
X204944905Y-75586819D01*
X204944905Y-75586819D02*
X204897286Y-76063009D01*
X204897286Y-76063009D02*
X204944905Y-76015390D01*
X204944905Y-76015390D02*
X205040143Y-75967771D01*
X205040143Y-75967771D02*
X205278238Y-75967771D01*
X205278238Y-75967771D02*
X205373476Y-76015390D01*
X205373476Y-76015390D02*
X205421095Y-76063009D01*
X205421095Y-76063009D02*
X205468714Y-76158247D01*
X205468714Y-76158247D02*
X205468714Y-76396342D01*
X205468714Y-76396342D02*
X205421095Y-76491580D01*
X205421095Y-76491580D02*
X205373476Y-76539200D01*
X205373476Y-76539200D02*
X205278238Y-76586819D01*
X205278238Y-76586819D02*
X205040143Y-76586819D01*
X205040143Y-76586819D02*
X204944905Y-76539200D01*
X204944905Y-76539200D02*
X204897286Y-76491580D01*
X214060142Y-66451580D02*
X214012523Y-66499200D01*
X214012523Y-66499200D02*
X213869666Y-66546819D01*
X213869666Y-66546819D02*
X213774428Y-66546819D01*
X213774428Y-66546819D02*
X213631571Y-66499200D01*
X213631571Y-66499200D02*
X213536333Y-66403961D01*
X213536333Y-66403961D02*
X213488714Y-66308723D01*
X213488714Y-66308723D02*
X213441095Y-66118247D01*
X213441095Y-66118247D02*
X213441095Y-65975390D01*
X213441095Y-65975390D02*
X213488714Y-65784914D01*
X213488714Y-65784914D02*
X213536333Y-65689676D01*
X213536333Y-65689676D02*
X213631571Y-65594438D01*
X213631571Y-65594438D02*
X213774428Y-65546819D01*
X213774428Y-65546819D02*
X213869666Y-65546819D01*
X213869666Y-65546819D02*
X214012523Y-65594438D01*
X214012523Y-65594438D02*
X214060142Y-65642057D01*
X214441095Y-65642057D02*
X214488714Y-65594438D01*
X214488714Y-65594438D02*
X214583952Y-65546819D01*
X214583952Y-65546819D02*
X214822047Y-65546819D01*
X214822047Y-65546819D02*
X214917285Y-65594438D01*
X214917285Y-65594438D02*
X214964904Y-65642057D01*
X214964904Y-65642057D02*
X215012523Y-65737295D01*
X215012523Y-65737295D02*
X215012523Y-65832533D01*
X215012523Y-65832533D02*
X214964904Y-65975390D01*
X214964904Y-65975390D02*
X214393476Y-66546819D01*
X214393476Y-66546819D02*
X215012523Y-66546819D01*
X215917285Y-65546819D02*
X215441095Y-65546819D01*
X215441095Y-65546819D02*
X215393476Y-66023009D01*
X215393476Y-66023009D02*
X215441095Y-65975390D01*
X215441095Y-65975390D02*
X215536333Y-65927771D01*
X215536333Y-65927771D02*
X215774428Y-65927771D01*
X215774428Y-65927771D02*
X215869666Y-65975390D01*
X215869666Y-65975390D02*
X215917285Y-66023009D01*
X215917285Y-66023009D02*
X215964904Y-66118247D01*
X215964904Y-66118247D02*
X215964904Y-66356342D01*
X215964904Y-66356342D02*
X215917285Y-66451580D01*
X215917285Y-66451580D02*
X215869666Y-66499200D01*
X215869666Y-66499200D02*
X215774428Y-66546819D01*
X215774428Y-66546819D02*
X215536333Y-66546819D01*
X215536333Y-66546819D02*
X215441095Y-66499200D01*
X215441095Y-66499200D02*
X215393476Y-66451580D01*
X204040142Y-63941580D02*
X203992523Y-63989200D01*
X203992523Y-63989200D02*
X203849666Y-64036819D01*
X203849666Y-64036819D02*
X203754428Y-64036819D01*
X203754428Y-64036819D02*
X203611571Y-63989200D01*
X203611571Y-63989200D02*
X203516333Y-63893961D01*
X203516333Y-63893961D02*
X203468714Y-63798723D01*
X203468714Y-63798723D02*
X203421095Y-63608247D01*
X203421095Y-63608247D02*
X203421095Y-63465390D01*
X203421095Y-63465390D02*
X203468714Y-63274914D01*
X203468714Y-63274914D02*
X203516333Y-63179676D01*
X203516333Y-63179676D02*
X203611571Y-63084438D01*
X203611571Y-63084438D02*
X203754428Y-63036819D01*
X203754428Y-63036819D02*
X203849666Y-63036819D01*
X203849666Y-63036819D02*
X203992523Y-63084438D01*
X203992523Y-63084438D02*
X204040142Y-63132057D01*
X204992523Y-64036819D02*
X204421095Y-64036819D01*
X204706809Y-64036819D02*
X204706809Y-63036819D01*
X204706809Y-63036819D02*
X204611571Y-63179676D01*
X204611571Y-63179676D02*
X204516333Y-63274914D01*
X204516333Y-63274914D02*
X204421095Y-63322533D01*
X205897285Y-63036819D02*
X205421095Y-63036819D01*
X205421095Y-63036819D02*
X205373476Y-63513009D01*
X205373476Y-63513009D02*
X205421095Y-63465390D01*
X205421095Y-63465390D02*
X205516333Y-63417771D01*
X205516333Y-63417771D02*
X205754428Y-63417771D01*
X205754428Y-63417771D02*
X205849666Y-63465390D01*
X205849666Y-63465390D02*
X205897285Y-63513009D01*
X205897285Y-63513009D02*
X205944904Y-63608247D01*
X205944904Y-63608247D02*
X205944904Y-63846342D01*
X205944904Y-63846342D02*
X205897285Y-63941580D01*
X205897285Y-63941580D02*
X205849666Y-63989200D01*
X205849666Y-63989200D02*
X205754428Y-64036819D01*
X205754428Y-64036819D02*
X205516333Y-64036819D01*
X205516333Y-64036819D02*
X205421095Y-63989200D01*
X205421095Y-63989200D02*
X205373476Y-63941580D01*
X200030142Y-79001580D02*
X199982523Y-79049200D01*
X199982523Y-79049200D02*
X199839666Y-79096819D01*
X199839666Y-79096819D02*
X199744428Y-79096819D01*
X199744428Y-79096819D02*
X199601571Y-79049200D01*
X199601571Y-79049200D02*
X199506333Y-78953961D01*
X199506333Y-78953961D02*
X199458714Y-78858723D01*
X199458714Y-78858723D02*
X199411095Y-78668247D01*
X199411095Y-78668247D02*
X199411095Y-78525390D01*
X199411095Y-78525390D02*
X199458714Y-78334914D01*
X199458714Y-78334914D02*
X199506333Y-78239676D01*
X199506333Y-78239676D02*
X199601571Y-78144438D01*
X199601571Y-78144438D02*
X199744428Y-78096819D01*
X199744428Y-78096819D02*
X199839666Y-78096819D01*
X199839666Y-78096819D02*
X199982523Y-78144438D01*
X199982523Y-78144438D02*
X200030142Y-78192057D01*
X200982523Y-79096819D02*
X200411095Y-79096819D01*
X200696809Y-79096819D02*
X200696809Y-78096819D01*
X200696809Y-78096819D02*
X200601571Y-78239676D01*
X200601571Y-78239676D02*
X200506333Y-78334914D01*
X200506333Y-78334914D02*
X200411095Y-78382533D01*
X201839666Y-78430152D02*
X201839666Y-79096819D01*
X201601571Y-78049200D02*
X201363476Y-78763485D01*
X201363476Y-78763485D02*
X201982523Y-78763485D01*
X200030142Y-68961580D02*
X199982523Y-69009200D01*
X199982523Y-69009200D02*
X199839666Y-69056819D01*
X199839666Y-69056819D02*
X199744428Y-69056819D01*
X199744428Y-69056819D02*
X199601571Y-69009200D01*
X199601571Y-69009200D02*
X199506333Y-68913961D01*
X199506333Y-68913961D02*
X199458714Y-68818723D01*
X199458714Y-68818723D02*
X199411095Y-68628247D01*
X199411095Y-68628247D02*
X199411095Y-68485390D01*
X199411095Y-68485390D02*
X199458714Y-68294914D01*
X199458714Y-68294914D02*
X199506333Y-68199676D01*
X199506333Y-68199676D02*
X199601571Y-68104438D01*
X199601571Y-68104438D02*
X199744428Y-68056819D01*
X199744428Y-68056819D02*
X199839666Y-68056819D01*
X199839666Y-68056819D02*
X199982523Y-68104438D01*
X199982523Y-68104438D02*
X200030142Y-68152057D01*
X200982523Y-69056819D02*
X200411095Y-69056819D01*
X200696809Y-69056819D02*
X200696809Y-68056819D01*
X200696809Y-68056819D02*
X200601571Y-68199676D01*
X200601571Y-68199676D02*
X200506333Y-68294914D01*
X200506333Y-68294914D02*
X200411095Y-68342533D01*
X201601571Y-68056819D02*
X201696809Y-68056819D01*
X201696809Y-68056819D02*
X201792047Y-68104438D01*
X201792047Y-68104438D02*
X201839666Y-68152057D01*
X201839666Y-68152057D02*
X201887285Y-68247295D01*
X201887285Y-68247295D02*
X201934904Y-68437771D01*
X201934904Y-68437771D02*
X201934904Y-68675866D01*
X201934904Y-68675866D02*
X201887285Y-68866342D01*
X201887285Y-68866342D02*
X201839666Y-68961580D01*
X201839666Y-68961580D02*
X201792047Y-69009200D01*
X201792047Y-69009200D02*
X201696809Y-69056819D01*
X201696809Y-69056819D02*
X201601571Y-69056819D01*
X201601571Y-69056819D02*
X201506333Y-69009200D01*
X201506333Y-69009200D02*
X201458714Y-68961580D01*
X201458714Y-68961580D02*
X201411095Y-68866342D01*
X201411095Y-68866342D02*
X201363476Y-68675866D01*
X201363476Y-68675866D02*
X201363476Y-68437771D01*
X201363476Y-68437771D02*
X201411095Y-68247295D01*
X201411095Y-68247295D02*
X201458714Y-68152057D01*
X201458714Y-68152057D02*
X201506333Y-68104438D01*
X201506333Y-68104438D02*
X201601571Y-68056819D01*
X200506333Y-66451580D02*
X200458714Y-66499200D01*
X200458714Y-66499200D02*
X200315857Y-66546819D01*
X200315857Y-66546819D02*
X200220619Y-66546819D01*
X200220619Y-66546819D02*
X200077762Y-66499200D01*
X200077762Y-66499200D02*
X199982524Y-66403961D01*
X199982524Y-66403961D02*
X199934905Y-66308723D01*
X199934905Y-66308723D02*
X199887286Y-66118247D01*
X199887286Y-66118247D02*
X199887286Y-65975390D01*
X199887286Y-65975390D02*
X199934905Y-65784914D01*
X199934905Y-65784914D02*
X199982524Y-65689676D01*
X199982524Y-65689676D02*
X200077762Y-65594438D01*
X200077762Y-65594438D02*
X200220619Y-65546819D01*
X200220619Y-65546819D02*
X200315857Y-65546819D01*
X200315857Y-65546819D02*
X200458714Y-65594438D01*
X200458714Y-65594438D02*
X200506333Y-65642057D01*
X200982524Y-66546819D02*
X201173000Y-66546819D01*
X201173000Y-66546819D02*
X201268238Y-66499200D01*
X201268238Y-66499200D02*
X201315857Y-66451580D01*
X201315857Y-66451580D02*
X201411095Y-66308723D01*
X201411095Y-66308723D02*
X201458714Y-66118247D01*
X201458714Y-66118247D02*
X201458714Y-65737295D01*
X201458714Y-65737295D02*
X201411095Y-65642057D01*
X201411095Y-65642057D02*
X201363476Y-65594438D01*
X201363476Y-65594438D02*
X201268238Y-65546819D01*
X201268238Y-65546819D02*
X201077762Y-65546819D01*
X201077762Y-65546819D02*
X200982524Y-65594438D01*
X200982524Y-65594438D02*
X200934905Y-65642057D01*
X200934905Y-65642057D02*
X200887286Y-65737295D01*
X200887286Y-65737295D02*
X200887286Y-65975390D01*
X200887286Y-65975390D02*
X200934905Y-66070628D01*
X200934905Y-66070628D02*
X200982524Y-66118247D01*
X200982524Y-66118247D02*
X201077762Y-66165866D01*
X201077762Y-66165866D02*
X201268238Y-66165866D01*
X201268238Y-66165866D02*
X201363476Y-66118247D01*
X201363476Y-66118247D02*
X201411095Y-66070628D01*
X201411095Y-66070628D02*
X201458714Y-65975390D01*
X220070142Y-66451580D02*
X220022523Y-66499200D01*
X220022523Y-66499200D02*
X219879666Y-66546819D01*
X219879666Y-66546819D02*
X219784428Y-66546819D01*
X219784428Y-66546819D02*
X219641571Y-66499200D01*
X219641571Y-66499200D02*
X219546333Y-66403961D01*
X219546333Y-66403961D02*
X219498714Y-66308723D01*
X219498714Y-66308723D02*
X219451095Y-66118247D01*
X219451095Y-66118247D02*
X219451095Y-65975390D01*
X219451095Y-65975390D02*
X219498714Y-65784914D01*
X219498714Y-65784914D02*
X219546333Y-65689676D01*
X219546333Y-65689676D02*
X219641571Y-65594438D01*
X219641571Y-65594438D02*
X219784428Y-65546819D01*
X219784428Y-65546819D02*
X219879666Y-65546819D01*
X219879666Y-65546819D02*
X220022523Y-65594438D01*
X220022523Y-65594438D02*
X220070142Y-65642057D01*
X221022523Y-66546819D02*
X220451095Y-66546819D01*
X220736809Y-66546819D02*
X220736809Y-65546819D01*
X220736809Y-65546819D02*
X220641571Y-65689676D01*
X220641571Y-65689676D02*
X220546333Y-65784914D01*
X220546333Y-65784914D02*
X220451095Y-65832533D01*
X221593952Y-65975390D02*
X221498714Y-65927771D01*
X221498714Y-65927771D02*
X221451095Y-65880152D01*
X221451095Y-65880152D02*
X221403476Y-65784914D01*
X221403476Y-65784914D02*
X221403476Y-65737295D01*
X221403476Y-65737295D02*
X221451095Y-65642057D01*
X221451095Y-65642057D02*
X221498714Y-65594438D01*
X221498714Y-65594438D02*
X221593952Y-65546819D01*
X221593952Y-65546819D02*
X221784428Y-65546819D01*
X221784428Y-65546819D02*
X221879666Y-65594438D01*
X221879666Y-65594438D02*
X221927285Y-65642057D01*
X221927285Y-65642057D02*
X221974904Y-65737295D01*
X221974904Y-65737295D02*
X221974904Y-65784914D01*
X221974904Y-65784914D02*
X221927285Y-65880152D01*
X221927285Y-65880152D02*
X221879666Y-65927771D01*
X221879666Y-65927771D02*
X221784428Y-65975390D01*
X221784428Y-65975390D02*
X221593952Y-65975390D01*
X221593952Y-65975390D02*
X221498714Y-66023009D01*
X221498714Y-66023009D02*
X221451095Y-66070628D01*
X221451095Y-66070628D02*
X221403476Y-66165866D01*
X221403476Y-66165866D02*
X221403476Y-66356342D01*
X221403476Y-66356342D02*
X221451095Y-66451580D01*
X221451095Y-66451580D02*
X221498714Y-66499200D01*
X221498714Y-66499200D02*
X221593952Y-66546819D01*
X221593952Y-66546819D02*
X221784428Y-66546819D01*
X221784428Y-66546819D02*
X221879666Y-66499200D01*
X221879666Y-66499200D02*
X221927285Y-66451580D01*
X221927285Y-66451580D02*
X221974904Y-66356342D01*
X221974904Y-66356342D02*
X221974904Y-66165866D01*
X221974904Y-66165866D02*
X221927285Y-66070628D01*
X221927285Y-66070628D02*
X221879666Y-66023009D01*
X221879666Y-66023009D02*
X221784428Y-65975390D01*
X201281095Y-82381819D02*
X201281095Y-83191342D01*
X201281095Y-83191342D02*
X201328714Y-83286580D01*
X201328714Y-83286580D02*
X201376333Y-83334200D01*
X201376333Y-83334200D02*
X201471571Y-83381819D01*
X201471571Y-83381819D02*
X201662047Y-83381819D01*
X201662047Y-83381819D02*
X201757285Y-83334200D01*
X201757285Y-83334200D02*
X201804904Y-83286580D01*
X201804904Y-83286580D02*
X201852523Y-83191342D01*
X201852523Y-83191342D02*
X201852523Y-82381819D01*
X202804904Y-82381819D02*
X202328714Y-82381819D01*
X202328714Y-82381819D02*
X202281095Y-82858009D01*
X202281095Y-82858009D02*
X202328714Y-82810390D01*
X202328714Y-82810390D02*
X202423952Y-82762771D01*
X202423952Y-82762771D02*
X202662047Y-82762771D01*
X202662047Y-82762771D02*
X202757285Y-82810390D01*
X202757285Y-82810390D02*
X202804904Y-82858009D01*
X202804904Y-82858009D02*
X202852523Y-82953247D01*
X202852523Y-82953247D02*
X202852523Y-83191342D01*
X202852523Y-83191342D02*
X202804904Y-83286580D01*
X202804904Y-83286580D02*
X202757285Y-83334200D01*
X202757285Y-83334200D02*
X202662047Y-83381819D01*
X202662047Y-83381819D02*
X202423952Y-83381819D01*
X202423952Y-83381819D02*
X202328714Y-83334200D01*
X202328714Y-83334200D02*
X202281095Y-83286580D01*
X214060142Y-71471580D02*
X214012523Y-71519200D01*
X214012523Y-71519200D02*
X213869666Y-71566819D01*
X213869666Y-71566819D02*
X213774428Y-71566819D01*
X213774428Y-71566819D02*
X213631571Y-71519200D01*
X213631571Y-71519200D02*
X213536333Y-71423961D01*
X213536333Y-71423961D02*
X213488714Y-71328723D01*
X213488714Y-71328723D02*
X213441095Y-71138247D01*
X213441095Y-71138247D02*
X213441095Y-70995390D01*
X213441095Y-70995390D02*
X213488714Y-70804914D01*
X213488714Y-70804914D02*
X213536333Y-70709676D01*
X213536333Y-70709676D02*
X213631571Y-70614438D01*
X213631571Y-70614438D02*
X213774428Y-70566819D01*
X213774428Y-70566819D02*
X213869666Y-70566819D01*
X213869666Y-70566819D02*
X214012523Y-70614438D01*
X214012523Y-70614438D02*
X214060142Y-70662057D01*
X214441095Y-70662057D02*
X214488714Y-70614438D01*
X214488714Y-70614438D02*
X214583952Y-70566819D01*
X214583952Y-70566819D02*
X214822047Y-70566819D01*
X214822047Y-70566819D02*
X214917285Y-70614438D01*
X214917285Y-70614438D02*
X214964904Y-70662057D01*
X214964904Y-70662057D02*
X215012523Y-70757295D01*
X215012523Y-70757295D02*
X215012523Y-70852533D01*
X215012523Y-70852533D02*
X214964904Y-70995390D01*
X214964904Y-70995390D02*
X214393476Y-71566819D01*
X214393476Y-71566819D02*
X215012523Y-71566819D01*
X215345857Y-70566819D02*
X216012523Y-70566819D01*
X216012523Y-70566819D02*
X215583952Y-71566819D01*
X214060142Y-73981580D02*
X214012523Y-74029200D01*
X214012523Y-74029200D02*
X213869666Y-74076819D01*
X213869666Y-74076819D02*
X213774428Y-74076819D01*
X213774428Y-74076819D02*
X213631571Y-74029200D01*
X213631571Y-74029200D02*
X213536333Y-73933961D01*
X213536333Y-73933961D02*
X213488714Y-73838723D01*
X213488714Y-73838723D02*
X213441095Y-73648247D01*
X213441095Y-73648247D02*
X213441095Y-73505390D01*
X213441095Y-73505390D02*
X213488714Y-73314914D01*
X213488714Y-73314914D02*
X213536333Y-73219676D01*
X213536333Y-73219676D02*
X213631571Y-73124438D01*
X213631571Y-73124438D02*
X213774428Y-73076819D01*
X213774428Y-73076819D02*
X213869666Y-73076819D01*
X213869666Y-73076819D02*
X214012523Y-73124438D01*
X214012523Y-73124438D02*
X214060142Y-73172057D01*
X214441095Y-73172057D02*
X214488714Y-73124438D01*
X214488714Y-73124438D02*
X214583952Y-73076819D01*
X214583952Y-73076819D02*
X214822047Y-73076819D01*
X214822047Y-73076819D02*
X214917285Y-73124438D01*
X214917285Y-73124438D02*
X214964904Y-73172057D01*
X214964904Y-73172057D02*
X215012523Y-73267295D01*
X215012523Y-73267295D02*
X215012523Y-73362533D01*
X215012523Y-73362533D02*
X214964904Y-73505390D01*
X214964904Y-73505390D02*
X214393476Y-74076819D01*
X214393476Y-74076819D02*
X215012523Y-74076819D01*
X215583952Y-73505390D02*
X215488714Y-73457771D01*
X215488714Y-73457771D02*
X215441095Y-73410152D01*
X215441095Y-73410152D02*
X215393476Y-73314914D01*
X215393476Y-73314914D02*
X215393476Y-73267295D01*
X215393476Y-73267295D02*
X215441095Y-73172057D01*
X215441095Y-73172057D02*
X215488714Y-73124438D01*
X215488714Y-73124438D02*
X215583952Y-73076819D01*
X215583952Y-73076819D02*
X215774428Y-73076819D01*
X215774428Y-73076819D02*
X215869666Y-73124438D01*
X215869666Y-73124438D02*
X215917285Y-73172057D01*
X215917285Y-73172057D02*
X215964904Y-73267295D01*
X215964904Y-73267295D02*
X215964904Y-73314914D01*
X215964904Y-73314914D02*
X215917285Y-73410152D01*
X215917285Y-73410152D02*
X215869666Y-73457771D01*
X215869666Y-73457771D02*
X215774428Y-73505390D01*
X215774428Y-73505390D02*
X215583952Y-73505390D01*
X215583952Y-73505390D02*
X215488714Y-73553009D01*
X215488714Y-73553009D02*
X215441095Y-73600628D01*
X215441095Y-73600628D02*
X215393476Y-73695866D01*
X215393476Y-73695866D02*
X215393476Y-73886342D01*
X215393476Y-73886342D02*
X215441095Y-73981580D01*
X215441095Y-73981580D02*
X215488714Y-74029200D01*
X215488714Y-74029200D02*
X215583952Y-74076819D01*
X215583952Y-74076819D02*
X215774428Y-74076819D01*
X215774428Y-74076819D02*
X215869666Y-74029200D01*
X215869666Y-74029200D02*
X215917285Y-73981580D01*
X215917285Y-73981580D02*
X215964904Y-73886342D01*
X215964904Y-73886342D02*
X215964904Y-73695866D01*
X215964904Y-73695866D02*
X215917285Y-73600628D01*
X215917285Y-73600628D02*
X215869666Y-73553009D01*
X215869666Y-73553009D02*
X215774428Y-73505390D01*
X200030142Y-76491580D02*
X199982523Y-76539200D01*
X199982523Y-76539200D02*
X199839666Y-76586819D01*
X199839666Y-76586819D02*
X199744428Y-76586819D01*
X199744428Y-76586819D02*
X199601571Y-76539200D01*
X199601571Y-76539200D02*
X199506333Y-76443961D01*
X199506333Y-76443961D02*
X199458714Y-76348723D01*
X199458714Y-76348723D02*
X199411095Y-76158247D01*
X199411095Y-76158247D02*
X199411095Y-76015390D01*
X199411095Y-76015390D02*
X199458714Y-75824914D01*
X199458714Y-75824914D02*
X199506333Y-75729676D01*
X199506333Y-75729676D02*
X199601571Y-75634438D01*
X199601571Y-75634438D02*
X199744428Y-75586819D01*
X199744428Y-75586819D02*
X199839666Y-75586819D01*
X199839666Y-75586819D02*
X199982523Y-75634438D01*
X199982523Y-75634438D02*
X200030142Y-75682057D01*
X200982523Y-76586819D02*
X200411095Y-76586819D01*
X200696809Y-76586819D02*
X200696809Y-75586819D01*
X200696809Y-75586819D02*
X200601571Y-75729676D01*
X200601571Y-75729676D02*
X200506333Y-75824914D01*
X200506333Y-75824914D02*
X200411095Y-75872533D01*
X201315857Y-75586819D02*
X201934904Y-75586819D01*
X201934904Y-75586819D02*
X201601571Y-75967771D01*
X201601571Y-75967771D02*
X201744428Y-75967771D01*
X201744428Y-75967771D02*
X201839666Y-76015390D01*
X201839666Y-76015390D02*
X201887285Y-76063009D01*
X201887285Y-76063009D02*
X201934904Y-76158247D01*
X201934904Y-76158247D02*
X201934904Y-76396342D01*
X201934904Y-76396342D02*
X201887285Y-76491580D01*
X201887285Y-76491580D02*
X201839666Y-76539200D01*
X201839666Y-76539200D02*
X201744428Y-76586819D01*
X201744428Y-76586819D02*
X201458714Y-76586819D01*
X201458714Y-76586819D02*
X201363476Y-76539200D01*
X201363476Y-76539200D02*
X201315857Y-76491580D01*
X220070142Y-63941580D02*
X220022523Y-63989200D01*
X220022523Y-63989200D02*
X219879666Y-64036819D01*
X219879666Y-64036819D02*
X219784428Y-64036819D01*
X219784428Y-64036819D02*
X219641571Y-63989200D01*
X219641571Y-63989200D02*
X219546333Y-63893961D01*
X219546333Y-63893961D02*
X219498714Y-63798723D01*
X219498714Y-63798723D02*
X219451095Y-63608247D01*
X219451095Y-63608247D02*
X219451095Y-63465390D01*
X219451095Y-63465390D02*
X219498714Y-63274914D01*
X219498714Y-63274914D02*
X219546333Y-63179676D01*
X219546333Y-63179676D02*
X219641571Y-63084438D01*
X219641571Y-63084438D02*
X219784428Y-63036819D01*
X219784428Y-63036819D02*
X219879666Y-63036819D01*
X219879666Y-63036819D02*
X220022523Y-63084438D01*
X220022523Y-63084438D02*
X220070142Y-63132057D01*
X221022523Y-64036819D02*
X220451095Y-64036819D01*
X220736809Y-64036819D02*
X220736809Y-63036819D01*
X220736809Y-63036819D02*
X220641571Y-63179676D01*
X220641571Y-63179676D02*
X220546333Y-63274914D01*
X220546333Y-63274914D02*
X220451095Y-63322533D01*
X221355857Y-63036819D02*
X222022523Y-63036819D01*
X222022523Y-63036819D02*
X221593952Y-64036819D01*
X200030142Y-71471580D02*
X199982523Y-71519200D01*
X199982523Y-71519200D02*
X199839666Y-71566819D01*
X199839666Y-71566819D02*
X199744428Y-71566819D01*
X199744428Y-71566819D02*
X199601571Y-71519200D01*
X199601571Y-71519200D02*
X199506333Y-71423961D01*
X199506333Y-71423961D02*
X199458714Y-71328723D01*
X199458714Y-71328723D02*
X199411095Y-71138247D01*
X199411095Y-71138247D02*
X199411095Y-70995390D01*
X199411095Y-70995390D02*
X199458714Y-70804914D01*
X199458714Y-70804914D02*
X199506333Y-70709676D01*
X199506333Y-70709676D02*
X199601571Y-70614438D01*
X199601571Y-70614438D02*
X199744428Y-70566819D01*
X199744428Y-70566819D02*
X199839666Y-70566819D01*
X199839666Y-70566819D02*
X199982523Y-70614438D01*
X199982523Y-70614438D02*
X200030142Y-70662057D01*
X200982523Y-71566819D02*
X200411095Y-71566819D01*
X200696809Y-71566819D02*
X200696809Y-70566819D01*
X200696809Y-70566819D02*
X200601571Y-70709676D01*
X200601571Y-70709676D02*
X200506333Y-70804914D01*
X200506333Y-70804914D02*
X200411095Y-70852533D01*
X201934904Y-71566819D02*
X201363476Y-71566819D01*
X201649190Y-71566819D02*
X201649190Y-70566819D01*
X201649190Y-70566819D02*
X201553952Y-70709676D01*
X201553952Y-70709676D02*
X201458714Y-70804914D01*
X201458714Y-70804914D02*
X201363476Y-70852533D01*
X196020142Y-88531580D02*
X195972523Y-88579200D01*
X195972523Y-88579200D02*
X195829666Y-88626819D01*
X195829666Y-88626819D02*
X195734428Y-88626819D01*
X195734428Y-88626819D02*
X195591571Y-88579200D01*
X195591571Y-88579200D02*
X195496333Y-88483961D01*
X195496333Y-88483961D02*
X195448714Y-88388723D01*
X195448714Y-88388723D02*
X195401095Y-88198247D01*
X195401095Y-88198247D02*
X195401095Y-88055390D01*
X195401095Y-88055390D02*
X195448714Y-87864914D01*
X195448714Y-87864914D02*
X195496333Y-87769676D01*
X195496333Y-87769676D02*
X195591571Y-87674438D01*
X195591571Y-87674438D02*
X195734428Y-87626819D01*
X195734428Y-87626819D02*
X195829666Y-87626819D01*
X195829666Y-87626819D02*
X195972523Y-87674438D01*
X195972523Y-87674438D02*
X196020142Y-87722057D01*
X196401095Y-87722057D02*
X196448714Y-87674438D01*
X196448714Y-87674438D02*
X196543952Y-87626819D01*
X196543952Y-87626819D02*
X196782047Y-87626819D01*
X196782047Y-87626819D02*
X196877285Y-87674438D01*
X196877285Y-87674438D02*
X196924904Y-87722057D01*
X196924904Y-87722057D02*
X196972523Y-87817295D01*
X196972523Y-87817295D02*
X196972523Y-87912533D01*
X196972523Y-87912533D02*
X196924904Y-88055390D01*
X196924904Y-88055390D02*
X196353476Y-88626819D01*
X196353476Y-88626819D02*
X196972523Y-88626819D01*
X197305857Y-87626819D02*
X197924904Y-87626819D01*
X197924904Y-87626819D02*
X197591571Y-88007771D01*
X197591571Y-88007771D02*
X197734428Y-88007771D01*
X197734428Y-88007771D02*
X197829666Y-88055390D01*
X197829666Y-88055390D02*
X197877285Y-88103009D01*
X197877285Y-88103009D02*
X197924904Y-88198247D01*
X197924904Y-88198247D02*
X197924904Y-88436342D01*
X197924904Y-88436342D02*
X197877285Y-88531580D01*
X197877285Y-88531580D02*
X197829666Y-88579200D01*
X197829666Y-88579200D02*
X197734428Y-88626819D01*
X197734428Y-88626819D02*
X197448714Y-88626819D01*
X197448714Y-88626819D02*
X197353476Y-88579200D01*
X197353476Y-88579200D02*
X197305857Y-88531580D01*
X196134595Y-90492819D02*
X196134595Y-91302342D01*
X196134595Y-91302342D02*
X196182214Y-91397580D01*
X196182214Y-91397580D02*
X196229833Y-91445200D01*
X196229833Y-91445200D02*
X196325071Y-91492819D01*
X196325071Y-91492819D02*
X196515547Y-91492819D01*
X196515547Y-91492819D02*
X196610785Y-91445200D01*
X196610785Y-91445200D02*
X196658404Y-91397580D01*
X196658404Y-91397580D02*
X196706023Y-91302342D01*
X196706023Y-91302342D02*
X196706023Y-90492819D01*
X197610785Y-90826152D02*
X197610785Y-91492819D01*
X197372690Y-90445200D02*
X197134595Y-91159485D01*
X197134595Y-91159485D02*
X197753642Y-91159485D01*
X214060142Y-76586819D02*
X213726809Y-76110628D01*
X213488714Y-76586819D02*
X213488714Y-75586819D01*
X213488714Y-75586819D02*
X213869666Y-75586819D01*
X213869666Y-75586819D02*
X213964904Y-75634438D01*
X213964904Y-75634438D02*
X214012523Y-75682057D01*
X214012523Y-75682057D02*
X214060142Y-75777295D01*
X214060142Y-75777295D02*
X214060142Y-75920152D01*
X214060142Y-75920152D02*
X214012523Y-76015390D01*
X214012523Y-76015390D02*
X213964904Y-76063009D01*
X213964904Y-76063009D02*
X213869666Y-76110628D01*
X213869666Y-76110628D02*
X213488714Y-76110628D01*
X215012523Y-76586819D02*
X214441095Y-76586819D01*
X214726809Y-76586819D02*
X214726809Y-75586819D01*
X214726809Y-75586819D02*
X214631571Y-75729676D01*
X214631571Y-75729676D02*
X214536333Y-75824914D01*
X214536333Y-75824914D02*
X214441095Y-75872533D01*
X215964904Y-76586819D02*
X215393476Y-76586819D01*
X215679190Y-76586819D02*
X215679190Y-75586819D01*
X215679190Y-75586819D02*
X215583952Y-75729676D01*
X215583952Y-75729676D02*
X215488714Y-75824914D01*
X215488714Y-75824914D02*
X215393476Y-75872533D01*
X220070142Y-81001580D02*
X220022523Y-81049200D01*
X220022523Y-81049200D02*
X219879666Y-81096819D01*
X219879666Y-81096819D02*
X219784428Y-81096819D01*
X219784428Y-81096819D02*
X219641571Y-81049200D01*
X219641571Y-81049200D02*
X219546333Y-80953961D01*
X219546333Y-80953961D02*
X219498714Y-80858723D01*
X219498714Y-80858723D02*
X219451095Y-80668247D01*
X219451095Y-80668247D02*
X219451095Y-80525390D01*
X219451095Y-80525390D02*
X219498714Y-80334914D01*
X219498714Y-80334914D02*
X219546333Y-80239676D01*
X219546333Y-80239676D02*
X219641571Y-80144438D01*
X219641571Y-80144438D02*
X219784428Y-80096819D01*
X219784428Y-80096819D02*
X219879666Y-80096819D01*
X219879666Y-80096819D02*
X220022523Y-80144438D01*
X220022523Y-80144438D02*
X220070142Y-80192057D01*
X221022523Y-81096819D02*
X220451095Y-81096819D01*
X220736809Y-81096819D02*
X220736809Y-80096819D01*
X220736809Y-80096819D02*
X220641571Y-80239676D01*
X220641571Y-80239676D02*
X220546333Y-80334914D01*
X220546333Y-80334914D02*
X220451095Y-80382533D01*
X221498714Y-81096819D02*
X221689190Y-81096819D01*
X221689190Y-81096819D02*
X221784428Y-81049200D01*
X221784428Y-81049200D02*
X221832047Y-81001580D01*
X221832047Y-81001580D02*
X221927285Y-80858723D01*
X221927285Y-80858723D02*
X221974904Y-80668247D01*
X221974904Y-80668247D02*
X221974904Y-80287295D01*
X221974904Y-80287295D02*
X221927285Y-80192057D01*
X221927285Y-80192057D02*
X221879666Y-80144438D01*
X221879666Y-80144438D02*
X221784428Y-80096819D01*
X221784428Y-80096819D02*
X221593952Y-80096819D01*
X221593952Y-80096819D02*
X221498714Y-80144438D01*
X221498714Y-80144438D02*
X221451095Y-80192057D01*
X221451095Y-80192057D02*
X221403476Y-80287295D01*
X221403476Y-80287295D02*
X221403476Y-80525390D01*
X221403476Y-80525390D02*
X221451095Y-80620628D01*
X221451095Y-80620628D02*
X221498714Y-80668247D01*
X221498714Y-80668247D02*
X221593952Y-80715866D01*
X221593952Y-80715866D02*
X221784428Y-80715866D01*
X221784428Y-80715866D02*
X221879666Y-80668247D01*
X221879666Y-80668247D02*
X221927285Y-80620628D01*
X221927285Y-80620628D02*
X221974904Y-80525390D01*
X196496333Y-68961580D02*
X196448714Y-69009200D01*
X196448714Y-69009200D02*
X196305857Y-69056819D01*
X196305857Y-69056819D02*
X196210619Y-69056819D01*
X196210619Y-69056819D02*
X196067762Y-69009200D01*
X196067762Y-69009200D02*
X195972524Y-68913961D01*
X195972524Y-68913961D02*
X195924905Y-68818723D01*
X195924905Y-68818723D02*
X195877286Y-68628247D01*
X195877286Y-68628247D02*
X195877286Y-68485390D01*
X195877286Y-68485390D02*
X195924905Y-68294914D01*
X195924905Y-68294914D02*
X195972524Y-68199676D01*
X195972524Y-68199676D02*
X196067762Y-68104438D01*
X196067762Y-68104438D02*
X196210619Y-68056819D01*
X196210619Y-68056819D02*
X196305857Y-68056819D01*
X196305857Y-68056819D02*
X196448714Y-68104438D01*
X196448714Y-68104438D02*
X196496333Y-68152057D01*
X196829667Y-68056819D02*
X197448714Y-68056819D01*
X197448714Y-68056819D02*
X197115381Y-68437771D01*
X197115381Y-68437771D02*
X197258238Y-68437771D01*
X197258238Y-68437771D02*
X197353476Y-68485390D01*
X197353476Y-68485390D02*
X197401095Y-68533009D01*
X197401095Y-68533009D02*
X197448714Y-68628247D01*
X197448714Y-68628247D02*
X197448714Y-68866342D01*
X197448714Y-68866342D02*
X197401095Y-68961580D01*
X197401095Y-68961580D02*
X197353476Y-69009200D01*
X197353476Y-69009200D02*
X197258238Y-69056819D01*
X197258238Y-69056819D02*
X196972524Y-69056819D01*
X196972524Y-69056819D02*
X196877286Y-69009200D01*
X196877286Y-69009200D02*
X196829667Y-68961580D01*
X214060142Y-68961580D02*
X214012523Y-69009200D01*
X214012523Y-69009200D02*
X213869666Y-69056819D01*
X213869666Y-69056819D02*
X213774428Y-69056819D01*
X213774428Y-69056819D02*
X213631571Y-69009200D01*
X213631571Y-69009200D02*
X213536333Y-68913961D01*
X213536333Y-68913961D02*
X213488714Y-68818723D01*
X213488714Y-68818723D02*
X213441095Y-68628247D01*
X213441095Y-68628247D02*
X213441095Y-68485390D01*
X213441095Y-68485390D02*
X213488714Y-68294914D01*
X213488714Y-68294914D02*
X213536333Y-68199676D01*
X213536333Y-68199676D02*
X213631571Y-68104438D01*
X213631571Y-68104438D02*
X213774428Y-68056819D01*
X213774428Y-68056819D02*
X213869666Y-68056819D01*
X213869666Y-68056819D02*
X214012523Y-68104438D01*
X214012523Y-68104438D02*
X214060142Y-68152057D01*
X214441095Y-68152057D02*
X214488714Y-68104438D01*
X214488714Y-68104438D02*
X214583952Y-68056819D01*
X214583952Y-68056819D02*
X214822047Y-68056819D01*
X214822047Y-68056819D02*
X214917285Y-68104438D01*
X214917285Y-68104438D02*
X214964904Y-68152057D01*
X214964904Y-68152057D02*
X215012523Y-68247295D01*
X215012523Y-68247295D02*
X215012523Y-68342533D01*
X215012523Y-68342533D02*
X214964904Y-68485390D01*
X214964904Y-68485390D02*
X214393476Y-69056819D01*
X214393476Y-69056819D02*
X215012523Y-69056819D01*
X215869666Y-68056819D02*
X215679190Y-68056819D01*
X215679190Y-68056819D02*
X215583952Y-68104438D01*
X215583952Y-68104438D02*
X215536333Y-68152057D01*
X215536333Y-68152057D02*
X215441095Y-68294914D01*
X215441095Y-68294914D02*
X215393476Y-68485390D01*
X215393476Y-68485390D02*
X215393476Y-68866342D01*
X215393476Y-68866342D02*
X215441095Y-68961580D01*
X215441095Y-68961580D02*
X215488714Y-69009200D01*
X215488714Y-69009200D02*
X215583952Y-69056819D01*
X215583952Y-69056819D02*
X215774428Y-69056819D01*
X215774428Y-69056819D02*
X215869666Y-69009200D01*
X215869666Y-69009200D02*
X215917285Y-68961580D01*
X215917285Y-68961580D02*
X215964904Y-68866342D01*
X215964904Y-68866342D02*
X215964904Y-68628247D01*
X215964904Y-68628247D02*
X215917285Y-68533009D01*
X215917285Y-68533009D02*
X215869666Y-68485390D01*
X215869666Y-68485390D02*
X215774428Y-68437771D01*
X215774428Y-68437771D02*
X215583952Y-68437771D01*
X215583952Y-68437771D02*
X215488714Y-68485390D01*
X215488714Y-68485390D02*
X215441095Y-68533009D01*
X215441095Y-68533009D02*
X215393476Y-68628247D01*
X214060142Y-63941580D02*
X214012523Y-63989200D01*
X214012523Y-63989200D02*
X213869666Y-64036819D01*
X213869666Y-64036819D02*
X213774428Y-64036819D01*
X213774428Y-64036819D02*
X213631571Y-63989200D01*
X213631571Y-63989200D02*
X213536333Y-63893961D01*
X213536333Y-63893961D02*
X213488714Y-63798723D01*
X213488714Y-63798723D02*
X213441095Y-63608247D01*
X213441095Y-63608247D02*
X213441095Y-63465390D01*
X213441095Y-63465390D02*
X213488714Y-63274914D01*
X213488714Y-63274914D02*
X213536333Y-63179676D01*
X213536333Y-63179676D02*
X213631571Y-63084438D01*
X213631571Y-63084438D02*
X213774428Y-63036819D01*
X213774428Y-63036819D02*
X213869666Y-63036819D01*
X213869666Y-63036819D02*
X214012523Y-63084438D01*
X214012523Y-63084438D02*
X214060142Y-63132057D01*
X214441095Y-63132057D02*
X214488714Y-63084438D01*
X214488714Y-63084438D02*
X214583952Y-63036819D01*
X214583952Y-63036819D02*
X214822047Y-63036819D01*
X214822047Y-63036819D02*
X214917285Y-63084438D01*
X214917285Y-63084438D02*
X214964904Y-63132057D01*
X214964904Y-63132057D02*
X215012523Y-63227295D01*
X215012523Y-63227295D02*
X215012523Y-63322533D01*
X215012523Y-63322533D02*
X214964904Y-63465390D01*
X214964904Y-63465390D02*
X214393476Y-64036819D01*
X214393476Y-64036819D02*
X215012523Y-64036819D01*
X215869666Y-63370152D02*
X215869666Y-64036819D01*
X215631571Y-62989200D02*
X215393476Y-63703485D01*
X215393476Y-63703485D02*
X216012523Y-63703485D01*
X214536333Y-81096819D02*
X214203000Y-80620628D01*
X213964905Y-81096819D02*
X213964905Y-80096819D01*
X213964905Y-80096819D02*
X214345857Y-80096819D01*
X214345857Y-80096819D02*
X214441095Y-80144438D01*
X214441095Y-80144438D02*
X214488714Y-80192057D01*
X214488714Y-80192057D02*
X214536333Y-80287295D01*
X214536333Y-80287295D02*
X214536333Y-80430152D01*
X214536333Y-80430152D02*
X214488714Y-80525390D01*
X214488714Y-80525390D02*
X214441095Y-80573009D01*
X214441095Y-80573009D02*
X214345857Y-80620628D01*
X214345857Y-80620628D02*
X213964905Y-80620628D01*
X215488714Y-81096819D02*
X214917286Y-81096819D01*
X215203000Y-81096819D02*
X215203000Y-80096819D01*
X215203000Y-80096819D02*
X215107762Y-80239676D01*
X215107762Y-80239676D02*
X215012524Y-80334914D01*
X215012524Y-80334914D02*
X214917286Y-80382533D01*
X204516333Y-79096819D02*
X204183000Y-78620628D01*
X203944905Y-79096819D02*
X203944905Y-78096819D01*
X203944905Y-78096819D02*
X204325857Y-78096819D01*
X204325857Y-78096819D02*
X204421095Y-78144438D01*
X204421095Y-78144438D02*
X204468714Y-78192057D01*
X204468714Y-78192057D02*
X204516333Y-78287295D01*
X204516333Y-78287295D02*
X204516333Y-78430152D01*
X204516333Y-78430152D02*
X204468714Y-78525390D01*
X204468714Y-78525390D02*
X204421095Y-78573009D01*
X204421095Y-78573009D02*
X204325857Y-78620628D01*
X204325857Y-78620628D02*
X203944905Y-78620628D01*
X205373476Y-78096819D02*
X205183000Y-78096819D01*
X205183000Y-78096819D02*
X205087762Y-78144438D01*
X205087762Y-78144438D02*
X205040143Y-78192057D01*
X205040143Y-78192057D02*
X204944905Y-78334914D01*
X204944905Y-78334914D02*
X204897286Y-78525390D01*
X204897286Y-78525390D02*
X204897286Y-78906342D01*
X204897286Y-78906342D02*
X204944905Y-79001580D01*
X204944905Y-79001580D02*
X204992524Y-79049200D01*
X204992524Y-79049200D02*
X205087762Y-79096819D01*
X205087762Y-79096819D02*
X205278238Y-79096819D01*
X205278238Y-79096819D02*
X205373476Y-79049200D01*
X205373476Y-79049200D02*
X205421095Y-79001580D01*
X205421095Y-79001580D02*
X205468714Y-78906342D01*
X205468714Y-78906342D02*
X205468714Y-78668247D01*
X205468714Y-78668247D02*
X205421095Y-78573009D01*
X205421095Y-78573009D02*
X205373476Y-78525390D01*
X205373476Y-78525390D02*
X205278238Y-78477771D01*
X205278238Y-78477771D02*
X205087762Y-78477771D01*
X205087762Y-78477771D02*
X204992524Y-78525390D01*
X204992524Y-78525390D02*
X204944905Y-78573009D01*
X204944905Y-78573009D02*
X204897286Y-78668247D01*
X200506333Y-63941580D02*
X200458714Y-63989200D01*
X200458714Y-63989200D02*
X200315857Y-64036819D01*
X200315857Y-64036819D02*
X200220619Y-64036819D01*
X200220619Y-64036819D02*
X200077762Y-63989200D01*
X200077762Y-63989200D02*
X199982524Y-63893961D01*
X199982524Y-63893961D02*
X199934905Y-63798723D01*
X199934905Y-63798723D02*
X199887286Y-63608247D01*
X199887286Y-63608247D02*
X199887286Y-63465390D01*
X199887286Y-63465390D02*
X199934905Y-63274914D01*
X199934905Y-63274914D02*
X199982524Y-63179676D01*
X199982524Y-63179676D02*
X200077762Y-63084438D01*
X200077762Y-63084438D02*
X200220619Y-63036819D01*
X200220619Y-63036819D02*
X200315857Y-63036819D01*
X200315857Y-63036819D02*
X200458714Y-63084438D01*
X200458714Y-63084438D02*
X200506333Y-63132057D01*
X201077762Y-63465390D02*
X200982524Y-63417771D01*
X200982524Y-63417771D02*
X200934905Y-63370152D01*
X200934905Y-63370152D02*
X200887286Y-63274914D01*
X200887286Y-63274914D02*
X200887286Y-63227295D01*
X200887286Y-63227295D02*
X200934905Y-63132057D01*
X200934905Y-63132057D02*
X200982524Y-63084438D01*
X200982524Y-63084438D02*
X201077762Y-63036819D01*
X201077762Y-63036819D02*
X201268238Y-63036819D01*
X201268238Y-63036819D02*
X201363476Y-63084438D01*
X201363476Y-63084438D02*
X201411095Y-63132057D01*
X201411095Y-63132057D02*
X201458714Y-63227295D01*
X201458714Y-63227295D02*
X201458714Y-63274914D01*
X201458714Y-63274914D02*
X201411095Y-63370152D01*
X201411095Y-63370152D02*
X201363476Y-63417771D01*
X201363476Y-63417771D02*
X201268238Y-63465390D01*
X201268238Y-63465390D02*
X201077762Y-63465390D01*
X201077762Y-63465390D02*
X200982524Y-63513009D01*
X200982524Y-63513009D02*
X200934905Y-63560628D01*
X200934905Y-63560628D02*
X200887286Y-63655866D01*
X200887286Y-63655866D02*
X200887286Y-63846342D01*
X200887286Y-63846342D02*
X200934905Y-63941580D01*
X200934905Y-63941580D02*
X200982524Y-63989200D01*
X200982524Y-63989200D02*
X201077762Y-64036819D01*
X201077762Y-64036819D02*
X201268238Y-64036819D01*
X201268238Y-64036819D02*
X201363476Y-63989200D01*
X201363476Y-63989200D02*
X201411095Y-63941580D01*
X201411095Y-63941580D02*
X201458714Y-63846342D01*
X201458714Y-63846342D02*
X201458714Y-63655866D01*
X201458714Y-63655866D02*
X201411095Y-63560628D01*
X201411095Y-63560628D02*
X201363476Y-63513009D01*
X201363476Y-63513009D02*
X201268238Y-63465390D01*
X196496333Y-66451580D02*
X196448714Y-66499200D01*
X196448714Y-66499200D02*
X196305857Y-66546819D01*
X196305857Y-66546819D02*
X196210619Y-66546819D01*
X196210619Y-66546819D02*
X196067762Y-66499200D01*
X196067762Y-66499200D02*
X195972524Y-66403961D01*
X195972524Y-66403961D02*
X195924905Y-66308723D01*
X195924905Y-66308723D02*
X195877286Y-66118247D01*
X195877286Y-66118247D02*
X195877286Y-65975390D01*
X195877286Y-65975390D02*
X195924905Y-65784914D01*
X195924905Y-65784914D02*
X195972524Y-65689676D01*
X195972524Y-65689676D02*
X196067762Y-65594438D01*
X196067762Y-65594438D02*
X196210619Y-65546819D01*
X196210619Y-65546819D02*
X196305857Y-65546819D01*
X196305857Y-65546819D02*
X196448714Y-65594438D01*
X196448714Y-65594438D02*
X196496333Y-65642057D01*
X196877286Y-65642057D02*
X196924905Y-65594438D01*
X196924905Y-65594438D02*
X197020143Y-65546819D01*
X197020143Y-65546819D02*
X197258238Y-65546819D01*
X197258238Y-65546819D02*
X197353476Y-65594438D01*
X197353476Y-65594438D02*
X197401095Y-65642057D01*
X197401095Y-65642057D02*
X197448714Y-65737295D01*
X197448714Y-65737295D02*
X197448714Y-65832533D01*
X197448714Y-65832533D02*
X197401095Y-65975390D01*
X197401095Y-65975390D02*
X196829667Y-66546819D01*
X196829667Y-66546819D02*
X197448714Y-66546819D01*
X204516333Y-71566819D02*
X204183000Y-71090628D01*
X203944905Y-71566819D02*
X203944905Y-70566819D01*
X203944905Y-70566819D02*
X204325857Y-70566819D01*
X204325857Y-70566819D02*
X204421095Y-70614438D01*
X204421095Y-70614438D02*
X204468714Y-70662057D01*
X204468714Y-70662057D02*
X204516333Y-70757295D01*
X204516333Y-70757295D02*
X204516333Y-70900152D01*
X204516333Y-70900152D02*
X204468714Y-70995390D01*
X204468714Y-70995390D02*
X204421095Y-71043009D01*
X204421095Y-71043009D02*
X204325857Y-71090628D01*
X204325857Y-71090628D02*
X203944905Y-71090628D01*
X204849667Y-70566819D02*
X205468714Y-70566819D01*
X205468714Y-70566819D02*
X205135381Y-70947771D01*
X205135381Y-70947771D02*
X205278238Y-70947771D01*
X205278238Y-70947771D02*
X205373476Y-70995390D01*
X205373476Y-70995390D02*
X205421095Y-71043009D01*
X205421095Y-71043009D02*
X205468714Y-71138247D01*
X205468714Y-71138247D02*
X205468714Y-71376342D01*
X205468714Y-71376342D02*
X205421095Y-71471580D01*
X205421095Y-71471580D02*
X205373476Y-71519200D01*
X205373476Y-71519200D02*
X205278238Y-71566819D01*
X205278238Y-71566819D02*
X204992524Y-71566819D01*
X204992524Y-71566819D02*
X204897286Y-71519200D01*
X204897286Y-71519200D02*
X204849667Y-71471580D01*
X208050142Y-71566819D02*
X207716809Y-71090628D01*
X207478714Y-71566819D02*
X207478714Y-70566819D01*
X207478714Y-70566819D02*
X207859666Y-70566819D01*
X207859666Y-70566819D02*
X207954904Y-70614438D01*
X207954904Y-70614438D02*
X208002523Y-70662057D01*
X208002523Y-70662057D02*
X208050142Y-70757295D01*
X208050142Y-70757295D02*
X208050142Y-70900152D01*
X208050142Y-70900152D02*
X208002523Y-70995390D01*
X208002523Y-70995390D02*
X207954904Y-71043009D01*
X207954904Y-71043009D02*
X207859666Y-71090628D01*
X207859666Y-71090628D02*
X207478714Y-71090628D01*
X209002523Y-71566819D02*
X208431095Y-71566819D01*
X208716809Y-71566819D02*
X208716809Y-70566819D01*
X208716809Y-70566819D02*
X208621571Y-70709676D01*
X208621571Y-70709676D02*
X208526333Y-70804914D01*
X208526333Y-70804914D02*
X208431095Y-70852533D01*
X209621571Y-70566819D02*
X209716809Y-70566819D01*
X209716809Y-70566819D02*
X209812047Y-70614438D01*
X209812047Y-70614438D02*
X209859666Y-70662057D01*
X209859666Y-70662057D02*
X209907285Y-70757295D01*
X209907285Y-70757295D02*
X209954904Y-70947771D01*
X209954904Y-70947771D02*
X209954904Y-71185866D01*
X209954904Y-71185866D02*
X209907285Y-71376342D01*
X209907285Y-71376342D02*
X209859666Y-71471580D01*
X209859666Y-71471580D02*
X209812047Y-71519200D01*
X209812047Y-71519200D02*
X209716809Y-71566819D01*
X209716809Y-71566819D02*
X209621571Y-71566819D01*
X209621571Y-71566819D02*
X209526333Y-71519200D01*
X209526333Y-71519200D02*
X209478714Y-71471580D01*
X209478714Y-71471580D02*
X209431095Y-71376342D01*
X209431095Y-71376342D02*
X209383476Y-71185866D01*
X209383476Y-71185866D02*
X209383476Y-70947771D01*
X209383476Y-70947771D02*
X209431095Y-70757295D01*
X209431095Y-70757295D02*
X209478714Y-70662057D01*
X209478714Y-70662057D02*
X209526333Y-70614438D01*
X209526333Y-70614438D02*
X209621571Y-70566819D01*
X204516333Y-74076819D02*
X204183000Y-73600628D01*
X203944905Y-74076819D02*
X203944905Y-73076819D01*
X203944905Y-73076819D02*
X204325857Y-73076819D01*
X204325857Y-73076819D02*
X204421095Y-73124438D01*
X204421095Y-73124438D02*
X204468714Y-73172057D01*
X204468714Y-73172057D02*
X204516333Y-73267295D01*
X204516333Y-73267295D02*
X204516333Y-73410152D01*
X204516333Y-73410152D02*
X204468714Y-73505390D01*
X204468714Y-73505390D02*
X204421095Y-73553009D01*
X204421095Y-73553009D02*
X204325857Y-73600628D01*
X204325857Y-73600628D02*
X203944905Y-73600628D01*
X205373476Y-73410152D02*
X205373476Y-74076819D01*
X205135381Y-73029200D02*
X204897286Y-73743485D01*
X204897286Y-73743485D02*
X205516333Y-73743485D01*
X204516333Y-69056819D02*
X204183000Y-68580628D01*
X203944905Y-69056819D02*
X203944905Y-68056819D01*
X203944905Y-68056819D02*
X204325857Y-68056819D01*
X204325857Y-68056819D02*
X204421095Y-68104438D01*
X204421095Y-68104438D02*
X204468714Y-68152057D01*
X204468714Y-68152057D02*
X204516333Y-68247295D01*
X204516333Y-68247295D02*
X204516333Y-68390152D01*
X204516333Y-68390152D02*
X204468714Y-68485390D01*
X204468714Y-68485390D02*
X204421095Y-68533009D01*
X204421095Y-68533009D02*
X204325857Y-68580628D01*
X204325857Y-68580628D02*
X203944905Y-68580628D01*
X204897286Y-68152057D02*
X204944905Y-68104438D01*
X204944905Y-68104438D02*
X205040143Y-68056819D01*
X205040143Y-68056819D02*
X205278238Y-68056819D01*
X205278238Y-68056819D02*
X205373476Y-68104438D01*
X205373476Y-68104438D02*
X205421095Y-68152057D01*
X205421095Y-68152057D02*
X205468714Y-68247295D01*
X205468714Y-68247295D02*
X205468714Y-68342533D01*
X205468714Y-68342533D02*
X205421095Y-68485390D01*
X205421095Y-68485390D02*
X204849667Y-69056819D01*
X204849667Y-69056819D02*
X205468714Y-69056819D01*
X196020142Y-83511580D02*
X195972523Y-83559200D01*
X195972523Y-83559200D02*
X195829666Y-83606819D01*
X195829666Y-83606819D02*
X195734428Y-83606819D01*
X195734428Y-83606819D02*
X195591571Y-83559200D01*
X195591571Y-83559200D02*
X195496333Y-83463961D01*
X195496333Y-83463961D02*
X195448714Y-83368723D01*
X195448714Y-83368723D02*
X195401095Y-83178247D01*
X195401095Y-83178247D02*
X195401095Y-83035390D01*
X195401095Y-83035390D02*
X195448714Y-82844914D01*
X195448714Y-82844914D02*
X195496333Y-82749676D01*
X195496333Y-82749676D02*
X195591571Y-82654438D01*
X195591571Y-82654438D02*
X195734428Y-82606819D01*
X195734428Y-82606819D02*
X195829666Y-82606819D01*
X195829666Y-82606819D02*
X195972523Y-82654438D01*
X195972523Y-82654438D02*
X196020142Y-82702057D01*
X196401095Y-82702057D02*
X196448714Y-82654438D01*
X196448714Y-82654438D02*
X196543952Y-82606819D01*
X196543952Y-82606819D02*
X196782047Y-82606819D01*
X196782047Y-82606819D02*
X196877285Y-82654438D01*
X196877285Y-82654438D02*
X196924904Y-82702057D01*
X196924904Y-82702057D02*
X196972523Y-82797295D01*
X196972523Y-82797295D02*
X196972523Y-82892533D01*
X196972523Y-82892533D02*
X196924904Y-83035390D01*
X196924904Y-83035390D02*
X196353476Y-83606819D01*
X196353476Y-83606819D02*
X196972523Y-83606819D01*
X197924904Y-83606819D02*
X197353476Y-83606819D01*
X197639190Y-83606819D02*
X197639190Y-82606819D01*
X197639190Y-82606819D02*
X197543952Y-82749676D01*
X197543952Y-82749676D02*
X197448714Y-82844914D01*
X197448714Y-82844914D02*
X197353476Y-82892533D01*
X196496333Y-79001580D02*
X196448714Y-79049200D01*
X196448714Y-79049200D02*
X196305857Y-79096819D01*
X196305857Y-79096819D02*
X196210619Y-79096819D01*
X196210619Y-79096819D02*
X196067762Y-79049200D01*
X196067762Y-79049200D02*
X195972524Y-78953961D01*
X195972524Y-78953961D02*
X195924905Y-78858723D01*
X195924905Y-78858723D02*
X195877286Y-78668247D01*
X195877286Y-78668247D02*
X195877286Y-78525390D01*
X195877286Y-78525390D02*
X195924905Y-78334914D01*
X195924905Y-78334914D02*
X195972524Y-78239676D01*
X195972524Y-78239676D02*
X196067762Y-78144438D01*
X196067762Y-78144438D02*
X196210619Y-78096819D01*
X196210619Y-78096819D02*
X196305857Y-78096819D01*
X196305857Y-78096819D02*
X196448714Y-78144438D01*
X196448714Y-78144438D02*
X196496333Y-78192057D01*
X196829667Y-78096819D02*
X197496333Y-78096819D01*
X197496333Y-78096819D02*
X197067762Y-79096819D01*
X204040142Y-66451580D02*
X203992523Y-66499200D01*
X203992523Y-66499200D02*
X203849666Y-66546819D01*
X203849666Y-66546819D02*
X203754428Y-66546819D01*
X203754428Y-66546819D02*
X203611571Y-66499200D01*
X203611571Y-66499200D02*
X203516333Y-66403961D01*
X203516333Y-66403961D02*
X203468714Y-66308723D01*
X203468714Y-66308723D02*
X203421095Y-66118247D01*
X203421095Y-66118247D02*
X203421095Y-65975390D01*
X203421095Y-65975390D02*
X203468714Y-65784914D01*
X203468714Y-65784914D02*
X203516333Y-65689676D01*
X203516333Y-65689676D02*
X203611571Y-65594438D01*
X203611571Y-65594438D02*
X203754428Y-65546819D01*
X203754428Y-65546819D02*
X203849666Y-65546819D01*
X203849666Y-65546819D02*
X203992523Y-65594438D01*
X203992523Y-65594438D02*
X204040142Y-65642057D01*
X204992523Y-66546819D02*
X204421095Y-66546819D01*
X204706809Y-66546819D02*
X204706809Y-65546819D01*
X204706809Y-65546819D02*
X204611571Y-65689676D01*
X204611571Y-65689676D02*
X204516333Y-65784914D01*
X204516333Y-65784914D02*
X204421095Y-65832533D01*
X205849666Y-65546819D02*
X205659190Y-65546819D01*
X205659190Y-65546819D02*
X205563952Y-65594438D01*
X205563952Y-65594438D02*
X205516333Y-65642057D01*
X205516333Y-65642057D02*
X205421095Y-65784914D01*
X205421095Y-65784914D02*
X205373476Y-65975390D01*
X205373476Y-65975390D02*
X205373476Y-66356342D01*
X205373476Y-66356342D02*
X205421095Y-66451580D01*
X205421095Y-66451580D02*
X205468714Y-66499200D01*
X205468714Y-66499200D02*
X205563952Y-66546819D01*
X205563952Y-66546819D02*
X205754428Y-66546819D01*
X205754428Y-66546819D02*
X205849666Y-66499200D01*
X205849666Y-66499200D02*
X205897285Y-66451580D01*
X205897285Y-66451580D02*
X205944904Y-66356342D01*
X205944904Y-66356342D02*
X205944904Y-66118247D01*
X205944904Y-66118247D02*
X205897285Y-66023009D01*
X205897285Y-66023009D02*
X205849666Y-65975390D01*
X205849666Y-65975390D02*
X205754428Y-65927771D01*
X205754428Y-65927771D02*
X205563952Y-65927771D01*
X205563952Y-65927771D02*
X205468714Y-65975390D01*
X205468714Y-65975390D02*
X205421095Y-66023009D01*
X205421095Y-66023009D02*
X205373476Y-66118247D01*
D11*
%TO.C,C22*%
X196522420Y-86582000D02*
X196803580Y-86582000D01*
X196522420Y-87602000D02*
X196803580Y-87602000D01*
%TO.C,R12*%
X214465742Y-84059500D02*
X214940258Y-84059500D01*
X214465742Y-85104500D02*
X214940258Y-85104500D01*
%TO.C,R8*%
X208455742Y-66999500D02*
X208930258Y-66999500D01*
X208455742Y-68044500D02*
X208930258Y-68044500D01*
%TO.C,C1*%
X196522420Y-64502000D02*
X196803580Y-64502000D01*
X196522420Y-65522000D02*
X196803580Y-65522000D01*
%TO.C,C4*%
X196522420Y-72032000D02*
X196803580Y-72032000D01*
X196522420Y-73052000D02*
X196803580Y-73052000D01*
%TO.C,C5*%
X196522420Y-74542000D02*
X196803580Y-74542000D01*
X196522420Y-75562000D02*
X196803580Y-75562000D01*
%TO.C,C6*%
X196522420Y-77052000D02*
X196803580Y-77052000D01*
X196522420Y-78072000D02*
X196803580Y-78072000D01*
%TO.C,R7*%
X208455742Y-64489500D02*
X208930258Y-64489500D01*
X208455742Y-65534500D02*
X208930258Y-65534500D01*
%TO.C,R9*%
X208455742Y-69509500D02*
X208930258Y-69509500D01*
X208455742Y-70554500D02*
X208930258Y-70554500D01*
%TO.C,C20*%
X220572420Y-84072000D02*
X220853580Y-84072000D01*
X220572420Y-85092000D02*
X220853580Y-85092000D01*
%TO.C,C12*%
X200532420Y-74542000D02*
X200813580Y-74542000D01*
X200532420Y-75562000D02*
X200813580Y-75562000D01*
%TO.C,R5*%
X204445742Y-77039500D02*
X204920258Y-77039500D01*
X204445742Y-78084500D02*
X204920258Y-78084500D01*
%TO.C,C25*%
X214562420Y-67012000D02*
X214843580Y-67012000D01*
X214562420Y-68032000D02*
X214843580Y-68032000D01*
%TO.C,C15*%
X204542420Y-64502000D02*
X204823580Y-64502000D01*
X204542420Y-65522000D02*
X204823580Y-65522000D01*
%TO.C,C14*%
X200532420Y-79562000D02*
X200813580Y-79562000D01*
X200532420Y-80582000D02*
X200813580Y-80582000D01*
%TO.C,C10*%
X200532420Y-69522000D02*
X200813580Y-69522000D01*
X200532420Y-70542000D02*
X200813580Y-70542000D01*
%TO.C,C9*%
X200532420Y-67012000D02*
X200813580Y-67012000D01*
X200532420Y-68032000D02*
X200813580Y-68032000D01*
%TO.C,C18*%
X220572420Y-67012000D02*
X220853580Y-67012000D01*
X220572420Y-68032000D02*
X220853580Y-68032000D01*
%TO.C,U5*%
X200823000Y-84067000D02*
X203403000Y-84067000D01*
X203403000Y-85047000D02*
X203403000Y-84067000D01*
X203403000Y-87807000D02*
X203403000Y-88787000D01*
X203403000Y-88787000D02*
X200683000Y-88787000D01*
X200273000Y-84217000D02*
X200033000Y-83887000D01*
X200513000Y-83887000D01*
X200273000Y-84217000D01*
G36*
X200273000Y-84217000D02*
G01*
X200033000Y-83887000D01*
X200513000Y-83887000D01*
X200273000Y-84217000D01*
G37*
%TO.C,C27*%
X214562420Y-72032000D02*
X214843580Y-72032000D01*
X214562420Y-73052000D02*
X214843580Y-73052000D01*
%TO.C,C28*%
X214562420Y-74542000D02*
X214843580Y-74542000D01*
X214562420Y-75562000D02*
X214843580Y-75562000D01*
%TO.C,C13*%
X200532420Y-77052000D02*
X200813580Y-77052000D01*
X200532420Y-78072000D02*
X200813580Y-78072000D01*
%TO.C,C17*%
X220572420Y-64502000D02*
X220853580Y-64502000D01*
X220572420Y-65522000D02*
X220853580Y-65522000D01*
%TO.C,C11*%
X200532420Y-72032000D02*
X200813580Y-72032000D01*
X200532420Y-73052000D02*
X200813580Y-73052000D01*
%TO.C,C23*%
X196522420Y-89092000D02*
X196803580Y-89092000D01*
X196522420Y-90112000D02*
X196803580Y-90112000D01*
%TO.C,U4*%
X196896500Y-91878000D02*
X195396500Y-91878000D01*
X196896500Y-91878000D02*
X198396500Y-91878000D01*
X196896500Y-95098000D02*
X195396500Y-95098000D01*
X196896500Y-95098000D02*
X198396500Y-95098000D01*
X194684000Y-92053000D02*
X194444000Y-91723000D01*
X194924000Y-91723000D01*
X194684000Y-92053000D01*
G36*
X194684000Y-92053000D02*
G01*
X194444000Y-91723000D01*
X194924000Y-91723000D01*
X194684000Y-92053000D01*
G37*
%TO.C,R11*%
X214465742Y-77039500D02*
X214940258Y-77039500D01*
X214465742Y-78084500D02*
X214940258Y-78084500D01*
%TO.C,C19*%
X220572420Y-81562000D02*
X220853580Y-81562000D01*
X220572420Y-82582000D02*
X220853580Y-82582000D01*
%TO.C,C3*%
X196522420Y-69522000D02*
X196803580Y-69522000D01*
X196522420Y-70542000D02*
X196803580Y-70542000D01*
%TO.C,C26*%
X214562420Y-69522000D02*
X214843580Y-69522000D01*
X214562420Y-70542000D02*
X214843580Y-70542000D01*
%TO.C,C24*%
X214562420Y-64502000D02*
X214843580Y-64502000D01*
X214562420Y-65522000D02*
X214843580Y-65522000D01*
%TO.C,R1*%
X214465742Y-81549500D02*
X214940258Y-81549500D01*
X214465742Y-82594500D02*
X214940258Y-82594500D01*
%TO.C,R6*%
X204445742Y-79549500D02*
X204920258Y-79549500D01*
X204445742Y-80594500D02*
X204920258Y-80594500D01*
%TO.C,C8*%
X200532420Y-64502000D02*
X200813580Y-64502000D01*
X200532420Y-65522000D02*
X200813580Y-65522000D01*
%TO.C,C2*%
X196522420Y-67012000D02*
X196803580Y-67012000D01*
X196522420Y-68032000D02*
X196803580Y-68032000D01*
%TO.C,R3*%
X204445742Y-72019500D02*
X204920258Y-72019500D01*
X204445742Y-73064500D02*
X204920258Y-73064500D01*
%TO.C,R10*%
X208455742Y-72019500D02*
X208930258Y-72019500D01*
X208455742Y-73064500D02*
X208930258Y-73064500D01*
%TO.C,R4*%
X204445742Y-74529500D02*
X204920258Y-74529500D01*
X204445742Y-75574500D02*
X204920258Y-75574500D01*
%TO.C,R2*%
X204445742Y-69509500D02*
X204920258Y-69509500D01*
X204445742Y-70554500D02*
X204920258Y-70554500D01*
%TO.C,C21*%
X196522420Y-84072000D02*
X196803580Y-84072000D01*
X196522420Y-85092000D02*
X196803580Y-85092000D01*
%TO.C,C7*%
X196522420Y-79562000D02*
X196803580Y-79562000D01*
X196522420Y-80582000D02*
X196803580Y-80582000D01*
%TO.C,C16*%
X204542420Y-67012000D02*
X204823580Y-67012000D01*
X204542420Y-68032000D02*
X204823580Y-68032000D01*
%TD*%
%LPC*%
D12*
%TO.C,C22*%
X195888000Y-87092000D03*
X197438000Y-87092000D03*
%TD*%
D13*
%TO.C,R12*%
X213878000Y-84582000D03*
X215528000Y-84582000D03*
%TD*%
%TO.C,R8*%
X207868000Y-67522000D03*
X209518000Y-67522000D03*
%TD*%
D12*
%TO.C,C1*%
X195888000Y-65012000D03*
X197438000Y-65012000D03*
%TD*%
%TO.C,C4*%
X195888000Y-72542000D03*
X197438000Y-72542000D03*
%TD*%
%TO.C,C5*%
X195888000Y-75052000D03*
X197438000Y-75052000D03*
%TD*%
%TO.C,C6*%
X195888000Y-77562000D03*
X197438000Y-77562000D03*
%TD*%
D13*
%TO.C,R7*%
X207868000Y-65012000D03*
X209518000Y-65012000D03*
%TD*%
%TO.C,R9*%
X207868000Y-70032000D03*
X209518000Y-70032000D03*
%TD*%
D12*
%TO.C,C20*%
X219938000Y-84582000D03*
X221488000Y-84582000D03*
%TD*%
%TO.C,C12*%
X199898000Y-75052000D03*
X201448000Y-75052000D03*
%TD*%
D13*
%TO.C,R5*%
X203858000Y-77562000D03*
X205508000Y-77562000D03*
%TD*%
D12*
%TO.C,C25*%
X213928000Y-67522000D03*
X215478000Y-67522000D03*
%TD*%
%TO.C,C15*%
X203908000Y-65012000D03*
X205458000Y-65012000D03*
%TD*%
%TO.C,C14*%
X199898000Y-80072000D03*
X201448000Y-80072000D03*
%TD*%
%TO.C,C10*%
X199898000Y-70032000D03*
X201448000Y-70032000D03*
%TD*%
%TO.C,C9*%
X199898000Y-67522000D03*
X201448000Y-67522000D03*
%TD*%
%TO.C,C18*%
X219938000Y-67522000D03*
X221488000Y-67522000D03*
%TD*%
D14*
%TO.C,U5*%
X200093000Y-84927000D03*
D15*
X200180500Y-86427000D03*
D14*
X200093000Y-87927000D03*
%TD*%
D12*
%TO.C,C27*%
X213928000Y-72542000D03*
X215478000Y-72542000D03*
%TD*%
%TO.C,C28*%
X213928000Y-75052000D03*
X215478000Y-75052000D03*
%TD*%
%TO.C,C13*%
X199898000Y-77562000D03*
X201448000Y-77562000D03*
%TD*%
%TO.C,C17*%
X219938000Y-65012000D03*
X221488000Y-65012000D03*
%TD*%
%TO.C,C11*%
X199898000Y-72542000D03*
X201448000Y-72542000D03*
%TD*%
%TO.C,C23*%
X195888000Y-89602000D03*
X197438000Y-89602000D03*
%TD*%
D16*
%TO.C,U4*%
X194784000Y-92488000D03*
X194784000Y-92988000D03*
X194784000Y-93488000D03*
X194784000Y-93988000D03*
X194784000Y-94488000D03*
X199009000Y-94488000D03*
X199009000Y-93988000D03*
X199009000Y-93488000D03*
X199009000Y-92988000D03*
X199009000Y-92488000D03*
%TD*%
D13*
%TO.C,R11*%
X213878000Y-77562000D03*
X215528000Y-77562000D03*
%TD*%
D12*
%TO.C,C19*%
X219938000Y-82072000D03*
X221488000Y-82072000D03*
%TD*%
%TO.C,C3*%
X195888000Y-70032000D03*
X197438000Y-70032000D03*
%TD*%
%TO.C,C26*%
X213928000Y-70032000D03*
X215478000Y-70032000D03*
%TD*%
%TO.C,C24*%
X213928000Y-65012000D03*
X215478000Y-65012000D03*
%TD*%
D13*
%TO.C,R1*%
X213878000Y-82072000D03*
X215528000Y-82072000D03*
%TD*%
%TO.C,R6*%
X203858000Y-80072000D03*
X205508000Y-80072000D03*
%TD*%
D12*
%TO.C,C8*%
X199898000Y-65012000D03*
X201448000Y-65012000D03*
%TD*%
%TO.C,C2*%
X195888000Y-67522000D03*
X197438000Y-67522000D03*
%TD*%
D13*
%TO.C,R3*%
X203858000Y-72542000D03*
X205508000Y-72542000D03*
%TD*%
%TO.C,R10*%
X207868000Y-72542000D03*
X209518000Y-72542000D03*
%TD*%
%TO.C,R4*%
X203858000Y-75052000D03*
X205508000Y-75052000D03*
%TD*%
%TO.C,R2*%
X203858000Y-70032000D03*
X205508000Y-70032000D03*
%TD*%
D12*
%TO.C,C21*%
X195888000Y-84582000D03*
X197438000Y-84582000D03*
%TD*%
%TO.C,C7*%
X195888000Y-80072000D03*
X197438000Y-80072000D03*
%TD*%
%TO.C,C16*%
X203908000Y-67522000D03*
X205458000Y-67522000D03*
%TD*%
%LPD*%
M02*
